<svg width="40" height="40" viewBox="0 0 40 40" fill="none" xmlns="http://www.w3.org/2000/svg">
<path d="M5.77779 11.5556H7.11112V14.2222H0.8889C0.537789 14.2222 0.217789 14.4311 0.075567 14.7511C-0.0666552 15.0756 -0.00443302 15.4489 0.231122 15.7111C2.45334 18.1556 2.45334 21.8444 0.231122 24.2889C-0.00443302 24.5511 -0.0666552 24.9244 0.075567 25.2489C0.217789 25.5689 0.537789 25.7778 0.8889 25.7778H34.2222C37.4089 25.7778 40 23.1867 40 20C40 16.8133 37.4089 14.2222 34.2222 14.2222H16V11.5556H39.1111C39.4622 11.5556 39.7822 11.3467 39.9244 11.0267C40.0667 10.7022 40.0044 10.3289 39.7689 10.0667C37.5467 7.62222 37.5467 3.93333 39.7689 1.48889C40.0044 1.22667 40.0667 0.853333 39.9244 0.528889C39.7822 0.208889 39.4622 0 39.1111 0H5.77779C2.59112 0 1.14095e-05 2.59111 1.14095e-05 5.77778C1.14095e-05 8.96444 2.59112 11.5556 5.77779 11.5556ZM34.2222 16C36.4267 16 38.2222 17.7956 38.2222 20C38.2222 22.2044 36.4267 24 34.2222 24H2.62668C4.03112 21.52 4.03112 18.48 2.62668 16H7.11112V19.5556C7.11112 19.8933 7.30223 20.2 7.60445 20.3511C7.90223 20.5022 8.26223 20.4667 8.53334 20.2667L11.5556 18L14.5778 20.2667C14.7333 20.3822 14.9244 20.4444 15.1111 20.4444C15.2489 20.4444 15.3822 20.4133 15.5067 20.3511C15.8089 20.2 16 19.8933 16 19.5556V16H34.2222ZM8.8889 17.7778V7.11111H14.2222V17.7778L12.0889 16.1778C11.9289 16.0578 11.7422 16 11.5556 16C11.3689 16 11.1822 16.0578 11.0222 16.1778L8.8889 17.7778ZM5.77779 1.77778H37.3733C35.9689 4.25778 35.9689 7.29778 37.3733 9.77778H16V6.22222C16 5.73333 15.6 5.33333 15.1111 5.33333H8.00001C7.51112 5.33333 7.11112 5.73333 7.11112 6.22222V9.77778H5.77779C3.57334 9.77778 1.77779 7.98222 1.77779 5.77778C1.77779 3.57333 3.57334 1.77778 5.77779 1.77778ZM39.9244 28.9733C39.7822 28.6533 39.4622 28.4444 39.1111 28.4444H5.77779C2.59112 28.4444 1.14095e-05 31.0356 1.14095e-05 34.2222C1.14095e-05 37.4089 2.59112 40 5.77779 40H39.1111C39.4622 40 39.7822 39.7911 39.9244 39.4711C40.0667 39.1467 40.0044 38.7733 39.7689 38.5111C37.5467 36.0667 37.5467 32.3778 39.7689 29.9333C40.0044 29.6711 40.0667 29.2978 39.9244 28.9733ZM37.3733 38.2222H5.77779C3.57334 38.2222 1.77779 36.4267 1.77779 34.2222C1.77779 32.0178 3.57334 30.2222 5.77779 30.2222H37.3733C35.9689 32.7022 35.9689 35.7422 37.3733 38.2222Z" fill="white"/>
</svg>
