<svg width="45" height="43" viewBox="0 0 45 43" fill="none" xmlns="http://www.w3.org/2000/svg">
<path d="M22.5 0C10.0839 0 5.19232e-05 9.63564 1.6242e-10 21.5C-4.67306e-05 33.3644 10.0838 43 22.5 43C34.9162 43 45 33.3644 45 21.5C44.9999 9.63564 34.9161 0 22.5 0ZM22.5 1.65385C33.9807 1.65385 43.2692 10.5295 43.2692 21.5C43.2693 32.4705 33.9807 41.3462 22.5 41.3462C11.0193 41.3462 1.73073 32.4705 1.73077 21.5C1.73082 10.5295 11.0193 1.65385 22.5 1.65385ZM10.3846 11.5769V12.4038V28.1154H19.0385V31.4231H15.5769V33.0769H19.0385H25.9615H29.4231V31.4231H25.9615V28.1154H34.6154V11.5769H10.3846ZM12.1154 13.2308H32.8846V26.4615H12.1154V13.2308ZM13.8462 14.8846V15.7115V24.8077H31.1538V14.8846H13.8462ZM15.5769 16.5385H29.4231V23.1538H15.5769V16.5385ZM20.7692 28.1154H24.2308V31.4231H20.7692V28.1154Z" fill="white"/>
</svg>
