<svg width="28" height="28" viewBox="0 0 28 28" fill="none" xmlns="http://www.w3.org/2000/svg">
<path d="M26.1589 0H1.63687C1.23496 0 0.849507 0.16225 0.565313 0.451056C0.281119 0.739862 0.12146 1.13157 0.12146 1.54V26.46C0.12146 26.6622 0.160657 26.8625 0.236814 27.0493C0.31297 27.2362 0.424594 27.4059 0.565313 27.5489C0.706031 27.6919 0.873088 27.8054 1.05695 27.8828C1.2408 27.9602 1.43786 28 1.63687 28H14.8347V17.15H11.2528V12.95H14.8347V9.8C14.7605 9.06046 14.8464 8.31338 15.0864 7.61115C15.3264 6.90893 15.7147 6.26856 16.224 5.73498C16.7333 5.20139 17.3513 4.7875 18.0347 4.52233C18.7181 4.25717 19.4503 4.14715 20.1799 4.2C21.2522 4.19329 22.3239 4.24939 23.3898 4.368V8.148H21.1994C19.4636 8.148 19.1329 8.988 19.1329 10.206V12.908H23.2659L22.7286 17.108H19.1329V28H26.1589C26.3579 28 26.555 27.9602 26.7388 27.8828C26.9227 27.8054 27.0897 27.6919 27.2305 27.5489C27.3712 27.4059 27.4828 27.2362 27.559 27.0493C27.6351 26.8625 27.6743 26.6622 27.6743 26.46V1.54C27.6743 1.33776 27.6351 1.13751 27.559 0.950668C27.4828 0.763826 27.3712 0.594058 27.2305 0.451056C27.0897 0.308053 26.9227 0.194618 26.7388 0.117226C26.555 0.0398334 26.3579 0 26.1589 0Z" fill="white"/>
</svg>
