<svg width="28" height="28" viewBox="0 0 28 28" fill="none" xmlns="http://www.w3.org/2000/svg">
<path d="M14.141 0C10.8698 0.000141338 7.70533 1.21308 5.21388 3.4218C2.72244 5.63051 1.06657 8.69086 0.54256 12.0553C0.0185525 15.4197 0.660602 18.8686 2.35383 21.7849C4.04705 24.7011 6.68095 26.8945 9.78426 27.9725C10.4731 28.0981 10.7314 27.6675 10.7314 27.2907C10.7314 26.9498 10.7141 25.8194 10.7141 24.6173C7.25283 25.2811 6.35737 23.7381 6.08184 22.9307C5.77611 22.1454 5.29146 21.4495 4.66976 20.9031C4.18759 20.634 3.49878 19.9701 4.65253 19.9522C5.09308 20.002 5.51561 20.1617 5.88433 20.4179C6.25304 20.674 6.55707 21.0189 6.77066 21.4235C6.95908 21.7761 7.21243 22.0866 7.51622 22.3371C7.82 22.5876 8.16823 22.7731 8.54096 22.8831C8.91369 22.9932 9.30359 23.0255 9.68832 22.9782C10.073 22.9309 10.445 22.805 10.783 22.6077C10.8426 21.8779 11.1548 21.1957 11.6613 20.6879C8.59602 20.329 5.39302 19.0909 5.39302 13.6005C5.37366 12.174 5.87889 10.7937 6.8051 9.74288C6.38393 8.503 6.43321 7.14233 6.94286 5.93905C6.94286 5.93905 8.09659 5.56224 10.7313 7.41034C12.9856 6.76437 15.3653 6.76437 17.6195 7.41034C20.2542 5.54431 21.408 5.93905 21.408 5.93905C21.9177 7.14231 21.967 8.50301 21.5458 9.74288C22.4748 10.7919 22.9804 12.1734 22.9578 13.6005C22.9578 19.1089 19.7376 20.329 16.6724 20.6879C17.0012 21.0351 17.2544 21.4519 17.4148 21.9101C17.5753 22.3683 17.6392 22.8572 17.6023 23.3434C17.6023 25.2633 17.5851 26.8063 17.5851 27.2908C17.5851 27.6676 17.8434 28.1161 18.5322 27.9726C21.63 26.8858 24.2564 24.6873 25.9424 21.7695C27.6284 18.8517 28.2643 15.4046 27.7367 12.0434C27.209 8.68228 25.5522 5.6259 23.0618 3.41988C20.5715 1.21385 17.4097 0.0017726 14.141 0Z" fill="white"/>
</svg>
