<svg width="28" height="28" viewBox="0 0 28 28" fill="none" xmlns="http://www.w3.org/2000/svg">
<path d="M21.1329 4.844C20.806 4.844 20.4864 4.94253 20.2145 5.12713C19.9426 5.31173 19.7307 5.57411 19.6056 5.88109C19.4805 6.18807 19.4478 6.52586 19.5115 6.85175C19.5753 7.17764 19.7328 7.47699 19.964 7.71194C20.1952 7.94689 20.4897 8.1069 20.8104 8.17172C21.1311 8.23654 21.4635 8.20327 21.7656 8.07612C22.0677 7.94896 22.3258 7.73363 22.5075 7.45736C22.6892 7.18108 22.7861 6.85627 22.7861 6.524C22.7861 6.07844 22.6119 5.65112 22.3019 5.33606C21.9919 5.021 21.5714 4.844 21.1329 4.844ZM27.4701 8.232C27.4433 7.07042 27.2292 5.92116 26.8364 4.83C26.4861 3.89639 25.9409 3.05099 25.2383 2.352C24.5561 1.6344 23.7223 1.08385 22.7999 0.742C21.729 0.330625 20.5968 0.108094 19.4522 0.0839999C17.9919 -7.82311e-08 17.5235 0 13.7764 0C10.0292 0 9.5608 -7.82311e-08 8.1005 0.0839999C6.9559 0.108094 5.82374 0.330625 4.75285 0.742C3.83214 1.08731 2.99902 1.63738 2.31443 2.352C1.60829 3.04525 1.06653 3.89262 0.730147 4.83C0.325344 5.91828 0.106367 7.06881 0.0826581 8.232C-7.69815e-08 9.716 0 10.192 0 14C0 17.808 -7.69815e-08 18.284 0.0826581 19.768C0.106367 20.9312 0.325344 22.0817 0.730147 23.17C1.06653 24.1074 1.60829 24.9548 2.31443 25.648C2.99902 26.3626 3.83214 26.9127 4.75285 27.258C5.82374 27.6694 6.9559 27.8919 8.1005 27.916C9.5608 28 10.0292 28 13.7764 28C17.5235 28 17.9919 28 19.4522 27.916C20.5968 27.8919 21.729 27.6694 22.7999 27.258C23.7223 26.9162 24.5561 26.3656 25.2383 25.648C25.944 24.9516 26.4897 24.1055 26.8364 23.17C27.2292 22.0788 27.4433 20.9296 27.4701 19.768C27.4701 18.284 27.5527 17.808 27.5527 14C27.5527 10.192 27.5527 9.716 27.4701 8.232ZM24.9903 19.6C24.9803 20.4887 24.8219 21.3692 24.5219 22.204C24.302 22.8133 23.9487 23.3638 23.4887 23.814C23.0419 24.2767 22.5013 24.635 21.9044 24.864C21.0829 25.1689 20.2165 25.3298 19.342 25.34C17.9644 25.41 17.4547 25.424 13.8315 25.424C10.2083 25.424 9.69856 25.424 8.32093 25.34C7.41291 25.3573 6.50878 25.2152 5.64831 24.92C5.07767 24.6793 4.56185 24.3219 4.13291 23.87C3.67566 23.4202 3.32678 22.8693 3.11346 22.26C2.77712 21.4132 2.59057 20.5127 2.5624 19.6C2.5624 18.2 2.47975 17.682 2.47975 14C2.47975 10.318 2.47975 9.8 2.5624 8.4C2.56858 7.49148 2.73178 6.59112 3.04458 5.74C3.28711 5.14908 3.65937 4.62232 4.13291 4.2C4.55145 3.71864 5.06872 3.33633 5.64831 3.08C6.48805 2.77206 7.37311 2.61111 8.26582 2.604C9.64346 2.604 10.1532 2.52 13.7764 2.52C17.3996 2.52 17.9093 2.52 19.2869 2.604C20.1614 2.61419 21.0278 2.77514 21.8493 3.08C22.4754 3.31611 23.0372 3.69999 23.4887 4.2C23.9402 4.63005 24.2929 5.15583 24.5219 5.74C24.8281 6.59251 24.9866 7.49249 24.9903 8.4C25.0592 9.8 25.073 10.318 25.073 14C25.073 17.682 25.0592 18.2 24.9903 19.6ZM13.7764 6.818C12.3792 6.82077 11.0142 7.24434 9.85376 8.03518C8.69337 8.82603 7.78968 9.94867 7.25689 11.2613C6.72409 12.5738 6.5861 14.0175 6.86035 15.4097C7.13459 16.8019 7.80877 18.0803 8.79769 19.0834C9.78662 20.0864 11.0459 20.769 12.4164 21.045C13.787 21.321 15.2073 21.1779 16.4978 20.634C17.7884 20.09 18.8914 19.1694 19.6673 17.9886C20.4433 16.8079 20.8574 15.4199 20.8574 14C20.8592 13.0551 20.6772 12.1192 20.3218 11.2461C19.9665 10.373 19.4447 9.57993 18.7867 8.91247C18.1286 8.24501 17.3471 7.71635 16.4873 7.3569C15.6274 6.99745 14.7061 6.81431 13.7764 6.818ZM13.7764 18.662C12.869 18.662 11.9821 18.3886 11.2277 17.8763C10.4733 17.364 9.88526 16.6359 9.53804 15.7841C9.19082 14.9322 9.09997 13.9948 9.27698 13.0905C9.454 12.1861 9.89091 11.3555 10.5325 10.7035C11.1741 10.0515 11.9915 9.60746 12.8814 9.42758C13.7713 9.24769 14.6937 9.34002 15.5319 9.69287C16.3702 10.0457 17.0867 10.6433 17.5908 11.4099C18.0948 12.1766 18.3639 13.0779 18.3639 14C18.3639 14.6122 18.2452 15.2184 18.0147 15.7841C17.7841 16.3497 17.4462 16.8636 17.0202 17.2965C16.5942 17.7294 16.0885 18.0728 15.5319 18.3071C14.9754 18.5414 14.3788 18.662 13.7764 18.662Z" fill="white"/>
</svg>
