<svg width="28" height="28" viewBox="0 0 28 28" fill="none" xmlns="http://www.w3.org/2000/svg">
<path d="M25.7584 0.00019576H2.28028C2.01636 -0.00350666 1.75431 0.0453416 1.50908 0.143951C1.26386 0.24256 1.04027 0.388999 0.851075 0.574905C0.661884 0.76081 0.5108 0.98254 0.406452 1.22743C0.302104 1.47232 0.246535 1.73558 0.24292 2.00217V25.9978C0.246535 26.2644 0.302104 26.5277 0.406452 26.7726C0.5108 27.0175 0.661884 27.2392 0.851075 27.4251C1.04027 27.611 1.26386 27.7574 1.50908 27.856C1.75431 27.9547 2.01636 28.0035 2.28028 27.9998H25.7584C26.0223 28.0035 26.2844 27.9547 26.5296 27.856C26.7748 27.7574 26.9984 27.611 27.1876 27.4251C27.3768 27.2392 27.5279 27.0175 27.6322 26.7726C27.7366 26.5277 27.7922 26.2644 27.7958 25.9978V2.00217C27.7922 1.73558 27.7366 1.47232 27.6322 1.22743C27.5279 0.98254 27.3768 0.76081 27.1876 0.574905C26.9984 0.388999 26.7748 0.24256 26.5296 0.143951C26.2844 0.0453416 26.0223 -0.00350666 25.7584 0.00019576ZM8.60025 23.4359H4.44237V10.836H8.60025V23.4359ZM6.52131 9.07207C5.94789 9.07207 5.39795 8.84197 4.99248 8.4324C4.58701 8.02283 4.35922 7.46732 4.35922 6.8881C4.35922 6.30887 4.58701 5.75337 4.99248 5.3438C5.39795 4.93423 5.94789 4.70413 6.52131 4.70413C6.8258 4.66925 7.13415 4.69973 7.42617 4.79357C7.71819 4.8874 7.98729 5.04249 8.21586 5.24867C8.44443 5.45485 8.62731 5.70747 8.75253 5.98999C8.87774 6.27251 8.94247 6.57856 8.94247 6.8881C8.94247 7.19764 8.87774 7.50369 8.75253 7.78621C8.62731 8.06873 8.44443 8.32135 8.21586 8.52753C7.98729 8.73371 7.71819 8.88879 7.42617 8.98263C7.13415 9.07647 6.8258 9.10695 6.52131 9.07207ZM23.5963 23.4359H19.4384V16.674C19.4384 14.98 18.8425 13.874 17.3318 13.874C16.8643 13.8775 16.409 14.0256 16.0274 14.2984C15.6457 14.5713 15.3561 14.9557 15.1974 15.4C15.089 15.729 15.042 16.0756 15.0588 16.422V23.4219H10.9009C10.9009 23.4219 10.9009 11.97 10.9009 10.822H15.0588V12.6C15.4365 11.938 15.9859 11.3926 16.6477 11.0225C17.3096 10.6525 18.0588 10.4718 18.8148 10.5C21.5867 10.5 23.5963 12.306 23.5963 16.184V23.4359Z" fill="white"/>
</svg>
