<svg width="393" height="364" viewBox="0 0 393 364" fill="none" xmlns="http://www.w3.org/2000/svg">
<path d="M63.3301 221.7C71.436 200.618 81.1962 180.068 92.4867 160.295C100.014 147.114 108.988 133.605 123.256 126.973C129.17 124.23 136.366 122.88 142.239 125.745C148.36 128.733 151.213 135.324 153.653 141.383C158.451 153.459 163.29 165.535 168.087 177.611C169.534 181.214 171.313 185.226 175.076 186.74C181.611 189.401 188.021 183.056 191.991 177.489C212.173 149.038 232.356 120.587 252.538 92.1363C255.309 88.2474 258.658 83.99 263.58 83.2941C269.618 82.4344 274.788 87.3468 278.262 92.0954C306.591 130.453 303.696 183.547 331.488 222.273L63.3301 221.7Z" fill="#DCF2FF"/>
<path d="M334.342 147.851C341.951 151.944 347.08 159.886 347.08 169.056C347.08 182.36 336.161 193.167 322.72 193.167C312.34 193.167 303.489 186.74 299.974 177.693L334.342 147.851Z" fill="#CCEEFF"/>
<path d="M296.707 177.816C317.994 177.816 335.251 160.735 335.251 139.664C335.251 118.592 317.994 101.511 296.707 101.511C275.419 101.511 258.162 118.592 258.162 139.664C258.162 160.735 275.419 177.816 296.707 177.816Z" fill="#B0E1FF"/>
<path d="M296.707 215.027C296.211 215.027 295.838 214.618 295.838 214.168V139.663C295.838 139.172 296.252 138.804 296.707 138.804C297.203 138.804 297.575 139.213 297.575 139.663V214.168C297.575 214.659 297.162 215.027 296.707 215.027Z" fill="#CCEEFF"/>
<path d="M296.707 160.295C296.5 160.295 296.252 160.214 296.086 160.05L285.292 149.365C284.961 149.038 284.961 148.465 285.292 148.137C285.623 147.81 286.202 147.81 286.533 148.137L297.327 158.822C297.658 159.149 297.658 159.722 297.327 160.05C297.12 160.173 296.914 160.295 296.707 160.295ZM296.707 170.202C296.5 170.202 296.252 170.12 296.086 169.956L285.292 159.272C284.961 158.945 284.961 158.371 285.292 158.044C285.623 157.716 286.202 157.716 286.533 158.044L297.327 168.728C297.658 169.056 297.658 169.629 297.327 169.956C297.12 170.12 296.914 170.202 296.707 170.202ZM322.596 215.027C322.183 214.946 321.893 214.536 321.893 214.127V175.073C321.893 174.582 322.265 174.173 322.72 174.173C323.217 174.132 323.63 174.541 323.63 175.033V214.168C323.63 214.7 323.134 215.109 322.596 215.027Z" fill="#CCEEFF"/>
<path d="M322.762 180.723C322.555 180.723 322.307 180.641 322.141 180.477C321.81 180.15 321.81 179.576 322.141 179.249L329.916 171.553C330.247 171.225 330.826 171.225 331.157 171.553C331.488 171.88 331.488 172.454 331.157 172.781L323.382 180.477C323.175 180.641 322.968 180.723 322.762 180.723ZM322.762 187.887C322.555 187.887 322.307 187.805 322.141 187.641C321.81 187.313 321.81 186.74 322.141 186.413L329.916 178.717C330.247 178.389 330.826 178.389 331.157 178.717C331.488 179.044 331.488 179.617 331.157 179.945L323.382 187.641C323.175 187.805 322.968 187.887 322.762 187.887Z" fill="#CCEEFF"/>
<path d="M63.6198 199.39C86.0494 199.39 104.232 181.392 104.232 159.19C104.232 136.989 86.0494 118.991 63.6198 118.991C41.1901 118.991 23.0073 136.989 23.0073 159.19C23.0073 181.392 41.1901 199.39 63.6198 199.39Z" fill="#B0E1FF"/>
<path d="M63.6198 238.607C63.1235 238.607 62.71 238.197 62.71 237.706V159.19C62.71 158.699 63.1235 158.289 63.6198 158.289C64.1161 158.289 64.5297 158.699 64.5297 159.19V237.706C64.5297 238.197 64.1161 238.607 63.6198 238.607Z" fill="#CCEEFF"/>
<path d="M63.6197 180.927C63.3715 180.927 63.1648 180.845 62.958 180.641L51.5848 169.383C51.2126 169.015 51.2126 168.442 51.5848 168.073C51.957 167.705 52.536 167.705 52.9082 168.073L64.2814 179.331C64.6536 179.699 64.6536 180.272 64.2814 180.641C64.0746 180.845 63.8678 180.927 63.6197 180.927ZM63.6197 191.366C63.3715 191.366 63.1648 191.284 62.958 191.08L51.5848 179.822C51.2126 179.454 51.2126 178.881 51.5848 178.512C51.957 178.144 52.536 178.144 52.9082 178.512L64.2814 189.77C64.6536 190.138 64.6536 190.711 64.2814 191.08C64.0746 191.284 63.8678 191.366 63.6197 191.366Z" fill="#CCEEFF"/>
<path d="M379.586 360.27H13.3298C1.95665 360.27 -3.13024 351.141 1.99801 339.924L50.9645 231.811C56.0514 220.554 66.3493 211.466 74.0003 211.466H319.701C327.311 211.466 337.568 220.595 342.613 231.811L391.083 339.924C396.087 351.141 390.959 360.27 379.586 360.27Z" fill="#F2F2F2"/>
<path d="M199.187 210.852L222.637 226.531L198.857 241.472L175.449 225.794L199.187 210.852Z" fill="white"/>
<path d="M222.637 226.531L248.692 242.291L224.953 257.192L198.898 241.472L222.637 226.531Z" fill="#CCE9FF"/>
<path d="M248.692 242.291L277.476 258.051L253.696 272.993L224.953 257.192L248.692 242.291Z" fill="white"/>
<path d="M277.476 258.051L308.866 273.894L285.127 288.836L253.696 272.993L277.476 258.051Z" fill="#CCE9FF"/>
<path d="M308.866 273.894L342.944 289.777L319.205 304.719L285.127 288.836L308.866 273.894Z" fill="white"/>
<path d="M175.449 225.794L198.857 241.472L172.471 256.332L149.063 240.654L175.449 225.794Z" fill="#CCE9FF"/>
<path d="M198.898 241.472L224.953 257.192L198.526 272.052L172.471 256.332L198.898 241.472Z" fill="white"/>
<path d="M224.953 257.192L253.696 272.993L227.31 287.853L198.567 272.052L224.953 257.192Z" fill="#CCE9FF"/>
<path d="M253.696 272.993L285.127 288.836L258.7 303.696L227.31 287.853L253.696 272.993Z" fill="white"/>
<path d="M285.127 288.836L319.205 304.719L292.82 319.579L258.7 303.696L285.127 288.836Z" fill="#CCE9FF"/>
<path d="M149.063 240.654L172.471 256.332L143.397 271.151L119.948 255.472L149.063 240.654Z" fill="white"/>
<path d="M172.471 256.332L198.526 272.052L169.452 286.871L143.397 271.151L172.471 256.332Z" fill="#CCE9FF"/>
<path d="M198.567 272.052L227.31 287.853L198.236 302.672L169.452 286.871L198.567 272.052Z" fill="white"/>
<path d="M227.31 287.853L258.7 303.696L229.626 318.515L198.236 302.672L227.31 287.853Z" fill="#CCE9FF"/>
<path d="M258.7 303.696L292.819 319.579L263.704 334.398L229.626 318.515L258.7 303.696Z" fill="white"/>
<path d="M119.948 255.473L143.397 271.151L111.635 285.929L88.2268 270.251L119.948 255.473Z" fill="#CCE9FF"/>
<path d="M143.397 271.151L169.452 286.871L137.731 301.649L111.635 285.929L143.397 271.151Z" fill="white"/>
<path d="M169.452 286.871L198.236 302.672L166.474 317.45L137.731 301.649L169.452 286.871Z" fill="#CCE9FF"/>
<path d="M198.236 302.672L229.626 318.514L197.905 333.293L166.474 317.45L198.236 302.672Z" fill="white"/>
<path d="M229.626 318.514L263.704 334.398L231.983 349.176L197.905 333.293L229.626 318.514Z" fill="#CCE9FF"/>
<path d="M88.227 270.251L111.635 285.929L77.2261 300.625L53.8181 284.947L88.227 270.251Z" fill="white"/>
<path d="M111.635 285.929L137.731 301.649L103.281 316.386L77.2261 300.625L111.635 285.929Z" fill="#CCE9FF"/>
<path d="M137.731 301.649L166.474 317.45L132.065 332.146L103.281 316.386L137.731 301.649Z" fill="white"/>
<path d="M166.474 317.45L197.906 333.293L163.455 347.989L132.065 332.146L166.474 317.45Z" fill="#CCE9FF"/>
<path d="M197.905 333.293L231.984 349.176L197.575 363.872L163.455 347.989L197.905 333.293Z" fill="white"/>
<path d="M108.492 258.133C88.3926 253.958 80.4934 252.607 80.4934 252.607C80.4934 252.607 93.3967 266.689 89.5505 277.373C109.195 279.093 133.141 281.385 150.386 277.373C149.187 272.215 149.559 256.414 154.977 253.548C145.548 254.326 129.667 255.063 129.667 255.063L108.492 258.133Z" fill="#0B4870"/>
<path d="M137.235 229.314C137.235 229.314 136.573 254.449 141.577 255.391C136.904 258.747 98.194 261.122 93.8516 255.391C96.2503 244.092 101.13 214.823 101.13 214.823L114.695 202.665L125.986 204.466L137.235 229.314Z" fill="#2A94F4"/>
<path d="M142.653 225.957C143.48 228.168 148.649 235.823 165.151 217.606C166.226 218.425 167.55 219.653 167.55 219.653C167.55 219.653 140.792 254.04 135.622 228.25C139.013 227.226 142.653 225.957 142.653 225.957Z" fill="#FCD2B1"/>
<path d="M122.098 202.46C127.806 201.887 142.281 205.366 146.416 225.384C142.942 231.443 135.912 234.595 135.912 234.595L122.098 202.46Z" fill="#2A94F4"/>
<path d="M121.726 196.77C122.595 200.741 122.843 204.056 123.711 204.548C122.719 207.004 120.982 210.852 120.982 210.852L112.462 205.121L114.489 196.77H121.726Z" fill="#FCD2B1"/>
<path d="M110.601 168.524C106.714 169.179 102.371 173.641 101.834 177.816C101.296 181.992 102.785 186.208 105.018 189.688C105.804 190.916 106.714 192.144 107.913 192.922C109.112 193.699 110.601 194.109 111.925 193.577C113.331 193.045 114.282 191.653 114.737 190.138C115.192 188.623 115.233 187.027 115.233 185.471C115.274 181.214 115.274 176.711 113.289 173.068L110.601 168.524Z" fill="#0B4870"/>
<path d="M129.667 185.471C129.667 193.167 126.813 199.39 120.734 199.39C114.654 199.39 107.706 197.179 107.706 187.682C107.706 179.986 112.628 171.553 118.666 171.553C124.745 171.553 129.667 177.775 129.667 185.471Z" fill="#FFE3CA"/>
<path d="M111.304 181.828C108.409 182.81 107.127 180.6 106.093 177.407C105.018 174.214 106.507 170.202 109.278 168.81C111.263 167.828 113.537 168.073 115.605 168.605C117.715 169.138 119.824 169.874 121.974 169.793C124.125 169.711 126.441 168.605 127.309 166.395C129.749 167.377 131.445 170.202 131.569 173.108C131.693 176.015 130.411 178.921 128.426 180.805C126.441 182.688 123.835 183.67 121.271 183.793C119.079 183.916 114.489 183.629 113 181.746L111.304 181.828Z" fill="#0B4870"/>
<path d="M107.251 188.398C108.065 188.173 108.371 186.737 107.934 185.191C107.497 183.645 106.484 182.574 105.67 182.8C104.856 183.025 104.55 184.461 104.987 186.007C105.424 187.553 106.437 188.623 107.251 188.398Z" fill="#FFE3CA"/>
<path d="M113.414 179.986C113.538 181.787 112.049 184.816 108.575 185.471C108.202 186.904 108.575 189.319 108.575 189.319L107.334 189.729L106.631 175.114L113.414 179.986Z" fill="#0B4870"/>
<path d="M80.4933 252.607C68.9961 249.209 53.2391 259.198 59.0291 267.835C64.819 276.473 90.9979 277.496 90.9979 277.496C90.9979 277.496 97.1187 257.519 80.4933 252.607Z" fill="#FCD2B1"/>
<path d="M56.796 263.046C55.059 271.642 61.8415 284.496 110.601 284.21C118.418 285.765 129.667 290.023 129.667 290.023C129.667 290.023 131.279 282.286 126.482 280.894C121.685 279.543 122.967 274.713 120.982 274.794C117.26 275.859 112.504 277.496 112.504 277.496C112.504 277.496 82.065 257.437 63.3303 257.724C60.1459 257.806 57.4163 259.975 56.796 263.046Z" fill="#FCD6BE"/>
<path d="M156.094 252.607C167.591 249.209 183.348 259.198 177.558 267.835C171.768 276.473 145.589 277.496 145.589 277.496C145.589 277.496 139.468 257.519 156.094 252.607Z" fill="#FCD2B1"/>
<path d="M179.791 263.046C181.528 271.642 174.746 284.496 125.986 284.21C118.169 285.765 106.92 290.023 106.92 290.023C106.92 290.023 105.307 282.286 110.105 280.894C114.902 279.543 113.62 274.713 115.605 274.794C119.327 275.859 124.084 277.496 124.084 277.496C124.084 277.496 154.522 257.437 173.257 257.724C176.441 257.806 179.171 259.975 179.791 263.046Z" fill="#FFE3CA"/>
<path d="M124.083 231.197L170.858 215.15L171.685 217.361L125.986 236.151L124.083 231.197Z" fill="#FFBE55"/>
<path d="M182.852 215.559L172.512 219.448L167.55 217.647L170.031 213.021L180.411 209.132L182.852 215.559Z" fill="#FFBE55"/>
<path d="M122.336 246.978C129.934 244.113 134.242 236.978 131.958 231.041C129.673 225.104 121.661 222.613 114.062 225.478C106.464 228.343 102.156 235.479 104.44 241.416C106.725 247.352 114.737 249.843 122.336 246.978Z" fill="#FFBE55"/>
<path d="M121.467 244.721C127.465 242.459 130.864 236.824 129.059 232.133C127.254 227.443 120.929 225.474 114.931 227.735C108.933 229.997 105.534 235.632 107.339 240.323C109.144 245.013 115.469 246.982 121.467 244.721Z" fill="#FFBE55"/>
<path d="M88.9303 226.94C85.7871 232.712 78.9633 254.163 96.2091 246.548C113.455 238.934 114.737 237.01 114.737 237.01L111.594 234.636C111.594 234.636 82.5613 249.332 96.4158 229.396C92.4869 225.548 88.9303 226.94 88.9303 226.94Z" fill="#FCD2B1"/>
<path d="M111.552 234.677L111.966 231.033H113.538L116.391 226.735L117.26 228.045L119.038 232.876L114.696 237.051L112.049 237.46L111.552 234.677Z" fill="#FCD2B1"/>
<path d="M115.233 201.887C107.996 202.787 98.4423 201.518 92.7351 214.986C87.0278 228.454 87.0278 228.454 87.0278 228.454L98.2355 231.975L105.762 216.378L115.233 201.887Z" fill="#2A94F4"/>
<path d="M168.542 219.694L168.335 217.156L164.2 216.133L161.635 218.22C160.932 218.793 160.891 219.817 161.511 220.472L163.414 222.437L168.542 219.694Z" fill="#FCD2B1"/>
<path d="M306.095 307.953C306.095 307.953 316.806 310.941 317.84 311.228C314.821 311.719 303.076 311.228 303.076 311.228L302.662 307.625L306.095 307.953Z" fill="#FCD2B1"/>
<path d="M244.887 273.239C244.887 273.239 227.062 259.116 222.099 260.262C217.136 261.408 173.546 295.058 173.546 295.058H188.683C188.683 295.058 218.212 278.765 221.438 273.28C227.724 281.59 238.807 288.385 238.807 288.385L244.887 273.239Z" fill="#F9C5A2"/>
<path d="M145.175 291.169C145.175 291.169 138.517 281.181 137.028 280.239C134.009 280.853 136.366 291.128 138.103 293.953C138.227 295.754 135.746 302.549 147.367 298.251C148.484 293.38 145.175 291.169 145.175 291.169Z" fill="#0E538C"/>
<path d="M240.213 285.52C238.518 284.537 145.175 291.169 145.175 291.169L147.409 298.251C147.409 298.251 186.325 299.356 191.702 297.432C200.18 298.415 234.672 300.175 234.672 300.175L240.213 285.52Z" fill="#FCD2B1"/>
<path d="M265.276 273.239H244.928C244.928 273.239 232.769 292.111 233.927 299.848C241.992 303.859 303.076 321.094 289.097 275.122C279.089 274.017 265.276 273.239 265.276 273.239Z" fill="#0B4870"/>
<path d="M281.943 229.764C277.683 229.969 271.397 226.94 267.344 232.753C263.291 238.566 257.625 273.239 257.625 273.239H261.554L268.46 250.806L269.784 255.227C269.784 255.227 270.445 269.636 265.276 273.28C268.584 278.479 281.529 282.081 288.601 276.268C291.124 265.993 293.564 250.11 293.564 250.11L301.959 308.321H307.212C307.212 308.321 305.888 236.273 302.207 232.221C298.527 228.168 290.752 228.004 290.752 228.004L281.943 229.764Z" fill="#2A94F4"/>
<path d="M299.891 203.975C299.891 211.916 292.943 220.554 284.258 220.554C275.573 220.554 268.501 210.074 268.501 202.132C268.501 194.191 275.573 188.746 284.258 188.746C292.943 188.746 299.891 196.074 299.891 203.975Z" fill="#0B4870"/>
<path d="M280.785 219.981C280.785 219.981 280.867 231.034 280.123 232.343C281.488 235.045 281.943 235.905 281.943 235.905L290.752 227.922L288.229 218.016L280.785 219.981Z" fill="#FCD2B1"/>
<path d="M270.363 197.384C271.231 208.682 273.175 222.928 279.378 222.723C285.582 222.519 290.545 218.057 291.206 216.133C291.868 214.209 293.564 201.232 293.564 201.232L270.363 197.384Z" fill="#FFE3CA"/>
<path d="M268.501 197.179C268.915 195.828 270.156 194.805 271.52 194.354C272.885 193.863 274.333 193.863 275.78 193.863C278.882 193.863 281.942 194.027 285.003 194.354C287.443 194.6 289.883 194.969 292.116 195.91C294.35 196.852 296.417 198.407 297.534 200.536C298.692 202.787 298.651 205.694 297.162 207.782C295.714 209.869 292.778 210.934 290.379 210.074C287.071 208.887 285.416 204.752 281.984 204.015C279.751 203.524 277.476 204.711 275.16 204.752C273.051 204.834 270.9 203.893 269.535 202.296C268.212 200.7 268.501 197.179 268.501 197.179Z" fill="#0B4870"/>
<path d="M286.699 190.097C293.936 184.202 304.854 183.343 312.96 187.968C316.227 189.852 318.998 192.471 322.1 194.559C325.202 196.647 328.965 198.284 332.687 197.67C335.334 197.261 337.692 195.746 340.173 194.764C343.688 193.331 347.659 192.84 351.298 193.945C354.937 195.05 358.081 197.875 359.073 201.477C359.859 204.343 359.239 207.454 357.915 210.115C355.31 215.437 349.809 219.244 343.895 219.899C337.94 220.554 331.778 218.016 328.014 213.431C325.946 210.893 324.499 207.7 321.728 205.858C318.461 203.729 314.201 204.015 310.355 204.711C306.509 205.407 302.497 206.349 298.775 205.285C295.756 204.384 293.192 202.214 291.331 199.717C289.47 197.22 288.188 194.273 286.906 191.407L286.699 190.097Z" fill="#0B4870"/>
<path d="M293.754 214.039C294.371 212.981 294.277 211.785 293.545 211.367C292.813 210.949 291.72 211.467 291.103 212.524C290.487 213.581 290.58 214.778 291.312 215.196C292.044 215.614 293.137 215.096 293.754 214.039Z" fill="#FFE3CA"/>
<path d="M291.661 216.215C292.141 216.215 292.53 215.83 292.53 215.355C292.53 214.88 292.141 214.495 291.661 214.495C291.182 214.495 290.793 214.88 290.793 215.355C290.793 215.83 291.182 216.215 291.661 216.215Z" fill="#FFBE55"/>
<path d="M74.9514 77.8086C94.0234 77.8086 109.484 62.5049 109.484 43.6267C109.484 24.7486 94.0234 9.44482 74.9514 9.44482C55.8794 9.44482 40.4185 24.7486 40.4185 43.6267C40.4185 62.5049 55.8794 77.8086 74.9514 77.8086Z" fill="#FFBE55"/>
<path d="M178.013 83.8262C177.186 82.8437 176.317 81.9022 175.366 81.0835C174.415 80.2238 173.381 79.5279 172.306 78.9139L171.479 78.4636L170.61 78.0951C170.321 77.9723 170.031 77.8904 169.742 77.7676L169.287 77.6039C169.121 77.563 168.997 77.522 168.832 77.4811C168.542 77.3992 168.253 77.3173 167.922 77.2764L167.012 77.1127L166.102 77.0308C165.813 76.9898 165.482 76.9898 165.192 76.9898C164.903 76.9489 164.572 76.9898 164.282 76.9898H163.827C163.662 76.9898 163.538 77.0308 163.373 77.0308C162.752 77.0717 162.132 77.1536 161.512 77.2355C160.271 77.3992 159.071 77.6858 157.872 78.0542C156.673 78.4226 155.515 78.832 154.357 79.3642C153.778 79.6098 153.24 79.8963 152.661 80.1829C152.124 80.4694 151.545 80.7969 151.048 81.0835L150.138 81.6566L149.683 80.6741C149.601 80.4694 149.435 80.1829 149.311 79.9373C149.187 79.6916 149.022 79.446 148.856 79.2004C148.525 78.7092 148.195 78.2589 147.822 77.8086C147.078 76.908 146.209 76.1302 145.258 75.4343C144.307 74.7793 143.273 74.2471 142.198 73.8787C141.081 73.5103 139.923 73.3465 138.765 73.3056C138.186 73.2646 137.566 73.3465 136.987 73.3874C136.408 73.4693 135.788 73.5512 135.209 73.674C134.009 73.9196 132.893 74.329 131.735 74.7383C129.46 75.639 127.309 76.867 125.2 78.177C127.061 76.5395 129.129 75.0658 131.362 73.8787C132.52 73.3465 133.678 72.8143 134.919 72.4459C135.539 72.2412 136.16 72.1184 136.821 71.9956C137.483 71.9137 138.104 71.8319 138.765 71.7909C140.089 71.75 141.412 71.8728 142.694 72.2412C143.976 72.6097 145.217 73.1828 146.292 73.9196C147.409 74.6565 148.401 75.5571 149.229 76.5395C149.683 77.0308 150.056 77.563 150.428 78.0951C150.593 78.3817 150.8 78.6273 150.966 78.9139C151.131 79.2004 151.296 79.487 151.462 79.8145L150.097 79.4051C150.717 79.0367 151.255 78.7501 151.875 78.4226C152.454 78.1361 153.075 77.8495 153.695 77.6039C154.894 77.0717 156.176 76.6214 157.459 76.2939C158.741 75.9664 160.064 75.6799 161.387 75.5161C162.049 75.4343 162.711 75.3933 163.373 75.3933C163.538 75.3933 163.703 75.3933 163.869 75.3933H164.365C164.696 75.3933 165.027 75.4343 165.358 75.4752C168.046 75.6799 170.651 76.5805 172.843 78.0542C173.919 78.791 174.952 79.6507 175.78 80.6332C176.235 81.0835 176.607 81.6157 177.02 82.1478C177.227 82.3935 177.393 82.68 177.558 82.9666L178.013 83.8262ZM306.426 26.679C305.516 26.1469 304.606 25.6147 303.614 25.2053C302.662 24.796 301.67 24.5094 300.636 24.3047L299.891 24.1819L299.106 24.1C298.858 24.0591 298.609 24.1 298.32 24.1H297.948C297.824 24.1 297.7 24.1 297.576 24.141C297.327 24.1819 297.079 24.1819 296.831 24.2228L296.087 24.3457L295.342 24.5094C295.094 24.5503 294.846 24.6322 294.598 24.7141C294.35 24.7959 294.102 24.8778 293.853 24.9597L293.481 25.0825C293.357 25.1234 293.233 25.1644 293.109 25.2463C292.613 25.41 292.158 25.6556 291.703 25.8603C290.793 26.3106 289.925 26.8428 289.097 27.4568C288.27 28.0299 287.443 28.6849 286.699 29.3808C286.326 29.7083 285.954 30.0767 285.582 30.4452C285.21 30.8136 284.879 31.182 284.589 31.5505L284.01 32.2464L283.39 31.5914C283.266 31.4686 283.059 31.2639 282.894 31.1002C282.728 30.9364 282.522 30.7727 282.356 30.6499C281.984 30.3633 281.57 30.0767 281.157 29.8311C280.33 29.299 279.461 28.9305 278.551 28.644C277.642 28.3574 276.69 28.2346 275.739 28.2346C274.788 28.2346 273.837 28.3984 272.885 28.6849C272.431 28.8077 271.976 29.0124 271.521 29.2171C271.066 29.4627 270.652 29.6264 270.197 29.913C269.329 30.4042 268.543 31.0183 267.757 31.6323C266.227 32.9423 264.862 34.4569 263.539 36.0125C264.573 34.2523 265.772 32.5739 267.22 31.0592C267.964 30.3224 268.75 29.6264 269.618 29.0124C270.032 28.6849 270.528 28.4393 270.983 28.1527C271.479 27.9071 271.934 27.6615 272.472 27.4978C273.506 27.1293 274.581 26.8837 275.656 26.8428C276.773 26.8018 277.848 26.9246 278.924 27.2112C279.999 27.4978 280.991 27.9481 281.943 28.4802C282.398 28.7668 282.852 29.0533 283.307 29.3808C283.514 29.5446 283.721 29.7083 283.928 29.913C284.135 30.0767 284.341 30.2814 284.548 30.4861L283.349 30.527C283.721 30.0767 284.093 29.7083 284.465 29.299C284.838 28.9305 285.251 28.5212 285.665 28.1937C286.492 27.4568 287.319 26.8018 288.229 26.1878C289.139 25.5737 290.09 25.0416 291.083 24.5913C291.579 24.3866 292.075 24.141 292.613 23.9772C292.737 23.9363 292.861 23.8954 292.985 23.8544L293.398 23.7316C293.647 23.6497 293.936 23.5679 294.184 23.5269C296.335 22.9948 298.609 23.0357 300.719 23.6088C301.753 23.9363 302.786 24.3047 303.696 24.8778C304.193 25.1234 304.606 25.4509 305.061 25.7375C305.268 25.9012 305.475 26.065 305.681 26.2287L306.426 26.679Z" fill="#2A94F4"/>
<path d="M57.1266 277.496L56.4236 290.923H57.7883L57.1266 277.496Z" fill="#D3D3D3"/>
<path d="M58.4916 284.988L57.7886 290.923H59.1947L58.4916 284.988Z" fill="#E0E0E0"/>
<path d="M60.9316 281.14L59.1946 290.923H62.7099L60.9316 281.14Z" fill="#E0E0E0"/>
<path d="M23.0072 325.637L21.2703 341.93H24.7441L23.0072 325.637Z" fill="#E0E0E0"/>
<path d="M26.0676 329.895L24.7441 341.93H27.391L26.0676 329.895Z" fill="#E0E0E0"/>
<path d="M359.445 299.602L358.329 313.029H360.562L359.445 299.602Z" fill="#D3D3D3"/>
<path d="M361.679 307.093L360.562 313.029H362.795L361.679 307.093Z" fill="#E0E0E0"/>
<path d="M259.817 334.398L258.369 351.509H261.223L259.817 334.398Z" fill="#D3D3D3"/>
<path d="M262.629 343.936L261.223 351.509H264.076L262.629 343.936Z" fill="#E0E0E0"/>
<path d="M263.787 15.3806C252.827 5.1056 239.469 2.24005 223.009 3.01784C220.321 3.14065 217.302 3.59095 215.73 5.43309C214.159 7.27523 215.854 10.632 218.501 10.1408C199.89 1.42133 177.682 -1.85358 156.631 1.01196C154.315 1.33945 151.751 1.83069 150.386 3.4272C149.022 5.02372 149.931 7.93021 152.289 7.93021C134.96 0.807278 103.777 14.5619 106.879 15.7491L263.787 15.3806Z" fill="#DCF2FF"/>
<path d="M379.669 65.1183C371.604 57.5451 361.803 55.4164 349.685 55.9895C347.7 56.0714 345.467 56.3989 344.35 57.7498C343.192 59.1007 344.433 61.5978 346.376 61.1884C332.687 54.7614 316.351 52.3462 300.843 54.4749C299.147 54.7205 297.244 55.0889 296.252 56.2351C295.259 57.3814 295.921 59.551 297.658 59.551C284.92 54.3111 261.967 64.4224 264.242 65.2821L379.669 65.1183Z" fill="#DCF2FF"/>
</svg>
