<svg width="392" height="366" viewBox="0 0 392 366" fill="none" xmlns="http://www.w3.org/2000/svg">
<path d="M188.77 318.68C278.085 318.68 350.489 313.134 350.489 306.293C350.489 299.452 278.085 293.906 188.77 293.906C99.4551 293.906 27.051 299.452 27.051 306.293C27.051 313.134 99.4551 318.68 188.77 318.68Z" fill="#E5E5E5"/>
<path d="M196 366C304.248 366 392 353.303 392 337.641C392 321.979 304.248 309.282 196 309.282C87.7522 309.282 0 321.979 0 337.641C0 353.303 87.7522 366 196 366Z" fill="#E5E5E5"/>
<path d="M339.302 226.725C339.302 226.725 355.147 225.437 354.941 246.561C354.756 265.393 342.31 266.416 339.61 266.416C339.281 266.416 339.096 266.402 339.096 266.402H218.3V259.753H221.395H338.89C338.89 259.753 347.422 257.826 347.739 247.314C348.15 233.588 338.067 233.588 338.067 233.588H221.395H218.3V231.748V226.725H298.968H339.302Z" fill="#3E89FC"/>
<path d="M354.274 303.747C354.501 303.747 354.686 303.953 354.686 304.204C354.686 304.455 354.501 304.661 354.274 304.661V304.204V303.747ZM354.274 308.464C354.501 308.464 354.686 308.67 354.686 308.921C354.686 309.172 354.501 309.378 354.274 309.378V308.921V308.464ZM354.274 313.793C354.501 313.793 354.686 313.999 354.686 314.25C354.686 314.501 354.501 314.707 354.274 314.707V314.25V313.793Z" fill="black"/>
<path d="M354.274 314.707V321.305H223.511C223.511 321.305 214.012 319.534 213.662 309.875C213.205 297.258 224.424 297.258 224.424 297.258H354.274V303.747H222.757C222.531 303.747 222.346 303.953 222.346 304.204C222.346 304.455 222.531 304.661 222.757 304.661H354.274V308.464H230.577C230.351 308.464 230.166 308.67 230.166 308.921C230.166 309.172 230.351 309.378 230.577 309.378H354.274V313.793H250.333C250.106 313.793 249.921 313.999 249.921 314.25C249.921 314.501 250.106 314.707 250.333 314.707H354.274Z" fill="#E5E5E5"/>
<path d="M354.274 314.25V314.707H250.333C250.106 314.707 249.921 314.501 249.921 314.25C249.921 313.999 250.106 313.793 250.333 313.793H354.274V314.25ZM354.274 308.921V309.378H230.577C230.351 309.378 230.166 309.172 230.166 308.921C230.166 308.67 230.351 308.464 230.577 308.464H354.274V308.921ZM354.274 304.661H222.757C222.531 304.661 222.346 304.455 222.346 304.204C222.346 303.953 222.531 303.747 222.757 303.747H354.274V304.204V304.661Z" fill="black"/>
<path d="M338.067 233.588C338.067 233.588 348.15 233.588 347.739 247.315C347.422 257.827 338.89 259.754 338.89 259.754H221.395V253.361H333.469C333.696 253.361 333.881 253.155 333.881 252.904C333.881 252.653 333.696 252.448 333.469 252.448H221.395V247.018H320.987C321.213 247.018 321.398 246.813 321.398 246.561C321.398 246.31 321.213 246.105 320.987 246.105H221.395V240.273H324.691C324.917 240.273 325.102 240.068 325.102 239.817C325.102 239.566 324.917 239.36 324.691 239.36H221.395V233.588H338.067Z" fill="#E5E5E5"/>
<path d="M340.948 266.417C340.948 266.417 344.652 278.842 340.948 290.422L304.112 290.66V266.417H339.61H340.948Z" fill="#A9D9FF"/>
<path d="M333.47 252.448C333.696 252.448 333.881 252.653 333.881 252.904C333.881 253.155 333.696 253.361 333.47 253.361H221.395V252.904V252.448H333.47ZM324.691 239.36C324.917 239.36 325.102 239.566 325.102 239.817C325.102 240.068 324.917 240.273 324.691 240.273H221.395V239.817V239.36H324.691ZM320.987 246.105C321.213 246.105 321.398 246.31 321.398 246.561C321.398 246.813 321.213 247.018 320.987 247.018H221.395V246.561V246.105H320.987Z" fill="black"/>
<path d="M304.112 266.417V290.66L258.288 290.952H244.299V290.938V266.417H304.112Z" fill="white"/>
<path d="M298.968 226.707V226.725H218.3V231.748H204.307V165.991H298.968V226.707ZM276.537 201.76V187.91H259.799V201.76H276.537ZM240.731 209.879V183.037H212.95V209.879H240.731Z" fill="#A9D9FF"/>
<path d="M276.537 187.91H259.799V201.76H276.537V187.91Z" fill="white"/>
<path d="M244.299 290.938V290.952H223.05C223.05 290.952 221.523 290.851 219.374 291.203L206.982 291.281C206.982 291.281 203.278 279.271 206.982 266.417H244.299V290.938Z" fill="#A9D9FF"/>
<path d="M240.731 183.037H212.95V209.879H240.731V183.037Z" fill="white"/>
<path d="M221.395 252.904V253.361C221.169 253.361 220.984 253.155 220.984 252.904C220.984 252.653 221.169 252.448 221.395 252.448V252.904ZM221.395 246.561V247.018C221.169 247.018 220.984 246.813 220.984 246.561C220.984 246.31 221.169 246.105 221.395 246.105V246.561ZM221.395 239.817V240.273C221.169 240.273 220.984 240.068 220.984 239.817C220.984 239.566 221.169 239.36 221.395 239.36V239.817Z" fill="black"/>
<path d="M213.662 309.875C214.012 319.533 223.511 321.305 223.511 321.305H354.274H357.719V327.415H223.28C223.28 327.415 205.875 328.598 205.644 309.186C205.484 295.482 214.221 292.039 219.374 291.203L258.288 290.952H304.112H357.719V297.258H354.274H224.424C224.424 297.258 213.205 297.258 213.662 309.875Z" fill="#295FC5"/>
<path d="M144.547 142.245V200.545H60.4633V142.245H144.547ZM128.767 170.101V157.493H108.753V170.101H128.767ZM95.0351 176.188V164.014H86.528V155.031H69.2421V165.991H77.885V176.188H95.0351Z" fill="#E5E5E5"/>
<path d="M128.767 157.493H108.753V170.101H128.767V157.493Z" fill="white"/>
<path d="M102.505 273.91L98.8751 304.204H60.4634L56.8951 273.91H64.9536C64.9989 274.02 65.0236 274.084 65.0236 274.088C65.0894 274.262 65.2417 274.367 65.4022 274.367C65.4557 274.367 65.5092 274.353 65.5627 274.33C65.7191 274.257 65.8138 274.088 65.8138 273.91H77.4735C77.4735 273.919 77.4735 273.924 77.4735 273.924C77.4777 274.17 77.6629 274.367 77.8851 274.367C77.8892 274.367 77.8933 274.367 77.8975 274.367C78.1197 274.362 78.2926 274.161 78.2967 273.91H87.7628C87.7628 273.915 87.7628 273.915 87.7628 273.915C87.7669 274.166 87.948 274.367 88.1743 274.367H88.1785C88.4048 274.362 88.59 274.157 88.5859 273.91H102.505Z" fill="#A9D9FF"/>
<path d="M95.0351 164.014V176.188H77.885V165.991H86.528V164.014H95.0351Z" fill="#A9D9FF"/>
<path d="M93.319 254.101C93.2696 254.201 93.2202 254.297 93.1708 254.397C93.0926 254.233 93.0226 254.064 92.9568 253.881C92.9156 253.762 92.8786 253.64 92.8415 253.516L92.7098 253.507C92.7098 253.483 92.714 253.461 92.714 253.434C95.8913 247.15 100.398 242.428 106.106 239.405C106.312 239.296 106.555 239.392 106.654 239.62C106.753 239.848 106.666 240.118 106.46 240.227C100.838 243.205 96.4181 247.877 93.319 254.101Z" fill="black"/>
<path d="M92.7139 253.434C92.7797 251.598 91.7508 249.448 91.6027 247.584C91.3845 244.854 91.4668 241.178 92.3888 238.63C94.0103 234.154 98.266 230.122 102.711 230.072C104.118 230.058 105.896 230.433 107.246 230.081C109.448 229.506 109.708 227.31 110.288 225.387C111.663 220.811 118.367 220.748 120.561 224.479C122.096 227.091 122.894 230.684 122.17 233.767C121.52 236.535 119.034 240.644 116.885 242.251C114.107 244.329 110.49 243.452 107.823 245.895C106.604 247.009 105.88 249.366 106.143 251.11C106.46 253.174 107.913 254.64 108.07 256.859C108.391 261.53 103.382 261.96 100.217 261.083C98.3359 260.562 97.3358 259.152 95.9982 257.773C94.8376 256.576 93.8046 255.754 93.1707 254.398C93.2201 254.297 93.2695 254.201 93.3189 254.101C96.418 247.877 100.838 243.206 106.46 240.228C106.666 240.119 106.753 239.849 106.654 239.621C106.555 239.393 106.312 239.297 106.106 239.406C100.398 242.429 95.8912 247.151 92.7139 253.434Z" fill="#A9D9FF"/>
<path d="M87.7626 273.91C87.7626 273.727 87.7215 263.448 92.5945 253.662C92.6315 253.585 92.6727 253.507 92.7138 253.434C92.7138 253.461 92.7097 253.484 92.7097 253.507L92.8414 253.516C92.8785 253.64 92.9155 253.763 92.9567 253.881C93.0225 254.064 93.0925 254.234 93.1707 254.398C88.5323 263.919 88.5858 273.805 88.5858 273.906V273.91H88.1742H87.7626V273.91Z" fill="black"/>
<path d="M88.1743 273.91H88.5859C88.59 274.157 88.4048 274.362 88.1784 274.367H88.1743C87.948 274.367 87.7669 274.166 87.7628 273.915C87.7628 273.915 87.7628 273.915 87.7628 273.91H88.1743Z" fill="black"/>
<path d="M85.9847 241C88.6722 243.16 88.9933 247.498 87.2523 250.621C85.3303 254.069 80.5396 258.32 76.6215 257.051C76.6174 257.005 76.6092 256.959 76.6009 256.914C74.6172 244.402 70.2422 227.912 60.702 220.414C60.5168 220.272 60.2575 220.318 60.1258 220.523C59.9941 220.729 60.0394 221.016 60.2246 221.162C69.5096 228.455 73.8064 244.629 75.7778 256.959C70.8513 256.612 65.5914 255.178 61.0107 253.324C58.0885 252.141 54.3968 249.52 54.6972 245.566C54.866 243.347 56.3558 241.954 57.8581 240.73C59.0146 239.784 60.2452 238.72 59.7801 236.885C59.3068 235.017 57.2448 234.871 55.792 234.186C53.73 233.213 51.6063 231.994 50.2029 230.04C46.6016 225.012 47.0791 218.747 51.8203 214.966C56.006 211.632 61.0806 211.189 65.8137 213.167C70.1681 214.993 75.7037 219.259 75.6914 224.779C75.6831 228.972 74.0451 232.237 77.2306 235.552C79.7865 238.209 83.2025 238.762 85.9847 241Z" fill="#3E89FC"/>
<path d="M86.528 164.014V165.991H77.885H69.2421V155.031H86.528V164.014Z" fill="white"/>
<path d="M77.8851 273.91H78.2966C78.2925 274.161 78.1196 274.362 77.8974 274.367C77.8933 274.367 77.8892 274.367 77.8851 274.367C77.6628 274.367 77.4776 274.17 77.4735 273.924C77.4735 273.924 77.4735 273.919 77.4735 273.91H77.8851ZM77.4735 273.91C77.4653 273.536 77.2471 266.22 75.7943 257.069C75.7902 257.032 75.7819 256.996 75.7778 256.959C75.9178 256.973 76.0577 256.982 76.1976 256.991C76.3046 257.005 76.4075 257.01 76.5145 257.014C76.5516 257.028 76.5845 257.037 76.6215 257.051C78.1032 266.402 78.2966 273.823 78.2966 273.896C78.2966 273.901 78.2966 273.906 78.2966 273.91H77.8851H77.4735ZM65.4022 273.91H65.8137C65.8137 274.088 65.7191 274.257 65.5627 274.33C65.5092 274.353 65.4557 274.367 65.4022 274.367C65.2416 274.367 65.0894 274.262 65.0235 274.088C65.0235 274.084 64.9988 274.02 64.9536 273.91H65.4022Z" fill="black"/>
<path d="M60.2246 221.163C60.0394 221.017 59.9941 220.729 60.1258 220.524C60.2575 220.318 60.5168 220.272 60.702 220.414C70.2422 227.912 74.6172 244.402 76.601 256.914C76.6092 256.96 76.6174 257.005 76.6215 257.051C76.5845 257.037 76.5516 257.028 76.5145 257.015C76.4075 257.01 76.3046 257.005 76.1976 256.992C76.0577 256.982 75.9178 256.973 75.7778 256.96C73.8064 244.63 69.5096 228.455 60.2246 221.163ZM58.1338 264.174C58.2203 264.06 58.2985 263.933 58.3684 263.8C58.3726 263.805 58.3808 263.809 58.3849 263.814L58.4672 263.882C58.5372 263.946 58.6113 264.005 58.6812 264.074C63.7888 268.554 65.7026 273.526 65.7808 273.732C65.8055 273.791 65.8137 273.851 65.8137 273.91H65.4022H64.9536C64.5626 272.997 62.5747 268.654 58.1585 264.777C58.138 264.759 58.1215 264.741 58.105 264.731C58.1585 264.695 58.212 264.658 58.2697 264.626L58.4137 264.421C58.3232 264.334 58.2285 264.256 58.1338 264.174Z" fill="black"/>
<path d="M57.8787 264.535L57.961 264.604C58.0063 264.645 58.0515 264.681 58.1051 264.731C56.6069 265.668 55.7097 266.412 53.8782 266.869C51.5776 267.444 49.2357 267.489 46.8774 267.517C43.0293 267.563 39.8355 266.302 36.5923 264.202C33.6084 262.27 30.6163 259.124 30.0401 255.051C29.3816 250.416 33.3944 245.023 37.9423 246.196C39.214 246.525 39.4651 248.041 40.0577 249.1C40.7327 250.31 41.3624 250.63 42.663 250.776C46.0543 251.15 48.9929 248.251 52.5077 249.703C55.6027 250.977 57.9322 254.378 58.5784 257.899C58.8747 259.511 59.2039 262.219 58.3685 263.799C54.6191 260.603 50.1741 258.53 45.1653 257.63C44.9389 257.589 44.729 257.762 44.692 258.009C44.655 258.26 44.8114 258.493 45.0336 258.534C49.9148 259.407 54.2404 261.425 57.8787 264.535Z" fill="#295FC5"/>
<path d="M57.961 264.604L57.8787 264.535C54.2404 261.425 49.9148 259.407 45.0336 258.535C44.8114 258.494 44.655 258.26 44.692 258.01C44.7291 257.763 44.939 257.589 45.1653 257.631C50.1741 258.531 54.6191 260.604 58.3685 263.8C58.2985 263.933 58.2203 264.06 58.1339 264.174C58.2285 264.257 58.3232 264.335 58.4137 264.421L58.2697 264.626C58.2121 264.658 58.1586 264.695 58.1051 264.731C58.0516 264.681 58.0063 264.645 57.961 264.604Z" fill="black"/>
<path d="M310.175 81.5114L308.528 89.731L280.542 81.5114H310.175Z" fill="#E22953"/>
<path d="M295.469 38.1299L280.447 46.8062L290.119 34.5818L295.469 38.1299Z" fill="#E22953"/>
<path d="M281.682 127.021L277.566 131.971L266.248 110.166L281.682 127.021Z" fill="#E22953"/>
<path d="M271.187 5.93637L254.93 27.6271L262.75 2.2832L271.187 5.93637Z" fill="#E22953"/>
<path d="M227.68 107.189V107.243C227.68 107.494 227.865 107.695 228.091 107.695C228.301 107.695 228.478 107.517 228.499 107.289C230.668 107.568 232.676 107.883 234.524 108.225C234.52 108.252 234.516 108.275 234.516 108.303C234.516 108.554 234.701 108.759 234.928 108.759C235.129 108.759 235.298 108.595 235.33 108.38V108.376C241.891 109.636 246.323 111.148 248.641 112.061C249.921 112.568 250.559 112.892 250.559 112.892L247.982 119.527C247.545 119.386 247.11 119.244 246.673 119.112C231.556 114.431 217.497 114.289 212.941 114.39C211.949 114.413 211.406 114.445 211.406 114.445L210.941 106.225C211.92 106.225 212.879 106.234 213.818 106.252C218.987 106.348 223.605 106.7 227.68 107.189Z" fill="#A9D9FF"/>
<path d="M240.496 76.7303C241.139 74.7941 241.743 73.3694 242.303 72.4926C243.159 71.1455 244.719 70.3418 246.48 70.3418C248.015 70.3418 249.287 70.9674 249.501 71.8396C249.712 72.6844 248.888 73.794 247.242 74.8763C245.431 76.0681 243.163 76.6937 240.496 76.7303Z" fill="#FFC962"/>
<path d="M242.303 72.4925C241.743 73.3693 241.138 74.794 240.496 76.7302C243.163 76.6937 245.43 76.0681 247.242 74.8762C248.888 73.794 249.711 72.6843 249.501 71.8395C249.287 70.9673 248.015 70.3417 246.48 70.3417C244.719 70.3417 243.159 71.1454 242.303 72.4925ZM240.047 76.7576C240.669 74.858 241.319 73.246 241.965 72.2277C244.986 67.4694 254.382 70.7025 247.452 75.2689C245.402 76.616 242.916 77.1777 240.323 77.1914C240.323 77.1275 240.315 77.0636 240.29 77.0088C240.282 76.9859 240.27 76.9585 240.253 76.9311C240.241 76.9083 240.22 76.8809 240.2 76.8626C240.183 76.8444 240.163 76.8261 240.142 76.8124C240.126 76.7987 240.109 76.785 240.093 76.7759C240.076 76.7713 240.064 76.7622 240.047 76.7576ZM240.286 77.3741C240.257 77.4654 240.229 77.5568 240.204 77.6481C240.105 77.6481 240.01 77.6435 239.912 77.6435C240.08 77.6435 240.224 77.5339 240.286 77.3741Z" fill="black"/>
<path d="M240.253 76.9312C240.269 76.9584 240.282 76.9857 240.29 77.0084C240.282 76.9811 240.269 76.9539 240.253 76.9312Z" fill="black"/>
<path d="M240.253 76.9311C240.27 76.9539 240.282 76.9813 240.29 77.0087C240.315 77.0635 240.323 77.1275 240.323 77.1914C240.187 77.1914 240.047 77.1914 239.912 77.1868C239.957 77.0407 240.003 76.8991 240.047 76.7576C240.064 76.7621 240.076 76.7713 240.093 76.7758C240.109 76.785 240.13 76.7987 240.142 76.8124C240.163 76.8261 240.183 76.8443 240.2 76.8626C240.22 76.8809 240.241 76.9083 240.253 76.9311Z" fill="black"/>
<path d="M239.628 76.7211C240.336 74.5246 240.99 72.9675 241.627 71.9628C242.636 70.3737 244.451 69.4285 246.48 69.4285C248.443 69.4285 249.974 70.2961 250.296 71.5975C250.522 72.5108 250.246 73.9584 247.661 75.6617C245.662 76.9768 243.159 77.6481 240.229 77.6481C240.22 77.6481 240.212 77.6481 240.203 77.6481C240.229 77.5568 240.257 77.4654 240.286 77.3741C240.311 77.3193 240.323 77.2554 240.323 77.1915C242.916 77.1778 245.402 76.6161 247.451 75.269C254.382 70.7025 244.986 67.4695 241.965 72.2277C241.319 73.246 240.668 74.858 240.047 76.7576C240.018 76.7439 239.986 76.7348 239.948 76.7348C239.944 76.7302 239.94 76.7302 239.936 76.7302C239.928 76.7302 239.924 76.7302 239.915 76.7302C239.911 76.7302 239.911 76.7302 239.907 76.7302C239.813 76.7302 239.722 76.7257 239.628 76.7211Z" fill="black"/>
<path d="M240.228 77.6481C243.159 77.6481 245.661 76.9768 247.661 75.6617C250.246 73.9584 250.522 72.5108 250.295 71.5975C249.974 70.2961 248.443 69.4285 246.48 69.4285C244.451 69.4285 242.636 70.3737 241.627 71.9628C240.989 72.9675 240.335 74.5246 239.628 76.7211C236.586 76.6206 233.117 75.7667 230.022 74.3374C229.906 70.7299 229.717 68.5471 229.458 67.6658C229.03 66.2411 227.737 65.3141 226.165 65.3141C225.054 65.3141 224.049 65.8072 223.473 66.6246C223.099 67.1589 222.72 68.095 223.045 69.5106C223.436 71.2048 225.791 73.2825 229.219 74.9493C229.42 81.6803 229.338 90.9821 229.313 93.238L228.14 93.0827C228.021 93.069 227.906 93.1055 227.819 93.1923C227.729 93.2791 227.679 93.4024 227.679 93.5348V102.599C221.497 100.7 216.048 97.2382 211.801 92.7083C205.619 86.1097 201.989 77.2554 202.36 67.6841C203.109 48.4775 219.707 33.6776 239.438 34.6229C259.165 35.5681 274.553 51.9069 273.804 71.1089C273.285 84.411 265.165 95.5988 253.666 100.905C248.563 103.266 242.792 104.462 236.73 104.17C236.524 104.161 236.319 104.147 236.113 104.134L237.829 94.8454C237.854 94.7221 237.825 94.5897 237.759 94.4846C237.693 94.3842 237.59 94.3157 237.475 94.302L236.417 94.165C236.792 92.0827 238.348 83.6438 240.204 77.6481C240.212 77.6481 240.22 77.6481 240.228 77.6481Z" fill="#FFC962"/>
<path d="M240.2 76.8627C240.183 76.8445 240.163 76.8262 240.142 76.8125C240.163 76.8262 240.183 76.8445 240.2 76.8627ZM240.142 76.8125C240.13 76.7988 240.109 76.7851 240.093 76.776C240.109 76.7851 240.126 76.7988 240.142 76.8125ZM240.093 76.776C240.076 76.7714 240.064 76.7622 240.047 76.7577C240.064 76.7622 240.076 76.7714 240.093 76.776ZM239.949 76.7349C239.945 76.7303 239.94 76.7303 239.937 76.7303C239.94 76.7303 239.945 76.7303 239.949 76.7349ZM239.912 77.1869C240.047 77.1915 240.187 77.1915 240.323 77.1915C240.323 77.2554 240.311 77.3194 240.286 77.3742C240.224 77.534 240.08 77.6436 239.912 77.6436C239.907 77.6436 239.907 77.6436 239.907 77.6436C239.862 77.6436 239.821 77.6344 239.78 77.6162C239.821 77.4701 239.866 77.3285 239.912 77.1869Z" fill="black"/>
<path d="M239.907 76.7303C239.912 76.7303 239.912 76.7303 239.916 76.7303C239.924 76.7303 239.928 76.7303 239.937 76.7303C239.941 76.7303 239.945 76.7303 239.949 76.7349C239.986 76.7349 240.019 76.744 240.047 76.7577C240.003 76.8992 239.957 77.0408 239.912 77.1869C239.776 77.1869 239.64 77.1824 239.5 77.1732C239.5 77.1276 239.509 77.0819 239.525 77.0362C239.533 77.0134 239.542 76.9906 239.55 76.9677C239.623 76.8216 239.763 76.7303 239.907 76.7303Z" fill="black"/>
<path d="M239.907 76.7303C239.763 76.7303 239.624 76.8216 239.549 76.9677C239.575 76.8855 239.599 76.7988 239.628 76.7211C239.722 76.7257 239.813 76.7303 239.907 76.7303ZM239.907 77.6436C239.862 77.6436 239.817 77.6436 239.772 77.639C239.776 77.6299 239.776 77.6207 239.78 77.6162C239.821 77.6344 239.862 77.6436 239.907 77.6436ZM239.912 77.1869C239.867 77.3285 239.821 77.47 239.78 77.6162C239.698 77.5888 239.623 77.5294 239.575 77.4472C239.521 77.365 239.496 77.2691 239.5 77.1732C239.64 77.1823 239.776 77.1869 239.912 77.1869ZM239.525 77.0362C239.508 77.0819 239.5 77.1275 239.5 77.1732C239.495 77.1732 239.491 77.1732 239.483 77.1732C239.496 77.1275 239.512 77.0819 239.525 77.0362Z" fill="black"/>
<path d="M239.574 77.4472C239.623 77.5294 239.698 77.5888 239.78 77.6162C239.775 77.6207 239.775 77.6299 239.771 77.639C239.631 77.639 239.488 77.6344 239.343 77.6253C239.389 77.47 239.434 77.3193 239.483 77.1732C239.492 77.1732 239.496 77.1732 239.5 77.1732C239.496 77.2691 239.521 77.365 239.574 77.4472Z" fill="black"/>
<path d="M239.344 77.6253C237.483 83.7215 235.944 92.1147 235.598 94.0554L230.136 93.343C230.157 91.3018 230.243 82.1506 230.054 75.342C233.096 76.6937 236.347 77.4928 239.344 77.6253ZM236.113 104.134C236.319 104.147 236.524 104.161 236.73 104.17C242.792 104.462 248.563 103.266 253.666 100.905V100.91L248.641 112.061C246.323 111.148 241.891 109.636 235.33 108.376L236.113 104.134Z" fill="#FFC962"/>
<path d="M237.829 94.8454L236.113 104.134C235.973 104.124 235.837 104.115 235.701 104.106L237.426 94.7541L236.343 94.6125C236.352 94.5486 236.38 94.3979 236.417 94.165L237.475 94.302C237.59 94.3157 237.693 94.3842 237.759 94.4846C237.825 94.5897 237.854 94.7221 237.829 94.8454Z" fill="black"/>
<path d="M236.932 95.1514L235.286 104.07C232.952 103.873 230.684 103.453 228.503 102.837V94.0508L229.635 94.197L235.932 95.0189L236.932 95.1514Z" fill="#FFC962"/>
<path d="M236.718 145.556C238.055 145.784 237.747 149.323 233.631 153.319C229.515 157.315 222.218 158.694 219.383 159.945C217.658 158.388 215.242 156.474 213.822 155.369C213.822 155.369 218.197 142.245 219.432 143.501C220.667 144.757 220.461 150.122 220.461 150.122C220.461 150.122 235.38 145.328 236.718 145.556Z" fill="#FDA181"/>
<path d="M240.204 77.6481C238.348 83.6439 236.792 92.0827 236.417 94.165L236.01 94.1102C236.368 92.101 237.907 83.7169 239.772 77.639C239.817 77.6435 239.863 77.6435 239.908 77.6435C239.908 77.6435 239.908 77.6435 239.912 77.6435C240.01 77.6435 240.105 77.6481 240.204 77.6481ZM235.286 104.07L236.932 95.1514L235.932 95.0189V95.0144C236.125 95.0144 236.298 94.8637 236.335 94.6445C236.335 94.6399 236.339 94.6308 236.343 94.6125L237.426 94.7541L235.702 104.106C235.561 104.097 235.421 104.083 235.286 104.07ZM236.113 104.134L235.331 108.376C235.199 108.348 235.064 108.326 234.928 108.298L235.702 104.106C235.837 104.115 235.973 104.124 236.113 104.134Z" fill="black"/>
<path d="M235.598 94.0554C235.944 92.1147 237.483 83.7215 239.344 77.6253C239.488 77.6344 239.632 77.639 239.772 77.639C237.907 83.717 236.368 92.101 236.01 94.1102L235.598 94.0554ZM236.417 94.165C236.38 94.3979 236.352 94.5486 236.343 94.6125L235.932 94.5577C235.932 94.5577 235.961 94.4025 236.01 94.1102L236.417 94.165Z" fill="black"/>
<path d="M235.528 94.471C235.528 94.4573 235.553 94.3157 235.598 94.0554L236.01 94.1102C235.961 94.4025 235.932 94.5577 235.932 94.5577L235.524 94.5029C235.524 94.4938 235.528 94.4801 235.528 94.471Z" fill="black"/>
<path d="M235.854 95.0052C235.639 94.9595 235.495 94.7404 235.524 94.5029L235.931 94.5577L236.343 94.6125C236.339 94.6308 236.335 94.6399 236.335 94.6445C236.298 94.8636 236.124 95.0143 235.931 95.0143C235.907 95.0143 235.882 95.0098 235.854 95.0052ZM235.286 104.07C235.421 104.083 235.562 104.097 235.702 104.106L234.928 108.298C234.796 108.275 234.66 108.248 234.525 108.225C234.525 108.221 234.525 108.211 234.525 108.207L235.286 104.07ZM230.137 93.343L235.599 94.0554C235.553 94.3157 235.529 94.4572 235.529 94.4709C235.529 94.4801 235.524 94.4938 235.524 94.5029L230.129 93.8042C230.133 93.7905 230.133 93.7723 230.133 93.754C230.133 93.7403 230.133 93.5987 230.137 93.343Z" fill="black"/>
<path d="M228.503 102.837C230.684 103.453 232.952 103.873 235.285 104.07L234.524 108.207C234.524 108.211 234.524 108.221 234.524 108.225C232.676 107.883 230.667 107.568 228.498 107.289C228.503 107.275 228.503 107.257 228.503 107.239V102.837H228.503Z" fill="#FFC962"/>
<path d="M234.928 108.298C235.063 108.326 235.199 108.348 235.33 108.376V108.38C235.298 108.595 235.129 108.759 234.928 108.759C234.701 108.759 234.516 108.554 234.516 108.303C234.516 108.275 234.52 108.253 234.524 108.225C234.66 108.248 234.796 108.275 234.928 108.298ZM230.022 74.3374C233.117 75.7667 236.586 76.6206 239.628 76.7211C239.599 76.7987 239.574 76.8855 239.549 76.9677C239.541 76.9905 239.533 77.0134 239.525 77.0362C239.512 77.0818 239.496 77.1275 239.483 77.1732C236.219 77.0499 232.845 76.1092 230.042 74.8397C230.038 74.7758 230.038 74.7118 230.034 74.6479C230.034 74.6434 230.034 74.6388 230.034 74.6342C230.03 74.5338 230.026 74.4333 230.022 74.3374Z" fill="black"/>
<path d="M230.042 74.8397C232.845 76.1092 236.22 77.0499 239.483 77.1732C239.434 77.3193 239.389 77.47 239.343 77.6253C236.347 77.4928 233.096 76.6937 230.054 75.342C230.05 75.1731 230.046 75.0041 230.042 74.8397ZM230.133 93.754C230.133 93.7723 230.133 93.7905 230.129 93.8042L229.721 93.7494C229.721 93.7494 229.725 93.585 229.725 93.2882L230.137 93.343C230.133 93.5987 230.133 93.7403 230.133 93.754Z" fill="black"/>
<path d="M229.725 93.2882C229.75 91.142 229.837 81.9588 229.639 75.1502C229.779 75.2141 229.919 75.2781 230.054 75.342C230.244 82.1506 230.157 91.3018 230.137 93.343L229.725 93.2882Z" fill="black"/>
<path d="M230.055 75.342C229.919 75.2781 229.779 75.2142 229.639 75.1503C229.639 75.132 229.635 75.1183 229.635 75.1046C229.713 75.1 229.791 75.0726 229.857 75.0224C229.923 74.9722 229.972 74.9037 230.001 74.8215C230.013 74.8306 230.026 74.8352 230.043 74.8397C230.046 75.0041 230.05 75.1731 230.055 75.342Z" fill="black"/>
<path d="M230.001 74.8215C230.022 74.7667 230.034 74.7073 230.034 74.6479C230.038 74.7119 230.038 74.7758 230.043 74.8397C230.026 74.8352 230.013 74.8306 230.001 74.8215ZM230.022 74.3374C230.026 74.4333 230.03 74.5338 230.034 74.6342C230.029 74.447 229.91 74.2918 229.766 74.2233C229.771 74.2233 229.778 74.2233 229.783 74.2278C229.861 74.2644 229.943 74.3009 230.022 74.3374ZM229.622 74.6479C229.746 74.7073 229.873 74.7667 230.001 74.8215C229.973 74.9037 229.923 74.9722 229.857 75.0224C229.791 75.0726 229.713 75.1 229.635 75.1046C229.631 74.9493 229.627 74.7986 229.622 74.6479ZM229.725 93.2882C229.725 93.5851 229.721 93.7494 229.721 93.7494L229.31 93.6946C229.31 93.6216 229.314 93.4663 229.314 93.238L229.725 93.2882ZM235.932 95.0189L229.635 94.197C229.659 94.2015 229.688 94.2061 229.717 94.2061H229.721C229.931 94.2061 230.104 94.0326 230.129 93.8042L235.524 94.5029C235.496 94.7404 235.639 94.9596 235.854 95.0052C235.882 95.0098 235.907 95.0144 235.931 95.0144V95.0189H235.932ZM229.314 93.238C229.339 90.9822 229.421 81.6803 229.219 74.9493C229.297 74.9904 229.38 75.027 229.462 75.0681C229.52 75.0955 229.582 75.1229 229.639 75.1503C229.837 81.9588 229.751 91.142 229.726 93.2882L229.314 93.238Z" fill="black"/>
<path d="M229.606 74.1913C229.659 74.1867 229.718 74.2004 229.767 74.2233C229.911 74.2918 230.03 74.447 230.034 74.6342C230.034 74.6388 230.034 74.6434 230.034 74.6479C230.034 74.7073 230.022 74.7667 230.001 74.8215C229.873 74.7667 229.746 74.7073 229.622 74.6479C229.618 74.4927 229.614 74.342 229.606 74.1913ZM229.639 75.1503C229.581 75.1229 229.52 75.0955 229.462 75.0681C229.511 75.0909 229.569 75.1046 229.622 75.1046C229.627 75.1046 229.631 75.1046 229.635 75.1046C229.635 75.1183 229.639 75.132 229.639 75.1503Z" fill="black"/>
<path d="M229.622 74.6479C229.495 74.5886 229.372 74.5246 229.244 74.4653C229.285 74.3602 229.359 74.278 229.45 74.2324C229.475 74.2187 229.499 74.2095 229.524 74.205C229.552 74.1959 229.577 74.1913 229.606 74.1913C229.614 74.342 229.618 74.4927 229.622 74.6479Z" fill="black"/>
<path d="M229.524 74.205C229.499 74.2095 229.475 74.2187 229.45 74.2324C229.474 74.2232 229.499 74.2095 229.524 74.205ZM229.462 75.068C229.31 74.995 229.215 74.8397 229.211 74.6662C229.211 74.6296 229.211 74.5931 229.219 74.5566C229.224 74.5246 229.231 74.4972 229.244 74.4698C229.244 74.4652 229.244 74.4652 229.244 74.4652C229.372 74.5246 229.495 74.5885 229.623 74.6479C229.627 74.7986 229.631 74.9493 229.635 75.1045C229.631 75.1045 229.626 75.1045 229.623 75.1045C229.569 75.1045 229.511 75.0909 229.462 75.068ZM229.31 93.6946L229.721 93.7494L230.129 93.8042C230.104 94.0325 229.931 94.2061 229.721 94.2061H229.717C229.688 94.2061 229.659 94.2015 229.635 94.1969C229.445 94.1513 229.305 93.964 229.31 93.7449C229.31 93.7403 229.31 93.722 229.31 93.6946Z" fill="black"/>
<path d="M229.211 74.6662C229.215 74.8397 229.31 74.995 229.462 75.0681C229.38 75.027 229.297 74.9904 229.219 74.9493C229.215 74.8534 229.215 74.7576 229.211 74.6662ZM229.244 74.4698C229.231 74.4972 229.223 74.5246 229.219 74.5566C229.223 74.5292 229.231 74.4972 229.244 74.4698Z" fill="black"/>
<path d="M229.186 73.9355C226.264 72.4469 224.148 70.6203 223.844 69.2823C223.65 68.433 223.746 67.7297 224.124 67.1863C224.544 66.5881 225.31 66.2274 226.166 66.2274C227.083 66.2274 228.293 66.6794 228.676 67.9535C228.832 68.4786 229.042 69.949 229.186 73.9355Z" fill="#FFC962"/>
<path d="M228.091 93.5348L229.31 93.6946C229.31 93.722 229.31 93.7403 229.31 93.7449C229.305 93.964 229.445 94.1513 229.635 94.1969L228.503 94.0508V102.837C228.363 102.8 228.227 102.764 228.091 102.723V93.5348Z" fill="black"/>
<path d="M228.091 107.239V102.723C228.227 102.764 228.363 102.8 228.503 102.837V107.239C228.503 107.257 228.503 107.275 228.499 107.289C228.363 107.271 228.227 107.257 228.091 107.239ZM228.141 93.0827L229.314 93.238C229.314 93.4663 229.31 93.6215 229.31 93.6946L228.091 93.5348V102.723C227.956 102.681 227.816 102.64 227.68 102.599V93.5348C227.68 93.4023 227.729 93.2791 227.82 93.1923C227.906 93.1055 228.021 93.069 228.141 93.0827Z" fill="black"/>
<path d="M228.091 102.723V107.239C227.955 107.22 227.816 107.207 227.68 107.189V102.599C227.816 102.64 227.955 102.681 228.091 102.723Z" fill="black"/>
<path d="M228.091 107.239C228.227 107.257 228.363 107.271 228.499 107.289C228.478 107.517 228.301 107.695 228.091 107.695C227.865 107.695 227.68 107.494 227.68 107.243V107.189C227.816 107.207 227.956 107.22 228.091 107.239Z" fill="black"/>
<path d="M227.68 102.599V107.189C223.605 106.7 218.987 106.348 213.818 106.252L211.801 92.7083C216.049 97.2382 221.498 100.7 227.68 102.599Z" fill="#FFC962"/>
<path d="M226.531 0L225.626 20.7774L221.395 0H226.531Z" fill="#E22953"/>
<path d="M215.349 121.742C219.411 121.865 230.993 122.491 242.875 125.701L242.788 126.103L241.76 131.971C225.626 128.546 215.419 128.089 215.419 128.089L215.341 122.075L215.349 121.742Z" fill="#295FC5"/>
<path d="M228.676 67.9535C228.293 66.6795 227.083 66.2274 226.165 66.2274C225.309 66.2274 224.544 66.5881 224.124 67.1863C223.745 67.7297 223.651 68.433 223.844 69.2823C224.148 70.6203 226.264 72.4469 229.186 73.9355C229.042 69.949 228.832 68.4786 228.676 67.9535ZM223.445 69.3965C222.486 65.1999 228.108 64.6154 229.067 67.8119C229.334 68.707 229.503 71.1454 229.606 74.1913C229.578 74.1913 229.552 74.1958 229.524 74.205C229.499 74.2095 229.475 74.2232 229.45 74.2324C229.359 74.278 229.285 74.3602 229.244 74.4653C226.091 72.9035 223.803 70.9582 223.445 69.3965Z" fill="black"/>
<path d="M229.067 67.8119C228.108 64.6154 222.486 65.1999 223.445 69.3965C223.803 70.9582 226.091 72.9035 229.244 74.4653C229.244 74.4653 229.244 74.4653 229.244 74.4698C229.231 74.4972 229.223 74.5292 229.219 74.5566C229.21 74.5931 229.21 74.6297 229.21 74.6662C229.215 74.7575 229.215 74.8534 229.219 74.9493C225.791 73.2826 223.437 71.2048 223.046 69.5107C222.72 68.0951 223.099 67.1589 223.474 66.6247C224.049 65.8073 225.054 65.3141 226.165 65.3141C227.737 65.3141 229.03 66.2411 229.458 67.6658C229.717 68.5471 229.906 70.7299 230.022 74.3374C229.943 74.3009 229.861 74.2643 229.783 74.2278C229.778 74.2232 229.771 74.2232 229.766 74.2232C229.717 74.2004 229.659 74.1867 229.606 74.1913C229.503 71.1455 229.334 68.707 229.067 67.8119Z" fill="black"/>
<path d="M213.822 155.369C215.242 156.474 217.658 158.388 219.382 159.945C220.42 160.881 221.21 161.685 221.387 162.109C221.523 162.438 220.259 163.744 218.168 165.589C215.07 162.064 208.282 157.493 208.282 157.493C210.851 155.716 212.641 154.461 212.641 154.461C212.641 154.461 213.106 154.812 213.822 155.369Z" fill="#A9D9FF"/>
<path d="M246.493 119.87L244.332 126.103C243.846 125.961 243.361 125.829 242.875 125.701C230.993 122.491 219.411 121.865 215.349 121.742C214.366 121.714 213.822 121.714 213.822 121.714L212.95 114.961L212.941 114.39C217.497 114.289 231.556 114.431 246.674 119.112L246.493 119.87Z" fill="#3E89FC"/>
<path d="M199.825 19.4714L203.484 38.1299L192.947 21.5263L199.825 19.4714Z" fill="#E22953"/>
<path d="M197.722 97.2656L182.699 110.166L179.818 104.216L197.722 97.2656Z" fill="#E22953"/>
<path d="M190.108 69.3965L166.57 65.7707L168.294 57.5374L190.108 69.3965Z" fill="#E22953"/>
<path d="M190.519 185.855C187.021 186.654 176.217 178.549 176.217 178.549L175.9 178.439C176.18 177.407 176.378 176.512 176.423 175.923C176.526 174.585 175.266 170.722 174.007 167.256C178.028 173.918 184.584 183.088 191.383 185.508C191.017 185.691 190.725 185.809 190.519 185.855Z" fill="#295FC5"/>
<path d="M167.599 346.042C172.879 347.69 177.625 346.585 179.394 346.046L179.613 348.307C179.613 348.307 191.651 351.047 194.018 351.969C196.384 352.892 195.972 357.896 195.972 357.896L166.854 355.956L167.599 346.042Z" fill="#1E1950"/>
<path d="M164.401 227.652V227.647C166.2 227.35 167.99 226.971 169.735 226.496C184.86 222.386 185.477 220.788 185.477 220.788C185.477 220.788 185.856 269.115 182.152 294.915C182.152 294.915 181.568 341.457 180.127 345.795C180.127 345.795 179.868 345.9 179.394 346.046C177.625 346.585 172.879 347.69 167.599 346.041C167.352 345.968 167.105 345.886 166.854 345.795C166.854 345.795 166.99 302.528 167.607 296.591C168.224 290.655 160.849 244.191 160.849 244.191L160.594 244.118C162.808 234.561 164.401 227.652 164.401 227.652Z" fill="#403882"/>
<path d="M163.15 135.966C163.15 135.966 174.443 138.245 168.006 148.492C165.817 148.62 162.602 148.931 160.17 149.182C158.215 149.387 156.77 149.552 156.77 149.552L155.647 144.643L155.021 141.903C155.021 141.903 162.841 138.021 163.15 135.966Z" fill="#1E1950"/>
<path d="M162.5 158.077V160.511L155.515 155.607L162.5 158.077Z" fill="#295FC5"/>
<path d="M160.17 149.182L162.5 158.077L155.515 155.607L153.89 155.031L156.771 149.552C156.771 149.552 158.215 149.387 160.17 149.182Z" fill="#A9D9FF"/>
<path d="M152.647 126.094C153.025 126.002 153.206 125.276 153.046 124.477C152.889 123.673 152.453 123.098 152.074 123.189C151.696 123.281 151.515 124.007 151.671 124.806C151.832 125.61 152.268 126.185 152.647 126.094ZM156.853 123.345C157.013 124.148 157.45 124.724 157.828 124.632C158.207 124.541 158.388 123.815 158.227 123.011C158.071 122.212 157.635 121.632 157.256 121.728C156.878 121.819 156.696 122.541 156.853 123.345ZM156.021 126.112C156.071 126.34 156.997 130.528 157.799 131.971L159.582 129.459C158.055 128.719 156.141 126.263 156.021 126.112ZM140.102 131.628C140.308 127.747 143.6 128.203 143.6 128.203L143.744 125.235C143.744 125.235 146.897 122.979 149.074 119.468C149.222 119.422 149.358 119.381 149.486 119.349C149.93 119.28 150.922 119.194 151.548 119.344C151.77 119.395 151.988 119.239 152.037 118.993C152.083 118.746 151.943 118.504 151.721 118.449C151.046 118.29 150.161 118.349 149.687 118.404C150.918 116.038 151.601 113.207 150.7 110.166C150.7 110.166 156.297 110.275 158.33 116.623C157.116 116.874 156.211 117.385 156.17 117.408C155.968 117.527 155.89 117.801 155.993 118.025C156.067 118.18 156.211 118.271 156.359 118.271C156.425 118.271 156.487 118.253 156.548 118.221C156.556 118.217 157.413 117.728 158.532 117.504C158.553 117.5 158.569 117.495 158.59 117.495C159.026 118.965 159.507 120.596 159.989 122.258C161.676 128.107 163.384 134.414 163.15 135.966C162.841 138.021 155.021 141.903 155.021 141.903C155.021 141.903 152.758 142.748 149.774 141.387C149.774 141.387 151.601 144.159 155.647 144.643L156.771 149.552L153.89 155.031L146.173 152.406C149.465 143.615 145.041 134.711 145.041 134.711C145.041 134.711 139.896 135.51 140.102 131.628ZM157.54 137.601C158.964 136.537 159.104 134.026 159.104 134.026C159.104 134.026 155.742 135.245 152.725 134.939C152.725 134.939 156.116 138.67 157.54 137.601Z" fill="#FDA181"/>
<path d="M159.582 129.459L157.799 131.971C156.997 130.528 156.071 126.34 156.021 126.112C156.141 126.263 158.055 128.719 159.582 129.459Z" fill="#F77556"/>
<path d="M159.104 134.026C159.104 134.026 158.964 136.537 157.54 137.601C156.116 138.67 152.725 134.939 152.725 134.939C155.742 135.245 159.104 134.026 159.104 134.026Z" fill="white"/>
<path d="M160.149 117.431C159.672 117.367 159.149 117.395 158.59 117.495C158.548 117.349 158.503 117.203 158.462 117.057C158.446 117.006 158.433 116.952 158.417 116.901C158.388 116.806 158.359 116.714 158.33 116.623C158.351 116.618 158.367 116.614 158.388 116.609C159.051 116.477 159.672 116.449 160.248 116.527C160.47 116.554 160.635 116.783 160.606 117.034C160.582 117.28 160.376 117.463 160.149 117.431Z" fill="black"/>
<path d="M157.828 124.632C157.45 124.724 157.013 124.148 156.853 123.345C156.696 122.541 156.878 121.819 157.256 121.728C157.635 121.632 158.071 122.212 158.228 123.011C158.388 123.815 158.207 124.541 157.828 124.632Z" fill="#231F20"/>
<path d="M158.532 117.504C157.413 117.728 156.556 118.217 156.548 118.221C156.486 118.253 156.425 118.271 156.359 118.271C156.211 118.271 156.067 118.18 155.993 118.025C155.89 117.801 155.968 117.527 156.17 117.408C156.211 117.385 157.116 116.874 158.33 116.623C158.359 116.714 158.388 116.805 158.417 116.901C158.433 116.952 158.446 117.006 158.462 117.057C158.503 117.203 158.548 117.349 158.59 117.495C158.569 117.495 158.553 117.5 158.532 117.504Z" fill="black"/>
<path d="M155.021 141.903L155.647 144.643C151.601 144.159 149.774 141.387 149.774 141.387C152.758 142.748 155.021 141.903 155.021 141.903Z" fill="#F77556"/>
<path d="M153.89 155.031L149.91 162.032L145.893 155.036L145.889 155.031L144.547 152.698V152.693C145.555 152.515 146.173 152.406 146.173 152.406L153.89 155.031Z" fill="#A9D9FF"/>
<path d="M152.075 123.189C152.453 123.098 152.889 123.673 153.046 124.477C153.206 125.276 153.025 126.002 152.647 126.094C152.268 126.185 151.832 125.61 151.671 124.806C151.515 124.007 151.696 123.281 152.075 123.189Z" fill="#231F20"/>
<path d="M150.185 165.991L145.893 155.036L149.91 162.032L153.889 155.031L155.515 155.607L150.185 165.991Z" fill="#295FC5"/>
<path d="M151.548 119.344C150.922 119.194 149.93 119.281 149.486 119.349C149.358 119.381 149.222 119.422 149.074 119.468C149.194 119.281 149.305 119.089 149.416 118.897C149.416 118.897 149.416 118.897 149.42 118.897C149.51 118.737 149.601 118.573 149.687 118.404C150.161 118.349 151.046 118.29 151.721 118.449C151.943 118.504 152.083 118.746 152.037 118.993C151.988 119.239 151.77 119.395 151.548 119.344Z" fill="black"/>
<path d="M149.074 119.468C148.136 119.755 146.868 120.258 146.469 120.719C146.391 120.815 146.28 120.861 146.173 120.861C146.07 120.861 145.967 120.819 145.889 120.733C145.724 120.559 145.72 120.271 145.876 120.089C146.654 119.176 149.049 118.523 149.321 118.454C149.342 118.449 149.362 118.445 149.383 118.44C149.432 118.436 149.539 118.418 149.687 118.404C149.601 118.573 149.51 118.737 149.42 118.897C149.416 118.897 149.416 118.897 149.416 118.897C149.305 119.089 149.194 119.281 149.074 119.468Z" fill="black"/>
<path d="M136.731 220.103C136.752 219.19 135.196 215.035 135.196 215.035L136.147 214.536C136.147 214.536 141.851 201.038 141.234 197.385C140.954 195.718 136.233 182.914 133.723 176.169C132.801 173.699 132.179 172.041 132.179 172.041L131.85 171.968L129.426 185.133L125.697 192.933L133.891 209.879C129.146 211.185 126.047 213.592 124.594 214.939C120.758 208.048 113.733 195.33 113.659 194.417C113.556 193.161 127.652 156.858 128.166 156.173C128.286 156.013 129.331 155.721 130.862 155.374C134.661 154.502 141.448 153.255 144.547 152.693V152.698L145.889 155.031L145.893 155.036L150.185 165.991L155.515 155.607L162.5 160.511V158.077L160.17 149.182C162.602 148.931 165.817 148.62 168.006 148.492C169.327 148.419 170.274 148.41 170.455 148.524C171.175 148.981 188.976 169.53 190.211 169.416C191.087 169.334 202.01 161.84 208.283 157.493C208.283 157.493 215.069 162.064 218.168 165.589C211.373 171.589 195.845 183.279 191.383 185.508C184.584 183.088 178.028 173.918 174.007 167.256C175.266 170.722 176.526 174.585 176.423 175.923C176.378 176.512 176.18 177.407 175.9 178.439C174.941 181.978 173.028 187.111 173.028 187.111C173.028 187.111 182.905 207.089 185.477 220.788C185.477 220.788 184.86 222.387 169.735 226.496C167.99 226.971 166.2 227.35 164.401 227.647C150.609 229.962 136.221 227.652 136.221 227.652C136.517 224.209 136.719 220.569 136.731 220.103Z" fill="#3E89FC"/>
<path d="M140.102 131.628C139.896 135.51 145.041 134.711 145.041 134.711C145.041 134.711 149.465 143.615 146.173 152.406C146.173 152.406 145.555 152.515 144.547 152.693C141.448 153.255 134.661 154.502 130.862 155.374V155.369C130.85 155.369 127.138 155.365 126.623 148.867C126.109 142.359 133.517 139.049 134.237 135.053C134.957 131.057 130.224 127.747 131.047 121.354C131.871 114.961 136.501 106.855 149.774 104.458C163.047 102.06 164.952 115.057 159.989 122.258C159.507 120.596 159.026 118.965 158.59 117.495C159.149 117.395 159.672 117.367 160.149 117.431C160.376 117.463 160.582 117.28 160.606 117.034C160.635 116.783 160.471 116.554 160.248 116.527C159.672 116.449 159.051 116.477 158.388 116.609C158.367 116.614 158.351 116.618 158.33 116.623C156.297 110.275 150.7 110.166 150.7 110.166C151.601 113.207 150.918 116.038 149.687 118.404C149.539 118.417 149.432 118.436 149.383 118.44C149.362 118.445 149.342 118.449 149.321 118.454C149.049 118.523 146.654 119.176 145.876 120.089C145.72 120.271 145.724 120.559 145.889 120.733C145.967 120.819 146.07 120.861 146.173 120.861C146.28 120.861 146.391 120.815 146.469 120.719C146.868 120.258 148.136 119.755 149.074 119.468C146.897 122.979 143.744 125.235 143.744 125.235L143.6 128.203C143.6 128.203 140.308 127.747 140.102 131.628Z" fill="#1E1950"/>
<path d="M133.891 209.879L136.147 214.536L135.196 215.035L128.245 218.674L127.035 219.304C127.035 219.304 126.043 217.537 124.594 214.939C126.047 213.592 129.146 211.185 133.891 209.879Z" fill="#A9D9FF"/>
<path d="M135.196 215.035C135.196 215.035 136.752 219.19 136.731 220.103C136.719 220.569 136.517 224.209 136.221 227.652C135.937 230.962 135.566 234.086 135.196 234.031C134.912 233.99 134.2 233.51 133.352 232.72C131.945 231.401 130.171 229.218 129.401 226.725C128.166 222.729 128.245 218.674 128.245 218.674L135.196 215.035Z" fill="#FDA181"/>
<path d="M131.665 301.386C131.974 294.879 133.192 233.579 133.352 232.721C134.2 233.511 134.912 233.99 135.196 234.031C135.566 234.086 135.937 230.962 136.221 227.652C136.221 227.652 150.609 229.962 164.401 227.647V227.652C164.401 227.652 162.808 234.561 160.594 244.118C155.836 264.617 148.218 297.29 147.304 300.016C147.304 300.016 146.584 318.593 137.633 342.453C137.633 342.453 137.303 342.572 136.707 342.713C134.879 343.151 130.537 343.827 125.401 342.106C124.825 341.909 124.236 341.685 123.639 341.425C123.639 341.425 131.356 307.894 131.665 301.386Z" fill="#295FC5"/>
<path d="M125.401 342.105C130.537 343.828 134.879 343.151 136.706 342.713L135.575 355.385L107.691 355.956C107.691 355.956 107.691 352.188 108.514 350.362C109.337 348.535 123.639 345.681 123.639 345.681L125.401 342.105Z" fill="#1E1950"/>
<path d="M132.179 172.041C132.179 172.041 132.801 173.699 133.723 176.169L133.714 176.174L129.426 185.133L131.85 171.968L132.179 172.041Z" fill="#295FC5"/>
<path d="M263.778 62.9409C263.374 58.6726 259.999 51.9193 256.92 49.5447C256.048 48.8716 253.137 47.3081 252.036 48.3899C250.233 50.1621 252.904 53.2203 253.901 54.4167C255.565 56.4136 257.398 58.4493 258.504 60.7942C259.326 62.5363 259.624 64.8424 260.692 66.3653C263.688 70.6349 265.223 65.2351 263.504 62.0276L263.778 62.9409ZM262.681 74.8137C262.298 75.8621 261.159 79.9464 261.578 81.2067C262.219 83.1324 264.182 83.647 265.383 81.8154C267.281 78.9212 263.245 72.5962 262.132 76.3357" fill="white"/>
</svg>
