<svg width="605" height="418" viewBox="0 0 605 418" fill="none" xmlns="http://www.w3.org/2000/svg">
<g clip-path="url(#clip0_484_641)">
<path d="M520.783 276.18L519.646 276.312L533.686 412.717L534.823 412.585L520.783 276.18Z" fill="#292A2E"/>
<path d="M557.148 335.728L550.241 408.374L551.379 408.496L558.286 335.85L557.148 335.728Z" fill="#292A2E"/>
<path d="M569.025 399.593H517.773V417.276H569.025V399.593Z" fill="#292A2E"/>
<path opacity="0.2" d="M569.025 399.593H517.773V417.276H569.025V399.593Z" fill="white"/>
<path d="M599.921 367.034C609.63 353.315 605.001 332.196 589.583 319.862C574.164 307.529 553.794 308.651 544.085 322.37C534.376 336.088 539.005 357.208 554.424 369.541C569.842 381.875 590.212 380.752 599.921 367.034Z" fill="#0CBC8B"/>
<path opacity="0.2" d="M599.921 367.034C609.63 353.315 605.001 332.196 589.583 319.862C574.164 307.529 553.794 308.651 544.085 322.37C534.376 336.088 539.005 357.208 554.424 369.541C569.842 381.875 590.212 380.752 599.921 367.034Z" fill="white"/>
<path opacity="0.5" d="M599.92 367.036C599.268 367.961 598.557 368.838 597.79 369.658C587.103 376.918 571.328 375.775 558.813 365.762C543.396 353.432 538.769 332.312 548.479 318.594C549.132 317.671 549.841 316.794 550.603 315.971C561.298 308.706 577.066 309.855 589.586 319.862C605.003 332.198 609.629 353.318 599.92 367.036Z" fill="white"/>
<path d="M528.398 314.988C543.672 302.453 547.824 280.955 537.67 266.972C527.517 252.988 506.904 251.813 491.63 264.348C476.355 276.883 472.204 298.381 482.357 312.364C492.51 326.348 513.123 327.523 528.398 314.988Z" fill="#0CBC8B"/>
<path opacity="0.2" d="M523.557 311.389C511.728 321.102 496.695 322.583 485.797 316.259C484.536 315.079 483.385 313.772 482.358 312.358C472.203 298.378 476.353 276.878 491.628 264.346C503.456 254.638 518.489 253.152 529.382 259.469C530.646 260.651 531.799 261.96 532.826 263.377C542.981 277.357 538.83 298.857 523.557 311.389Z" fill="white"/>
<path d="M423.918 199.202L599.595 199.478V130.342H423.918V199.202Z" fill="#EFEFEF"/>
<path d="M584.469 149.517H439.044C438.972 149.52 438.9 149.507 438.833 149.479C438.766 149.452 438.705 149.41 438.653 149.357C438.601 149.304 438.56 149.24 438.532 149.169C438.504 149.099 438.489 149.023 438.489 148.947C438.489 148.87 438.504 148.794 438.532 148.724C438.56 148.653 438.601 148.59 438.653 148.536C438.705 148.483 438.766 148.442 438.833 148.414C438.9 148.386 438.972 148.374 439.044 148.376H584.469C584.541 148.374 584.613 148.386 584.68 148.414C584.747 148.442 584.809 148.483 584.86 148.536C584.912 148.59 584.953 148.653 584.981 148.724C585.009 148.794 585.024 148.87 585.024 148.947C585.024 149.023 585.009 149.099 584.981 149.169C584.953 149.24 584.912 149.304 584.86 149.357C584.809 149.41 584.747 149.452 584.68 149.479C584.613 149.507 584.541 149.52 584.469 149.517V149.517Z" fill="white"/>
<path d="M584.469 166.641H439.044C438.972 166.643 438.9 166.63 438.833 166.603C438.766 166.575 438.705 166.534 438.653 166.48C438.601 166.427 438.56 166.363 438.532 166.293C438.504 166.222 438.489 166.147 438.489 166.07C438.489 165.994 438.504 165.918 438.532 165.847C438.56 165.777 438.601 165.713 438.653 165.66C438.705 165.607 438.766 165.565 438.833 165.538C438.9 165.51 438.972 165.497 439.044 165.5H584.469C584.541 165.497 584.613 165.51 584.68 165.538C584.747 165.565 584.809 165.607 584.86 165.66C584.912 165.713 584.953 165.777 584.981 165.847C585.009 165.918 585.024 165.994 585.024 166.07C585.024 166.147 585.009 166.222 584.981 166.293C584.953 166.363 584.912 166.427 584.86 166.48C584.809 166.534 584.747 166.575 584.68 166.603C584.613 166.63 584.541 166.643 584.469 166.641V166.641Z" fill="white"/>
<path d="M584.469 183.764H498.101C497.958 183.764 497.821 183.704 497.721 183.597C497.62 183.49 497.563 183.345 497.563 183.193C497.563 183.042 497.62 182.897 497.721 182.79C497.821 182.682 497.958 182.622 498.101 182.622H584.469C584.612 182.622 584.748 182.682 584.849 182.79C584.95 182.897 585.006 183.042 585.006 183.193C585.006 183.345 584.95 183.49 584.849 183.597C584.748 183.704 584.612 183.764 584.469 183.764V183.764Z" fill="white"/>
<path d="M214.31 90.2551L1.71338 90.3104L1.72939 0H214.31V90.2551Z" fill="#EFEFEF"/>
<path d="M198.433 19.9831H17.6067C17.4934 19.9831 17.3847 19.9352 17.3046 19.8501C17.2245 19.7649 17.1794 19.6494 17.1794 19.5289C17.1794 19.4084 17.2245 19.2929 17.3046 19.2077C17.3847 19.1226 17.4934 19.0747 17.6067 19.0747H198.433C198.546 19.0747 198.654 19.1226 198.735 19.2077C198.815 19.2929 198.86 19.4084 198.86 19.5289C198.86 19.6494 198.815 19.7649 198.735 19.8501C198.654 19.9352 198.546 19.9831 198.433 19.9831Z" fill="white"/>
<path d="M198.433 37.9572H17.6067C17.4934 37.9572 17.3847 37.9094 17.3046 37.8242C17.2245 37.739 17.1794 37.6235 17.1794 37.503C17.1794 37.3826 17.2245 37.267 17.3046 37.1819C17.3847 37.0967 17.4934 37.0488 17.6067 37.0488H198.433C198.546 37.0488 198.654 37.0967 198.735 37.1819C198.815 37.267 198.86 37.3826 198.86 37.503C198.86 37.6235 198.815 37.739 198.735 37.8242C198.654 37.9094 198.546 37.9572 198.433 37.9572Z" fill="white"/>
<path d="M198.433 55.9308H17.6067C17.4934 55.9308 17.3847 55.883 17.3046 55.7978C17.2245 55.7126 17.1794 55.5971 17.1794 55.4766C17.1794 55.3562 17.2245 55.2407 17.3046 55.1555C17.3847 55.0703 17.4934 55.0225 17.6067 55.0225H198.433C198.546 55.0225 198.654 55.0703 198.735 55.1555C198.815 55.2407 198.86 55.3562 198.86 55.4766C198.86 55.5971 198.815 55.7126 198.735 55.7978C198.654 55.883 198.546 55.9308 198.433 55.9308Z" fill="white"/>
<path d="M108.265 73.905H17.6067C17.4934 73.905 17.3847 73.8571 17.3046 73.7719C17.2245 73.6868 17.1794 73.5712 17.1794 73.4508C17.1794 73.3303 17.2245 73.2148 17.3046 73.1296C17.3847 73.0444 17.4934 72.9966 17.6067 72.9966H108.265C108.378 72.9966 108.487 73.0444 108.567 73.1296C108.647 73.2148 108.692 73.3303 108.692 73.4508C108.692 73.5712 108.647 73.6868 108.567 73.7719C108.487 73.8571 108.378 73.905 108.265 73.905V73.905Z" fill="white"/>
<path d="M502.993 42.4402H117.134C107.659 42.4402 99.9773 50.6067 99.9773 60.6807V361.025C99.9773 371.099 107.659 379.266 117.134 379.266H502.993C512.468 379.266 520.15 371.099 520.15 361.025V60.6807C520.15 50.6067 512.468 42.4402 502.993 42.4402Z" fill="white"/>
<path d="M502.991 379.873H117.134C112.434 379.868 107.928 377.88 104.604 374.346C101.28 370.813 99.4106 366.022 99.4053 361.025V60.68C99.4107 55.6829 101.28 50.8921 104.604 47.3585C107.928 43.825 112.434 41.8373 117.134 41.8315H502.991C507.692 41.8372 512.198 43.8248 515.522 47.3584C518.846 50.8919 520.715 55.6828 520.721 60.68V361.025C520.715 366.022 518.846 370.813 515.522 374.347C512.198 377.88 507.692 379.868 502.991 379.873V379.873ZM117.134 43.0476C112.737 43.0527 108.521 44.9121 105.412 48.2177C102.303 51.5233 100.554 56.0052 100.549 60.68V361.025C100.554 365.7 102.303 370.181 105.412 373.487C108.521 376.793 112.737 378.652 117.134 378.657H502.991C507.389 378.652 511.604 376.793 514.714 373.487C517.823 370.181 519.572 365.7 519.577 361.025V60.68C519.572 56.0052 517.823 51.5233 514.714 48.2177C511.604 44.9121 507.389 43.0527 502.991 43.0476H117.134Z" fill="#292A2E"/>
<path d="M520.149 60.6799V79.0347H99.979V60.6799C99.979 55.8423 101.787 51.2027 105.004 47.782C108.222 44.3612 112.586 42.4395 117.136 42.4395H502.991C507.542 42.4395 511.906 44.3612 515.123 47.782C518.341 51.2027 520.149 55.8423 520.149 60.6799Z" fill="#292A2E"/>
<path opacity="0.2" d="M281.043 227.326H218.902C211.062 227.326 204.706 234.083 204.706 242.419C204.706 250.754 211.062 257.512 218.902 257.512H281.043C288.883 257.512 295.239 250.754 295.239 242.419C295.239 234.083 288.883 227.326 281.043 227.326Z" fill="#367CFF"/>
<path opacity="0.2" d="M400.397 227.326H338.256C330.416 227.326 324.06 234.083 324.06 242.419C324.06 250.754 330.416 257.512 338.256 257.512H400.397C408.237 257.512 414.593 250.754 414.593 242.419C414.593 234.083 408.237 227.326 400.397 227.326Z" fill="#367CFF"/>
<path opacity="0.1" d="M478.648 159.887C478.648 163.693 477.944 167.462 476.574 170.979C475.205 174.495 473.197 177.69 470.666 180.382C468.135 183.073 465.13 185.208 461.822 186.665C458.515 188.122 454.97 188.871 451.39 188.872H179.529C175.949 188.872 172.405 188.122 169.097 186.666C165.79 185.209 162.785 183.074 160.254 180.383C157.722 177.692 155.714 174.497 154.344 170.981C152.974 167.465 152.269 163.696 152.269 159.891C152.269 156.085 152.974 152.316 154.344 148.8C155.714 145.284 157.722 142.089 160.254 139.398C162.785 136.707 165.79 134.572 169.097 133.115C172.405 131.659 175.949 130.909 179.529 130.909H451.39C458.619 130.91 465.552 133.963 470.664 139.397C475.775 144.832 478.647 152.202 478.648 159.887V159.887Z" fill="#367CFF"/>
<path d="M478.648 159.887C478.648 163.693 477.944 167.462 476.574 170.979C475.205 174.495 473.197 177.69 470.666 180.382C468.135 183.073 465.13 185.208 461.823 186.665C458.515 188.122 454.971 188.871 451.391 188.872H409.161V130.909H451.391C458.62 130.91 465.552 133.963 470.664 139.397C475.776 144.832 478.647 152.202 478.648 159.887V159.887Z" fill="#3E89FC"/>
<path d="M190.256 168.992L187.488 159.58C187.314 159.004 186.988 157.697 186.511 155.658H186.401C186.034 157.365 185.712 158.683 185.437 159.61L182.587 168.992H179.944L175.826 152.95H178.221C179.194 156.98 179.935 160.049 180.445 162.157C180.814 163.556 181.106 164.977 181.319 166.413H181.429C181.531 165.857 181.694 165.137 181.918 164.254C182.143 163.37 182.338 162.67 182.503 162.154L185.271 152.947H187.749L190.448 162.154C190.889 163.536 191.239 164.949 191.494 166.384H191.604C191.675 165.837 191.774 165.294 191.9 164.759C192.06 164.027 193.017 160.09 194.771 152.947H197.139L192.964 168.989L190.256 168.992Z" fill="#0A0A0A"/>
<path d="M213.316 168.992L210.548 159.58C210.374 159.004 210.048 157.697 209.571 155.658H209.461C209.094 157.365 208.772 158.683 208.497 159.61L205.647 168.992H203.004L198.886 152.95H201.282C202.254 156.98 202.996 160.049 203.505 162.157C203.874 163.556 204.166 164.977 204.379 166.413H204.49C204.591 165.857 204.754 165.137 204.978 164.254C205.203 163.37 205.398 162.67 205.564 162.154L208.331 152.947H210.809L213.507 162.154C213.949 163.536 214.299 164.949 214.554 166.384H214.664C214.735 165.837 214.834 165.294 214.96 164.759C215.12 164.027 216.077 160.09 217.83 152.947H220.199L216.027 168.989L213.316 168.992Z" fill="#0A0A0A"/>
<path d="M236.376 168.992L233.609 159.58C233.434 159.004 233.108 157.697 232.631 155.658H232.521C232.154 157.365 231.833 158.683 231.557 159.61L228.705 168.992H226.061L221.944 152.95H224.339C225.312 156.98 226.054 160.049 226.563 162.157C226.932 163.556 227.224 164.977 227.437 166.413H227.547C227.649 165.857 227.812 165.137 228.036 164.254C228.261 163.37 228.456 162.67 228.621 162.154L231.389 152.947H233.867L236.569 162.158C237.011 163.54 237.36 164.954 237.615 166.388H237.725C237.797 165.841 237.895 165.299 238.022 164.763C238.182 164.031 239.139 160.094 240.892 152.951H243.26L239.085 168.993L236.376 168.992Z" fill="#0A0A0A"/>
<path d="M437.333 167.95C434.129 167.953 431.03 166.733 428.6 164.513C426.17 162.293 424.569 159.22 424.09 155.852C423.61 152.484 424.283 149.045 425.986 146.16C427.689 143.274 430.309 141.134 433.37 140.129C436.432 139.123 439.731 139.319 442.668 140.679C445.605 142.04 447.986 144.476 449.377 147.545C450.768 150.613 451.077 154.111 450.249 157.401C449.42 160.692 447.509 163.557 444.862 165.476C442.642 167.085 440.019 167.947 437.333 167.95ZM437.291 142.519C434.576 142.521 431.967 143.633 430.004 145.627C428.041 147.62 426.875 150.34 426.749 153.223C426.623 156.106 427.546 158.929 429.326 161.108C431.107 163.286 433.608 164.652 436.311 164.921C439.013 165.191 441.71 164.344 443.84 162.555C445.971 160.767 447.371 158.175 447.752 155.318C448.132 152.46 447.463 149.557 445.883 147.21C444.302 144.864 441.933 143.254 439.266 142.716C438.615 142.585 437.954 142.519 437.291 142.519V142.519Z" fill="white"/>
<path d="M457.064 180.298C456.855 180.298 456.648 180.25 456.459 180.156C456.269 180.062 456.102 179.925 455.968 179.754L444.044 164.629C443.8 164.32 443.682 163.921 443.715 163.519C443.749 163.118 443.931 162.746 444.221 162.487C444.512 162.228 444.887 162.103 445.265 162.138C445.643 162.174 445.992 162.367 446.236 162.676L458.159 177.802C458.334 178.023 458.446 178.293 458.481 178.58C458.516 178.867 458.474 179.158 458.359 179.421C458.244 179.683 458.061 179.904 457.832 180.06C457.602 180.215 457.336 180.298 457.064 180.298Z" fill="white"/>
<path d="M21.4436 385.117C17.9882 385.117 14.5841 384.229 11.5209 382.529C8.45776 380.829 5.82635 378.367 3.85067 375.353C1.87499 372.34 0.613542 368.863 0.173716 365.219C-0.26611 361.575 0.128707 357.873 1.32456 354.426C2.53757 350.927 31.1054 268.561 36.5219 253.719L76.5108 270.212C73.4654 278.557 62.431 310.186 53.5665 335.666L68.2936 333.963L72.9289 379.297L23.7644 384.979C22.9937 385.07 22.219 385.116 21.4436 385.117V385.117Z" fill="#3E89FC"/>
<path d="M47.1452 382.786L40.6055 417.392H167.625L160.309 382.127L47.1452 382.786Z" fill="#262626"/>
<path d="M74.6086 228.128C63.9964 228.964 53.1753 232.631 45.207 240.129C33.1884 251.438 34.2578 258.51 40.2577 289.831C45.4197 316.781 43.3723 328.558 46.8255 378.289C46.9273 379.754 47.1451 382.784 47.1451 382.784L160.669 382.584C160.669 382.584 171.306 316.604 177.179 286.172C181.645 263.036 193.376 234.951 143.915 229.29C143.784 229.276 104.115 225.801 74.6086 228.128Z" fill="#3E89FC"/>
<path d="M307.118 203.18C301.77 203.178 296.558 201.389 292.22 198.065C287.881 194.742 284.635 190.052 282.942 184.659C281.248 179.267 281.191 173.445 282.781 168.016C284.37 162.588 287.525 157.828 291.798 154.411C296.072 150.993 301.248 149.09 306.594 148.972C311.941 148.853 317.187 150.525 321.591 153.75C325.994 156.975 329.333 161.591 331.134 166.944C332.935 172.297 333.107 178.117 331.626 183.58V183.58C330.087 189.227 326.866 194.191 322.447 197.725C318.027 201.26 312.648 203.174 307.118 203.18V203.18ZM307.1 155.038C302.08 155.035 297.247 157.055 293.573 160.691C289.899 164.327 287.658 169.308 287.302 174.631C286.946 179.954 288.502 185.223 291.656 189.374C294.809 193.526 299.326 196.252 304.295 197.004C309.265 197.755 314.317 196.475 318.434 193.423C322.551 190.37 325.427 185.772 326.481 180.554C327.535 175.337 326.689 169.889 324.114 165.308C321.54 160.727 317.427 157.355 312.606 155.87C310.816 155.32 308.963 155.04 307.1 155.038V155.038Z" fill="#0A0A0A"/>
<path d="M285.587 236.588C285.12 236.588 284.66 236.466 284.247 236.233C283.835 236 283.482 235.664 283.22 235.253C282.958 234.842 282.795 234.369 282.744 233.875C282.694 233.382 282.758 232.883 282.931 232.422L295.937 197.73C296.226 196.993 296.776 196.407 297.467 196.097C298.159 195.787 298.938 195.779 299.635 196.075C300.333 196.37 300.893 196.945 301.195 197.676C301.497 198.406 301.517 199.234 301.25 199.98L288.244 234.672C288.032 235.237 287.666 235.722 287.192 236.064C286.718 236.405 286.159 236.588 285.587 236.588V236.588Z" fill="#0A0A0A"/>
<path d="M275.629 232.782L283.605 213.762C283.78 213.344 284.035 212.969 284.354 212.662C284.673 212.354 285.049 212.121 285.457 211.977C285.866 211.832 286.298 211.78 286.726 211.823C287.155 211.865 287.57 212.003 287.946 212.226C288.629 212.66 289.135 213.349 289.367 214.158C289.599 214.967 289.54 215.838 289.201 216.603L287.491 220.682L298.406 210.481C299.601 209.325 301.763 208.717 302.896 210.228C303.367 210.779 303.649 211.483 303.695 212.226C303.741 212.97 303.549 213.708 303.15 214.32C303.163 214.329 303.175 214.339 303.186 214.351C303.193 214.362 303.199 214.373 303.205 214.385L305.047 212.601C305.389 212.271 305.795 212.026 306.237 211.884C306.679 211.742 307.145 211.706 307.601 211.78C308.057 211.854 308.493 212.035 308.875 212.31C309.257 212.585 309.576 212.947 309.81 213.371C310.166 214.045 310.293 214.829 310.17 215.59C310.047 216.352 309.682 217.046 309.135 217.556L308.351 218.316C308.361 218.35 308.365 218.385 308.364 218.421C309.006 218.039 309.754 217.912 310.476 218.063C311.198 218.214 311.845 218.633 312.303 219.245C312.785 219.93 313.007 220.783 312.924 221.635C312.84 222.486 312.458 223.273 311.853 223.838L309.906 225.722C309.951 225.716 309.997 225.722 310.039 225.738C310.082 225.755 310.121 225.782 310.152 225.818C310.186 225.862 310.208 225.916 310.215 225.973C310.875 225.802 311.57 225.865 312.193 226.155C312.816 226.444 313.332 226.943 313.662 227.574C313.997 228.246 314.108 229.017 313.979 229.764C313.849 230.511 313.486 231.189 312.948 231.69L296.514 247.596C294.215 249.821 291.344 251.266 288.267 251.744C285.191 252.223 282.05 251.714 279.247 250.283V250.283C276.831 249.049 274.962 246.862 274.038 244.186C273.114 241.511 273.208 238.557 274.3 235.954L275.629 232.782Z" fill="#E98862"/>
<g opacity="0.2">
<path d="M292.393 224.472C292.443 224.531 292.514 224.566 292.589 224.57C292.664 224.574 292.737 224.547 292.793 224.494L303.162 214.778C303.19 214.752 303.213 214.72 303.23 214.684C303.246 214.648 303.256 214.609 303.259 214.569C303.261 214.529 303.256 214.489 303.244 214.452C303.231 214.414 303.212 214.379 303.188 214.349C303.163 214.319 303.132 214.295 303.099 214.277C303.065 214.259 303.028 214.249 302.991 214.247C302.953 214.244 302.916 214.25 302.88 214.263C302.845 214.276 302.812 214.296 302.784 214.322L292.416 224.038C292.387 224.064 292.364 224.096 292.348 224.132C292.331 224.168 292.322 224.207 292.319 224.247C292.317 224.287 292.322 224.327 292.334 224.364C292.347 224.402 292.366 224.437 292.39 224.467L292.393 224.472Z" fill="#0C0C0C"/>
</g>
<g opacity="0.2">
<path d="M296.297 229.452C296.348 229.511 296.418 229.546 296.493 229.55C296.568 229.554 296.641 229.527 296.698 229.474L308.27 218.631C308.298 218.605 308.321 218.573 308.337 218.537C308.354 218.501 308.363 218.462 308.366 218.422C308.368 218.382 308.363 218.342 308.351 218.305C308.339 218.267 308.32 218.232 308.295 218.202C308.243 218.144 308.173 218.109 308.098 218.104C308.023 218.099 307.949 218.124 307.891 218.175L296.319 229.017C296.291 229.044 296.268 229.076 296.251 229.112C296.235 229.148 296.225 229.187 296.223 229.226C296.22 229.266 296.225 229.306 296.238 229.344C296.25 229.382 296.269 229.417 296.294 229.447L296.297 229.452Z" fill="#0C0C0C"/>
</g>
<g opacity="0.2">
<path d="M300.497 234.871C300.547 234.93 300.618 234.965 300.693 234.969C300.768 234.973 300.841 234.946 300.897 234.893L310.128 226.245C310.156 226.218 310.179 226.186 310.195 226.15C310.212 226.115 310.221 226.076 310.224 226.036C310.226 225.996 310.221 225.956 310.209 225.918C310.197 225.88 310.178 225.845 310.153 225.816C310.128 225.786 310.098 225.761 310.064 225.744C310.03 225.726 309.994 225.716 309.956 225.713C309.919 225.711 309.881 225.716 309.845 225.729C309.81 225.742 309.777 225.762 309.749 225.789L300.518 234.437C300.49 234.464 300.467 234.496 300.451 234.532C300.434 234.567 300.425 234.606 300.422 234.646C300.42 234.686 300.425 234.726 300.437 234.764C300.449 234.802 300.468 234.836 300.493 234.866L300.497 234.871Z" fill="#0C0C0C"/>
</g>
<path d="M270.644 226.608L222.285 284.504L173.42 239.558L145.356 274.044L210.228 333.713L210.665 334.115C210.818 334.252 210.971 334.388 211.125 334.523C215.449 338.242 220.985 339.983 226.516 339.362C232.048 338.742 237.12 335.811 240.619 331.214L300.055 253.117L270.644 226.608Z" fill="#3E89FC"/>
<path d="M143.914 229.293C143.783 229.275 140.18 243.691 112.059 241.447C92.5916 239.897 87.8448 225.809 87.3987 225.809C89.4976 225.335 92.9061 224.842 93.8383 224.314C96.9038 222.562 99.1365 220.431 100.261 215.856C101.14 212.278 101.588 198.506 101.588 191.596L131.544 198.753C131.127 206.547 128.204 224.618 138.447 227.816C140.151 228.345 141.987 228.831 143.914 229.293Z" fill="#E98862"/>
<path d="M130.509 214.078C118.7 215.068 103.529 209.767 100.647 193.016L98.0475 177.902C95.1657 161.151 101.106 145.963 115.941 143.078C130.775 140.194 144.2 151.617 147.082 168.368L148.233 175.056C149.337 181.487 151.578 212.31 130.509 214.078Z" fill="#E98862"/>
<path d="M141.458 198.7C139.338 187.376 138.366 179.821 138.478 171.851C141.464 166.283 140.679 159.892 140 157.131C142.927 158.828 144.151 159.016 146.905 159.016C146.905 159.016 141.967 137.947 125.184 132.278C122.096 131.001 114.218 129.388 103.756 130.914C94.8569 132.211 72.9209 139.286 69.7846 165.54V165.555C69.6805 166.426 67.5747 190.617 63.3758 202.223C57.7305 217.825 49.8062 222.673 50.0069 240.675C50.2654 263.83 90.3068 266.913 114.461 265.181C138.615 263.448 152.092 255.006 152.268 238.318C152.463 219.615 145.699 221.353 141.458 198.7Z" fill="#0A0A0A"/>
<path d="M141.464 189.206C136.956 190.082 132.419 185.666 131.595 180.873C130.771 176.08 133.97 172.725 138.478 171.849L141.464 189.206Z" fill="#E98862"/>
<path d="M174.466 301.122C174.448 301.122 174.431 301.12 174.413 301.116C174.376 301.109 174.341 301.094 174.309 301.072C174.278 301.05 174.251 301.022 174.229 300.989C174.208 300.956 174.193 300.919 174.186 300.88C174.178 300.841 174.177 300.8 174.184 300.761L177.062 284.551C177.068 284.511 177.081 284.472 177.101 284.437C177.121 284.402 177.148 284.372 177.179 284.348C177.211 284.325 177.246 284.308 177.284 284.299C177.321 284.291 177.36 284.29 177.398 284.297C177.436 284.305 177.472 284.321 177.504 284.343C177.536 284.366 177.563 284.395 177.584 284.43C177.605 284.464 177.62 284.502 177.626 284.542C177.633 284.583 177.632 284.624 177.624 284.664L174.747 300.875C174.734 300.944 174.699 301.007 174.648 301.052C174.597 301.097 174.533 301.121 174.466 301.122V301.122Z" fill="#0C0C0C"/>
<path d="M47.1452 383.09C47.0713 383.09 47.0003 383.059 46.9469 383.005C46.8936 382.951 46.8622 382.876 46.8593 382.798L43.302 284.618C43.3005 284.578 43.3064 284.539 43.3193 284.501C43.3323 284.464 43.3521 284.429 43.3776 284.4C43.4031 284.37 43.4338 284.347 43.4679 284.33C43.502 284.313 43.539 284.304 43.5765 284.302C43.6514 284.303 43.7233 284.333 43.7782 284.387C43.8331 284.441 43.8671 284.515 43.8733 284.595L47.4312 382.774C47.4326 382.814 47.4267 382.854 47.4136 382.891C47.4006 382.929 47.3807 382.963 47.3552 382.992C47.3296 383.022 47.2989 383.045 47.2647 383.062C47.2305 383.079 47.1936 383.088 47.1561 383.09H47.1452Z" fill="#0C0C0C"/>
<path d="M219.04 289.49C218.987 289.49 218.935 289.475 218.89 289.445C218.845 289.415 218.808 289.373 218.784 289.322C218.761 289.272 218.751 289.215 218.755 289.159C218.76 289.103 218.779 289.049 218.811 289.004L222.058 284.322C222.104 284.259 222.171 284.217 222.245 284.206C222.319 284.195 222.394 284.215 222.455 284.262C222.515 284.309 222.556 284.38 222.568 284.459C222.579 284.537 222.562 284.618 222.518 284.683L219.269 289.367C219.242 289.405 219.208 289.436 219.168 289.457C219.129 289.479 219.085 289.49 219.04 289.49Z" fill="#0C0C0C"/>
<path d="M13.0194 418H584.72C584.872 418 585.017 417.936 585.125 417.822C585.232 417.708 585.292 417.553 585.292 417.392C585.292 417.231 585.232 417.076 585.125 416.962C585.017 416.848 584.872 416.784 584.72 416.784H13.0194C12.8677 416.784 12.7223 416.848 12.615 416.962C12.5078 417.076 12.4475 417.231 12.4475 417.392C12.4475 417.553 12.5078 417.708 12.615 417.822C12.7223 417.936 12.8677 418 13.0194 418Z" fill="#292A2E"/>
</g>
<defs>
<clipPath id="clip0_484_641">
<rect width="605" height="418" fill="white"/>
</clipPath>
</defs>
</svg>
