<svg width="367" height="369" viewBox="0 0 367 369" fill="none" xmlns="http://www.w3.org/2000/svg">
<path d="M29.3874 310.386C52.4169 360.909 106.489 384.157 158.936 358.435C187.624 344.394 209.87 315.278 239.007 302.1C271.73 287.254 308.207 275.458 334.039 244.614C361.551 211.757 372.869 162.615 364.072 120.493C353.314 69.2223 308.6 57.3108 270.777 36.4801C115.622 -48.9141 -56.5672 12.7148 17.9006 252.037C24.1203 272.062 21.7669 293.641 29.3874 310.386Z" fill="#CCE9FF"/>
<path d="M298.738 89.8228L275.82 93.1603L269.264 113.358L275.82 120.091L295.488 113.358L298.738 89.8228Z" fill="#F7F7F7"/>
<path d="M270.889 118.422C269.993 117.501 269.993 116.005 270.889 115.084L280.695 105.014C281.592 104.094 283.049 104.094 283.945 105.014C284.842 105.935 284.842 107.431 283.945 108.352L274.139 118.422C273.243 119.343 271.786 119.343 270.889 118.422Z" fill="#D3D3D3"/>
<path d="M287.251 108.352C285.458 110.193 282.488 110.193 280.695 108.352C278.902 106.51 278.902 103.461 280.695 101.619C282.488 99.7778 285.458 99.7778 287.251 101.619C289.044 103.461 289.044 106.453 287.251 108.352Z" fill="#D3D3D3"/>
<path d="M256.153 120.091V123.428L265.959 133.498H269.209L275.764 120.033L269.209 113.3L256.153 120.091Z" fill="#FFBE55"/>
<path d="M232.843 94.4263L234.86 98.2241L247.972 101.562L250.998 98.2241L248.308 87.9239L249.709 80.9611L240.632 79.0622L239.231 86.0249L232.843 94.4263Z" fill="#0E538C"/>
<path d="M240.632 79.0622L249.709 80.9611L251.558 71.6391L242.929 67.3809L240.632 79.0622Z" fill="#2A94F4"/>
<path d="M226.959 170.901C221.973 169.866 218.723 164.802 219.731 159.68L232.843 94.4263L250.998 98.2817L237.942 163.478C236.877 168.657 232.002 171.937 226.959 170.901Z" fill="#0B4870"/>
<path d="M256.153 120.091L269.265 133.556L236.541 167.161C232.899 170.901 227.072 170.901 223.43 167.161C219.787 163.421 219.787 157.436 223.43 153.696L256.153 120.091Z" fill="#FFBE55"/>
<path d="M272.291 140.921L284.842 137.756L289.325 156.228L276.773 159.393L272.291 140.921Z" fill="#0E538C"/>
<path d="M325.241 137.239L306.582 130.333C303.388 129.182 299.914 128.952 296.664 129.815C294.087 130.448 291.678 131.714 289.66 133.498L284.842 137.699L289.268 156.17L295.432 157.609C298.009 158.184 300.755 158.184 303.332 157.494C306.638 156.631 309.608 154.847 311.905 152.257L325.241 137.239Z" fill="#F7F7F7"/>
<path d="M318.797 144.489L311.345 139.655C306.75 136.778 300.979 136.836 296.44 139.828C295.376 140.518 295.039 142.015 295.712 143.108C295.824 143.28 295.936 143.396 296.048 143.511C296.833 144.316 298.009 144.431 298.906 143.856C301.932 141.842 305.798 141.784 308.88 143.741L315.604 148.114L318.797 144.489Z" fill="#D3D3D3"/>
<path d="M273.579 140.576L278.062 159.047L230.826 171.074C225.839 172.34 220.852 169.233 219.619 164.111C218.387 158.99 221.412 153.869 226.399 152.603L273.579 140.576Z" fill="#2A94F4"/>
<path d="M135.122 112.437L110.187 127.053L85.2522 112.437L110.187 97.8788L135.122 112.437Z" fill="#FFBE55"/>
<path d="M110.187 127.053L94.7218 117.961L85.2522 123.486L110.187 138.102L135.122 123.486L125.652 117.961L110.187 127.053Z" fill="#2A94F4"/>
<path d="M110.187 138.102L94.7218 129.01L85.2522 134.534L110.187 149.15L135.122 134.534L125.652 129.01L110.187 138.102Z" fill="#0E538C"/>
<path d="M203.482 247.261H142.742C139.884 247.261 137.587 244.902 137.587 241.967C137.587 239.033 139.884 236.673 142.742 236.673H203.482C206.339 236.673 208.637 239.033 208.637 241.967C208.637 244.96 206.339 247.261 203.482 247.261Z" fill="#D3D3D3"/>
<path d="M160.509 308.465V313.759H212.787V308.465H160.509Z" fill="#0E538C"/>
<path d="M165.379 312.688C165.828 315.45 164.035 318.04 161.345 318.5C158.655 318.96 156.134 317.119 155.686 314.357C155.237 311.595 157.03 309.005 159.72 308.545C162.41 308.085 164.931 309.926 165.379 312.688Z" fill="#0E538C"/>
<path d="M188.969 243.809H183.814V310.617H188.969V243.809Z" fill="#0E538C"/>
<path d="M217.658 312.688C218.106 315.45 216.313 318.04 213.623 318.5C210.934 318.96 208.412 317.119 207.964 314.357C207.516 311.595 209.309 309.005 211.999 308.545C214.688 308.085 217.21 309.926 217.658 312.688Z" fill="#0E538C"/>
<path d="M219.451 247.261H162.017C158.095 247.261 155.293 243.348 156.414 239.378L183.814 142.36C184.543 139.77 186.84 137.987 189.417 137.987H246.795C250.718 137.987 253.519 141.9 252.398 145.87L225.054 242.888C224.326 245.477 222.029 247.261 219.451 247.261Z" fill="#D3D3D3"/>
<path d="M211.551 247.261H161.569C157.647 247.261 154.845 243.348 155.966 239.378L183.366 142.36C184.094 139.77 186.392 137.987 188.969 137.987H238.951C242.873 137.987 245.675 141.9 244.554 145.87L217.154 242.888C216.425 245.477 214.128 247.261 211.551 247.261Z" fill="#F2F2F2"/>
<path d="M219.395 247.261H158.656C155.798 247.261 153.5 244.902 153.5 241.967C153.5 239.033 155.798 236.673 158.656 236.673H219.395C222.253 236.673 224.55 239.033 224.55 241.967C224.55 244.96 222.253 247.261 219.395 247.261Z" fill="#D3D3D3"/>
<path d="M170.254 164.917L157.815 201.687L160.728 208.937L177.482 205.657L182.245 166.298L170.254 164.917Z" fill="#FFE3CA"/>
<path d="M177.763 147.021C177.763 147.021 167.957 152.718 165.772 171.592L178.771 179.533L177.763 147.021Z" fill="#2A94F4"/>
<path d="M194.572 139.77L177.763 147.021L164.539 207.556L208.861 225.51L232.451 156.458C232.451 156.458 228.584 142.015 206.451 138.389L194.572 139.77Z" fill="#2A94F4"/>
<path d="M239.343 210.894C239.287 210.088 238.839 205.312 238.671 204.564L231.386 156.573C229.985 150.013 222.757 146.676 217.042 149.956C212.839 152.372 210.934 157.551 212.559 162.155L221.244 203.356L239.343 210.894Z" fill="#FFE3CA"/>
<path d="M229.425 200.594L180.004 196.623L177.539 205.657L225.111 222.172C232.451 224.704 239.903 218.777 239.343 210.894C238.951 205.427 234.748 201.054 229.425 200.594Z" fill="#FFE3CA"/>
<path d="M226.399 148.459C226.399 148.459 232.731 151.279 235.42 168.024L213.175 175.044C213.175 175.044 198.607 158.299 214.184 147.136L226.399 148.459Z" fill="#2A94F4"/>
<path d="M164.483 206.175C166.276 211.182 175.465 211.354 180.284 209.513C185.159 207.672 190.146 204.794 188.297 199.788C186.504 194.782 178.379 191.847 173.112 193.056C166.668 194.609 162.634 201.227 164.483 206.175Z" fill="#FFE3CA"/>
<path d="M191.379 212.965L156.078 208.304L156.582 204.219L191.883 208.88C193.004 209.053 193.732 210.031 193.62 211.182C193.452 212.332 192.443 213.138 191.379 212.965Z" fill="#FFBE55"/>
<path d="M160.729 208.937L113.997 202.78C111.308 202.435 109.179 200.248 108.786 197.486L103.855 162.673C103.407 159.565 105.985 156.918 108.954 157.321L151.876 162.96C153.669 163.191 155.07 164.629 155.294 166.47L160.729 208.937Z" fill="#FFBE55"/>
<path d="M134.786 184.999C134.449 187.531 132.264 189.258 129.799 188.97C127.333 188.625 125.652 186.381 125.932 183.849C126.269 181.317 128.454 179.59 130.919 179.878C133.385 180.223 135.122 182.525 134.786 184.999Z" fill="white"/>
<path d="M104.864 300.892L92.7046 306.071L85.0281 306.646C81.498 306.934 78.5843 309.523 77.7998 313.091L77.4636 314.76L119.04 320.111L119.881 302.906L104.864 300.892Z" fill="#FFBE55"/>
<path d="M119.937 302.906L124.027 284.147L108.954 282.075L104.864 300.892L119.937 302.906Z" fill="#FFE3CA"/>
<path d="M208.805 225.51C208.805 225.51 207.628 235.868 189.529 237.249H146.048L125.54 296.001L103.967 292.433L125.54 206.175L174.961 211.815L208.805 225.51Z" fill="#0B4870"/>
<path d="M70.0111 267.171L57.0115 265.215L50.1194 261.647C46.9816 260.036 43.1153 260.726 40.7059 263.373L39.5852 264.639L72.5886 291.167L81.8901 276.839L70.0111 267.171Z" fill="#FFBE55"/>
<path d="M82.0025 276.839L93.3212 262.05L81.4422 252.268L70.0115 267.171L82.0025 276.839Z" fill="#FFE3CA"/>
<path d="M164.539 207.556L131.031 197.256C129.631 196.796 128.23 196.336 126.885 195.76C123.971 194.609 116.687 193.056 111.028 201.917C103.743 213.311 74.7183 256.353 74.7183 256.353L92.4247 269.761L131.087 219.123C134.337 214.519 139.548 211.815 145.04 211.815L174.961 211.757L164.539 207.556Z" fill="#0B4870"/>
<path d="M207.628 120.896C208.245 119.745 218.611 100.756 209.085 95.98C209.085 95.98 207.852 85.9674 196.926 87.0607C185.999 88.1541 188.969 91.434 182.021 89.8228C175.073 88.2116 168.517 91.8944 169.021 97.8213C169.526 103.806 174.008 106.338 182.021 104.899C190.034 103.461 196.366 104.554 196.366 104.554L203.033 106.568L207.628 120.896Z" fill="#FFBE55"/>
<path d="M208.973 141.439L208.133 117.328L191.827 123.255L193.116 142.59C193.396 147.078 195.862 150.589 200.232 150.243L201.577 150.128C205.947 149.84 209.253 145.985 208.973 141.439Z" fill="#FFE3CA"/>
<path d="M206.732 120.666C206.732 120.666 209.814 140.806 193.06 141.957L192.332 132.405L206.732 120.666Z" fill="#FCD2B1"/>
<path d="M192.891 137.469H193.452C201.801 137.066 208.244 129.815 207.852 121.241L207.068 103.748C206.956 101.504 205.107 99.8353 202.977 99.8929L183.086 100.871C179.219 101.044 176.25 104.439 176.418 108.409L177.09 122.795C177.482 131.254 184.542 137.871 192.891 137.469Z" fill="#FFE3CA"/>
<path d="M204.098 115.947C204.21 118.825 206.62 121.069 209.421 120.954C212.223 120.839 214.408 118.364 214.296 115.487C214.184 112.61 211.775 110.366 208.973 110.481C206.115 110.596 203.93 113.013 204.098 115.947Z" fill="#FFE3CA"/>
<path d="M201.633 101.907L202.641 121.472C202.753 123.255 202.025 125.039 200.624 126.018C199.727 126.651 198.999 127.514 197.43 127.284C192.891 126.593 194.965 123.14 185.775 123.658C177.37 124.119 177.987 128.952 177.987 128.952C177.987 128.952 179.612 138.102 191.154 138.504C202.697 138.965 208.469 131.427 207.124 121.472L206.003 100.814L201.633 101.907Z" fill="#FFBE55"/>
<path d="M176.978 105.187C176.978 105.187 182.357 106.05 190.146 104.093C197.935 102.137 204.098 108.582 204.098 108.582C204.098 108.582 205.779 111.574 206.171 111.459C206.564 111.402 208.973 110.423 208.973 110.423L208.861 101.389L203.146 96.8431L187.344 96.1525L177.987 98.2816L176.978 105.187Z" fill="#FFBE55"/>
<path d="M181.068 62.4898L181.461 63.3529L173.112 67.2659L172.72 66.3452C171.095 62.72 168.013 59.7277 164.315 58.1165C161.121 56.7355 158.879 54.0885 157.871 50.751C156.47 45.6871 158.767 39.2423 164.483 36.5377C170.478 33.7181 177.426 36.3076 180.06 42.1195C181.237 44.7664 181.405 47.8162 180.396 50.6359C179.051 54.4913 179.331 58.6344 181.068 62.4898ZM183.422 67.6111C183.87 68.5894 183.422 69.7402 182.413 70.2006L177.594 72.4448C176.586 72.9051 175.465 72.5023 175.017 71.4665L174.008 69.2224L182.357 65.3094L183.422 67.6111Z" fill="#FFBE55"/>
<path d="M161.152 26.5271L159.164 27.4586L161.257 32.1703L163.245 31.2389L161.152 26.5271Z" fill="#FFBE55"/>
<path d="M176.138 30.4957L178.155 31.2437L180.06 26.3526L178.043 25.6045L176.138 30.4957Z" fill="#FFBE55"/>
<path d="M192.203 37.7085L187.411 39.9535L188.295 41.9429L193.087 39.6979L192.203 37.7085Z" fill="#FFBE55"/>
<path d="M151.812 56.6461L147.02 58.8911L147.904 60.8805L152.696 58.6355L151.812 56.6461Z" fill="#FFBE55"/>
<path d="M147.449 39.9328L146.664 42.0044L151.483 43.7307L152.212 41.6591L147.449 39.9328Z" fill="#FFBE55"/>
<path d="M104.247 82.9752L101.95 80.6159C101.558 80.2131 101.053 79.9829 100.493 79.9829C99.9327 79.9829 99.4284 80.2131 99.0362 80.6159L98.7 80.9612C95.6742 78.8896 92.0881 77.7963 88.3899 77.7387H88.3339C86.0366 77.7387 83.7952 78.1415 81.722 79.0047L85.7564 74.8616C86.2607 75.0917 86.821 75.2644 87.3813 75.2644C88.3899 75.2644 89.3985 74.8616 90.0709 74.1135C90.7994 73.3654 91.1916 72.3872 91.1916 71.3514C91.1916 70.3156 90.7994 69.2799 90.0709 68.5893C89.3425 67.8413 88.3899 67.4385 87.3813 67.4385C86.3728 67.4385 85.3642 67.8413 84.6918 68.5893C83.9633 69.3374 83.5711 70.3156 83.5711 71.3514C83.5711 71.9268 83.6832 72.5023 83.9633 73.0202L76.6791 80.5008L76.4549 80.2706C76.0627 79.8678 75.5584 79.6377 74.9981 79.6377C74.4377 79.6377 73.9334 79.8678 73.5412 80.2706L71.1878 82.6299C70.7956 83.0327 70.5715 83.5506 70.5715 84.126C70.5715 84.7015 70.7956 85.2194 71.1878 85.6222L71.412 85.8523L64.1277 93.333C63.6234 93.1028 63.063 92.9302 62.5027 92.9302C61.4941 92.9302 60.4855 93.333 59.8131 94.081C58.3002 95.6347 58.3002 98.1091 59.8131 99.6627C60.5416 100.411 61.4941 100.814 62.5027 100.814C63.5113 100.814 64.5199 100.411 65.1923 99.6627C66.369 98.4543 66.6492 96.6129 65.9207 95.1743L69.9551 91.0312C69.1706 93.2179 68.7224 95.5196 68.7224 97.8789C68.7224 101.677 69.787 105.302 71.8602 108.467L71.468 108.87C70.6835 109.675 70.6835 111.056 71.468 111.862L73.7653 114.221C74.1576 114.624 74.6619 114.854 75.2222 114.854C75.7825 114.854 76.2868 114.624 76.6791 114.221L78.9764 111.862C79.7609 111.056 79.7609 109.675 78.9764 108.87L76.6791 106.51C76.2868 106.108 75.7825 105.877 75.2222 105.877C74.6619 105.877 74.1576 106.108 73.7653 106.51L73.7093 106.568C70.4034 101.044 70.5154 93.8509 74.1576 88.4418C74.3817 88.5569 74.6619 88.6144 74.886 88.6144C75.4463 88.6144 75.9506 88.3842 76.3429 87.9814L78.6402 85.6222C79.2566 84.9892 79.3686 84.126 79.0885 83.378C84.3556 79.6377 91.3597 79.465 96.7389 82.9176L96.5707 83.0903C95.7863 83.8959 95.7863 85.2769 96.5707 86.0825L98.8681 88.4418C99.2603 88.8446 99.7646 89.0748 100.325 89.0748C100.885 89.0748 101.39 88.8446 101.782 88.4418L104.079 86.0825C105.032 85.1618 105.032 83.8383 104.247 82.9752ZM76.9032 110.366L75.2782 112.035L73.6533 110.366L75.2782 108.697L76.9032 110.366ZM86.4848 70.3156C86.7089 70.0855 87.0451 69.9128 87.3813 69.9128C87.7175 69.9128 88.0537 70.0279 88.2779 70.3156C88.502 70.5458 88.6701 70.8911 88.6701 71.2363C88.6701 71.5816 88.558 71.9269 88.2779 72.157C88.0537 72.3872 87.7175 72.5598 87.3813 72.5598C87.0451 72.5598 86.7089 72.4447 86.4848 72.157C86.2607 71.9269 86.0926 71.5816 86.0926 71.2363C86.1486 70.8911 86.2607 70.6034 86.4848 70.3156ZM63.3992 97.7638C63.1751 97.994 62.8389 98.1666 62.5027 98.1666C62.1665 98.1666 61.8303 98.0515 61.6062 97.7638C61.1019 97.2459 61.1019 96.4403 61.6062 95.9224C61.8303 95.6922 62.1665 95.5196 62.5027 95.5196C62.8389 95.5196 63.1751 95.6347 63.3992 95.9224C63.9035 96.4403 63.9035 97.3034 63.3992 97.7638ZM74.942 85.7372L73.3171 84.0685L74.942 82.3997L76.567 84.0685L74.942 85.7372ZM100.437 86.1401L98.8121 84.4713L100.437 82.8025L102.062 84.4713L100.437 86.1401Z" fill="#0E538C"/>
</svg>
