<svg width="476" height="321" viewBox="0 0 476 321" fill="none" xmlns="http://www.w3.org/2000/svg">
<path d="M66.8793 200.827C81.1983 267.346 225.9 372.925 270.84 282.945C294.496 235.582 366.833 165.986 422.947 124.178C477.51 83.5258 317.312 20.8941 218.986 42.0601C120.661 63.226 52.5603 134.308 66.8793 200.827Z" fill="#FFE3CB"/>
<path d="M230.701 116.129H131.125C129.469 116.129 128.125 117.472 128.125 119.129V176.371C128.125 178.028 129.469 179.371 131.125 179.371H230.701C232.358 179.371 233.701 178.028 233.701 176.371V119.129C233.701 117.472 232.358 116.129 230.701 116.129Z" fill="#6C7FD8"/>
<path d="M181.8 177.175C183.352 177.175 184.61 175.917 184.61 174.365C184.61 172.813 183.352 171.555 181.8 171.555C180.248 171.555 178.99 172.813 178.99 174.365C178.99 175.917 180.248 177.175 181.8 177.175Z" fill="#E5E1E5"/>
<path d="M450.229 107.817C448.245 111.916 444.816 115.812 439.969 119.422L439.372 118.621C450.616 110.245 453.933 100.744 449.232 90.3899C440.645 71.4767 405.783 51.4855 358.252 38.22C308.343 24.2903 255.178 21.0038 216.037 29.4302C108.617 52.5535 33.9365 130.414 49.5633 202.998L48.5851 203.208C32.8431 130.086 107.868 51.6918 215.827 28.4519C255.119 19.9943 308.462 23.285 358.521 37.2565C406.329 50.5997 441.437 70.8008 450.142 89.9754C452.951 96.1641 452.956 102.182 450.229 107.817Z" fill="#FFE3CB"/>
<path d="M52.4912 291.472C51.5054 289.83 28.3047 251.165 24.5518 241.157L25.4883 240.806C29.209 250.729 53.1074 290.556 53.3486 290.956L52.4912 291.472Z" fill="#8B9D36"/>
<path d="M33.1197 219.921C32.1081 222.424 31.3347 225.016 30.8096 227.664C30.2728 230.257 29.8786 232.878 29.629 235.514C29.3726 238.15 29.264 240.798 29.3038 243.446C29.3188 246.146 29.5919 248.838 30.1192 251.486C31.1356 248.985 31.911 246.392 32.4346 243.744C32.9724 241.151 33.3648 238.53 33.6099 235.893C33.8615 233.257 33.9683 230.609 33.9298 227.961C33.9131 225.262 33.6419 222.57 33.1197 219.921ZM41.94 231.981C40.7083 234.313 39.7044 236.758 38.9425 239.282C38.1741 241.749 37.5453 244.258 37.0591 246.796C36.5665 249.333 36.2195 251.896 36.0196 254.472C35.7914 257.1 35.8202 259.743 36.1055 262.365C37.3418 260.035 38.3476 257.591 39.1085 255.065C39.8772 252.598 40.5042 250.089 40.9864 247.55C41.4748 245.012 41.82 242.449 42.0206 239.873C42.2474 237.246 42.2204 234.603 41.94 231.981ZM46.7999 246.021C45.7152 248.188 44.8599 250.462 44.2481 252.807C43.6304 255.091 43.1536 257.411 42.8204 259.753C42.4808 262.094 42.2879 264.455 42.2427 266.82C42.1726 269.243 42.3592 271.666 42.7994 274.05C43.8889 271.885 44.746 269.61 45.3565 267.265C45.9751 264.981 46.4502 262.661 46.7789 260.318C47.1142 257.976 47.3053 255.615 47.3511 253.25C47.42 250.828 47.2353 248.405 46.7999 246.021ZM52.92 260.035C51.831 261.851 50.9624 263.789 50.3326 265.81C49.7025 267.762 49.2117 269.756 48.8638 271.778C48.5093 273.798 48.3012 275.841 48.2413 277.892C48.1556 280.007 48.3256 282.125 48.7476 284.2C49.8412 282.387 50.7118 280.449 51.3404 278.427C51.9713 276.475 52.4605 274.48 52.8043 272.458C53.1541 270.437 53.3603 268.394 53.4215 266.343C53.5057 264.228 53.3374 262.111 52.92 260.035ZM58.3199 268.795C57.2089 270.369 56.2918 272.071 55.5884 273.865C54.8991 275.578 54.3254 277.335 53.8712 279.125C53.4211 280.901 53.0748 282.702 52.8341 284.519C52.7217 285.434 52.6187 286.345 52.5504 287.273C52.515 288.218 52.4142 289.161 52.2486 290.092C52.4796 289.969 52.7015 289.829 52.9127 289.673L53.4517 289.133C53.7954 288.764 54.1106 288.37 54.3946 287.954C54.942 287.151 55.4267 286.308 55.8443 285.431C56.6556 283.726 57.2929 281.943 57.7466 280.111C58.2094 278.294 58.5091 276.44 58.6421 274.571C58.8036 272.64 58.6952 270.696 58.3199 268.795ZM27.8751 247.173C26.0603 245.183 24.0183 243.412 21.7911 241.897C19.6451 240.407 17.3982 239.067 15.0665 237.887C12.7381 236.701 10.3288 235.681 7.85645 234.835C5.31703 233.935 2.67977 233.34 0 233.061C1.81073 235.056 3.85186 236.829 6.08057 238.343C8.22599 239.835 10.4743 241.173 12.8086 242.347C15.1393 243.528 17.5495 244.546 20.0215 245.393C22.5607 246.291 25.1966 246.889 27.8751 247.173ZM33.8511 258.335C31.5304 256.437 29.015 254.791 26.3472 253.423C23.7564 252.064 21.0836 250.867 18.3443 249.839C15.608 248.803 12.809 247.942 9.96393 247.26C7.05543 246.531 4.07715 246.116 1.08014 246.021C3.39755 247.924 5.91224 249.573 8.58114 250.94C11.1715 252.3 13.8453 253.495 16.5865 254.518C19.3248 255.548 22.1245 256.407 24.9693 257.091C27.8777 257.818 30.8549 258.235 33.8511 258.335ZM40.8858 270.743C38.8195 268.909 36.55 267.317 34.1216 266C31.7749 264.697 29.3426 263.554 26.8414 262.579C24.3432 261.597 21.7804 260.788 19.171 260.158C16.4918 259.481 13.7432 259.116 10.98 259.072C13.043 260.91 15.312 262.504 17.7418 263.821C20.088 265.125 22.5213 266.266 25.0245 267.235C27.5247 268.212 30.0882 269.019 32.6973 269.65C35.3762 270.325 38.1235 270.692 40.8858 270.743ZM46.4453 280.292C44.6454 278.733 42.6479 277.417 40.5044 276.379C38.4538 275.359 36.3256 274.504 34.1397 273.82C31.9559 273.129 29.72 272.616 27.4537 272.286C25.1004 271.914 22.7081 271.858 20.3399 272.118C22.1368 273.682 24.134 275 26.2789 276.037C28.3291 277.058 30.4585 277.912 32.6461 278.59C34.8314 279.276 37.0675 279.787 39.3336 280.118C41.6863 280.488 44.0774 280.547 46.4453 280.292Z" fill="#8B9D36"/>
<path d="M50.8341 288.861C48.8553 286.962 46.664 285.297 44.3038 283.9C42.0252 282.52 39.6551 281.297 37.2101 280.24C34.7682 279.175 32.2553 278.282 29.6896 277.565C27.0552 276.799 24.3404 276.342 21.6002 276.205C23.5754 278.109 25.7659 279.777 28.1275 281.173C30.4057 282.554 32.7769 283.775 35.2242 284.827C37.6683 285.886 40.1818 286.778 42.7472 287.495C45.3814 288.26 48.0949 288.718 50.8341 288.861ZM25.9332 242.421C26.2984 239.755 26.2326 237.047 25.7384 234.402C25.3034 231.907 24.6188 229.463 23.6949 227.106C22.7798 224.745 21.6259 222.484 20.2511 220.358C18.8182 218.078 17.0245 216.046 14.9401 214.341C14.5668 217.008 14.6295 219.718 15.1256 222.365C15.5598 224.859 16.2474 227.302 17.1779 229.657C18.1001 232.015 19.257 234.275 20.631 236.401C22.0645 238.679 23.8547 240.712 25.9332 242.421Z" fill="#8B9D36"/>
<path d="M56.1631 293.106C56.1523 292.44 54.9375 226.231 42.2002 206.064L43.0459 205.531C55.9331 225.935 57.1187 290.357 57.1631 293.09L56.1631 293.106Z" fill="#50661A"/>
<path d="M46.7637 214.733C46.3674 211.744 46.267 208.724 46.4639 205.715C46.6302 202.784 46.9555 199.863 47.4386 196.967C47.9054 194.082 48.5406 191.226 49.2877 188.394C50.0338 185.543 50.9761 182.799 51.983 179.878C52.2674 180.603 52.4834 181.354 52.628 182.12C52.7892 182.872 52.907 183.632 52.9805 184.398C53.1366 185.9 53.2045 187.41 53.1837 188.921C53.1395 191.892 52.8674 194.855 52.3696 197.784C51.8852 200.705 51.2 203.588 50.3189 206.414C49.4476 209.311 48.2551 212.101 46.7637 214.733ZM30.9234 173.938C33.1384 176.074 35.0379 178.514 36.5645 181.186C38.0516 183.72 39.3165 186.378 40.3453 189.13C41.3834 191.879 42.1775 194.713 42.7183 197.601C43.3231 200.62 43.4898 203.709 43.2135 206.775C40.992 204.644 39.0892 202.204 37.5636 199.531C36.0752 196.997 34.813 194.338 33.7916 191.583C32.7605 188.832 31.9695 185.996 31.4273 183.108C30.8245 180.091 30.6548 177.003 30.9234 173.938ZM20.3033 190.357C22.9313 192.468 25.4132 194.755 27.732 197.202C30.0279 199.582 32.2189 202.015 34.3624 204.461L40.7311 211.77C41.7994 212.967 42.879 214.146 44.0196 215.263C45.1467 216.447 46.4593 217.438 47.9059 218.199C47.0236 218.353 46.1195 218.33 45.2462 218.131C44.3655 217.956 43.5063 217.686 42.6837 217.325C41.0737 216.618 39.5437 215.741 38.1197 214.709C35.356 212.685 32.8335 210.352 30.6016 207.753C28.3817 205.208 26.383 202.478 24.6275 199.592C22.8205 196.698 21.3686 193.598 20.3033 190.357ZM20.3033 206.775C23.5429 208.393 26.6332 210.294 29.5382 212.455C32.4129 214.557 35.1784 216.805 37.8238 219.189C40.475 221.567 43.0009 224.081 45.3912 226.721C47.8459 229.384 50.0576 232.261 52.0001 235.318C48.7572 233.705 45.665 231.806 42.7604 229.643C39.885 227.542 37.1209 225.292 34.4791 222.904C31.8316 220.522 29.3075 218.006 26.9166 215.367C24.4634 212.703 22.2504 209.828 20.3033 206.775ZM21.3833 219.658C24.647 221.176 27.7693 222.982 30.7134 225.053C33.6255 227.066 36.4322 229.227 39.1226 231.528C41.8183 233.822 44.3923 236.255 46.834 238.818C49.3407 241.403 51.61 244.207 53.6148 247.198C50.3479 245.684 47.2237 243.88 44.2798 241.807C41.3673 239.795 38.5621 237.633 35.8755 235.328C33.1833 233.029 30.6109 230.594 28.1685 228.032C25.6632 225.447 23.3925 222.645 21.3833 219.658ZM22.1031 233.428C25.3509 234.649 28.4793 236.167 31.4488 237.961C34.3801 239.699 37.2165 241.592 39.9459 243.632C42.6803 245.665 45.3024 247.845 47.8004 250.163C50.3664 252.499 52.709 255.07 54.7979 257.841C51.5476 256.625 48.4175 255.109 45.4483 253.313C42.5166 251.576 39.6814 249.681 36.9552 247.637C34.2241 245.599 31.6036 243.418 29.1051 241.101C26.5405 238.763 24.1966 236.195 22.1031 233.428ZM21.3833 243.418C24.7811 244.785 28.053 246.446 31.1617 248.383C34.2357 250.263 37.213 252.297 40.0821 254.477C42.9564 256.651 45.7172 258.971 48.3536 261.427C51.0554 263.901 53.5333 266.608 55.7583 269.518C52.3578 268.156 49.0843 266.497 45.9761 264.559C42.9015 262.679 39.9254 260.643 37.0596 258.458C34.1886 256.28 31.4294 253.959 28.7925 251.503C26.092 249.029 23.6129 246.323 21.3833 243.418ZM18.8633 252.778C22.4011 254.423 25.8168 256.319 29.0845 258.45C32.3296 260.528 35.4693 262.724 38.5303 265.016C41.6002 267.295 44.585 269.67 47.5172 272.125C50.4795 274.559 53.2779 277.094 56.3428 279.604C54.3747 279.281 52.453 278.72 50.6197 277.934C48.8045 277.175 47.0305 276.321 45.3052 275.376C41.9117 273.477 38.6489 271.354 35.5386 269.02C32.4396 266.697 29.4772 264.197 26.6661 261.533C23.8018 258.86 21.1899 255.929 18.8633 252.778ZM15.8033 262.498C19.6264 263.984 23.336 265.746 26.9025 267.772C30.4469 269.747 33.8868 271.867 37.2477 274.099C40.609 276.33 43.8893 278.675 47.0885 281.136C48.6876 282.37 50.2714 283.626 51.84 284.904C53.3572 286.249 54.9691 287.484 56.6632 288.598C55.6009 288.598 54.5463 288.417 53.545 288.062C52.5401 287.765 51.5646 287.403 50.5997 287.026C48.6754 286.262 46.816 285.388 44.9923 284.462C41.3721 282.598 37.862 280.527 34.4791 278.26C31.0967 276.01 27.8307 273.589 24.6935 271.008C21.5001 268.422 18.5265 265.575 15.8033 262.498ZM49.8663 226.169C50.0287 222.921 50.5092 219.697 51.3008 216.543C52.0482 213.446 52.9719 210.395 54.0675 207.404C55.1551 204.41 56.4157 201.482 57.8428 198.634C59.2718 195.713 60.9869 192.94 62.963 190.357C62.8063 193.605 62.3281 196.83 61.5352 199.985C60.7884 203.081 59.8623 206.132 58.7618 209.121C57.6691 212.113 56.4064 215.04 54.98 217.888C53.5502 220.809 51.8374 223.582 49.8663 226.169ZM52.0001 237.408C52.6133 234.178 53.5385 231.014 54.7628 227.962C55.9356 224.961 57.2769 222.028 58.7803 219.178C60.2763 216.324 61.935 213.558 63.7481 210.894C65.5724 208.157 67.6607 205.606 69.983 203.278C69.3753 206.51 68.4521 209.675 67.2266 212.727C66.0543 215.728 64.7108 218.66 63.2027 221.508C61.7018 224.36 60.0413 227.124 58.2291 229.789C56.4037 232.524 54.3176 235.076 52.0001 237.408ZM53.6148 248.278C54.6667 244.998 56.0204 241.824 57.6588 238.795C59.2416 235.807 60.9838 232.907 62.878 230.106C64.7654 227.301 66.805 224.601 68.9874 222.019C71.1861 219.367 73.6288 216.928 76.2833 214.733C75.2368 218.015 73.8847 221.191 72.2447 224.22C70.6629 227.208 68.9185 230.107 67.0196 232.905C65.1278 235.707 63.0866 238.405 60.9049 240.988C58.7055 243.638 56.265 246.079 53.6148 248.278ZM54.7979 260.269C56.4475 256.725 58.3838 253.321 60.5875 250.092C62.7393 246.88 65.0354 243.787 67.4757 240.812C69.9078 237.83 72.4809 234.963 75.1949 232.212C77.9198 229.407 80.8726 226.834 84.023 224.518C82.3799 228.066 80.4452 231.472 78.2388 234.7C76.087 237.911 73.7893 241.003 71.3458 243.975C68.9078 246.953 66.3329 249.818 63.6212 252.571C60.8948 255.374 57.9439 257.948 54.7979 260.269ZM55.7583 272.704C57.7806 269.335 60.0735 266.135 62.6143 263.137C65.1017 260.152 67.7203 257.298 70.4703 254.577C73.2125 251.849 76.0831 249.25 79.0822 246.779C82.0971 244.258 85.3151 241.99 88.7032 239.998C86.6868 243.371 84.3953 246.573 81.8522 249.569C79.3649 252.555 76.7448 255.407 73.9918 258.125C71.2443 260.848 68.372 263.446 65.3751 265.918C62.3588 268.437 59.1426 270.707 55.7583 272.704ZM56.3428 280.678C58.5861 277.771 61.0784 275.064 63.7916 272.59C66.4412 270.134 69.2127 267.812 72.0958 265.634C74.9735 263.449 77.9613 261.414 81.0474 259.535C84.1673 257.597 87.452 255.938 90.8633 254.578C88.6244 257.489 86.1331 260.197 83.4185 262.671C80.7696 265.128 77.9966 267.448 75.1104 269.621C72.2291 271.801 69.24 273.835 66.1543 275.715C63.0342 277.651 59.7513 279.312 56.3428 280.678ZM56.6632 287.338C59.3543 284.684 62.2654 282.264 65.3653 280.102C68.4083 277.939 71.5439 275.938 74.772 274.098C77.9952 272.25 81.3085 270.559 84.712 269.026C88.1465 267.448 91.71 266.167 95.3633 265.198C92.6759 267.856 89.7655 270.278 86.6641 272.439C83.6212 274.602 80.4846 276.601 77.2545 278.437C74.0279 280.279 70.7134 281.968 67.3111 283.503C63.8765 285.08 60.3144 286.363 56.6632 287.338ZM56.4146 291.658C59.6435 289.43 63.0485 287.469 66.5958 285.793C70.0889 284.107 73.6505 282.604 77.2701 281.259C80.8892 279.913 84.5717 278.737 88.3175 277.732C92.0993 276.687 95.9611 275.956 99.8633 275.548C96.638 277.782 93.2335 279.745 89.6846 281.418C86.191 283.104 82.6321 284.614 79.0079 285.946C75.3863 287.286 71.7061 288.468 67.9581 289.467C64.1761 290.509 60.3155 291.242 56.4146 291.658Z" fill="#50661A"/>
<path d="M58.2148 291.472L57.3574 290.956C57.5986 290.556 81.4966 250.729 85.2178 240.806L86.1543 241.157C82.4009 251.165 59.2007 289.83 58.2148 291.472Z" fill="#5E7C24"/>
<path d="M77.5862 219.921C78.5978 222.424 79.3712 225.016 79.8963 227.664C80.4331 230.257 80.8273 232.878 81.0769 235.514C81.3333 238.15 81.4418 240.798 81.4021 243.446C81.387 246.146 81.114 248.838 80.5867 251.486C79.5703 248.985 78.7949 246.392 78.2713 243.744C77.7335 241.151 77.3412 238.53 77.096 235.893C76.8444 233.257 76.7376 230.609 76.7762 227.961C76.7928 225.262 77.064 222.57 77.5862 219.921ZM68.7659 231.981C69.9976 234.313 71.0015 236.758 71.7635 239.282C72.5318 241.749 73.1606 244.258 73.6468 246.796C74.1394 249.333 74.4864 251.896 74.6863 254.472C74.9145 257.1 74.8857 259.743 74.6004 262.365C73.3641 260.035 72.3583 257.591 71.5974 255.065C70.8287 252.598 70.2017 250.089 69.7195 247.55C69.2312 245.012 68.8859 242.449 68.6853 239.873C68.4585 237.246 68.4855 234.603 68.7659 231.981ZM63.906 246.021C64.9907 248.188 65.846 250.462 66.4578 252.807C67.0755 255.091 67.5523 257.411 67.8855 259.753C68.2251 262.094 68.418 264.455 68.4632 266.82C68.5333 269.243 68.3467 271.666 67.9065 274.05C66.817 271.885 65.9599 269.61 65.3494 267.265C64.7308 264.981 64.2557 262.661 63.927 260.318C63.5917 257.976 63.4006 255.615 63.3548 253.25C63.2859 250.828 63.4707 248.405 63.906 246.021ZM57.7859 260.035C58.8749 261.851 59.7435 263.789 60.3733 265.81C61.0034 267.762 61.4942 269.756 61.8421 271.778C62.1966 273.798 62.4047 275.841 62.4646 277.892C62.5503 280.007 62.3803 282.125 61.9583 284.2C60.8647 282.387 59.9941 280.449 59.3655 278.427C58.7346 276.475 58.2454 274.48 57.9016 272.458C57.5518 270.437 57.3456 268.394 57.2845 266.343C57.2002 264.228 57.3685 262.111 57.7859 260.035ZM52.386 268.795C53.497 270.369 54.4141 272.071 55.1174 273.865C55.8067 275.578 56.3804 277.335 56.8347 279.125C57.2848 280.901 57.6311 282.702 57.8718 284.519C57.9841 285.434 58.0872 286.345 58.1555 287.273C58.1909 288.218 58.2917 289.161 58.4573 290.092C58.2263 289.969 58.0044 289.829 57.7932 289.673L57.2541 289.133C56.9105 288.764 56.5953 288.37 56.3113 287.954C55.7639 287.151 55.2792 286.308 54.8616 285.431C54.0503 283.726 53.413 281.943 52.9592 280.11C52.4965 278.294 52.1968 276.44 52.0637 274.571C51.9023 272.64 52.0107 270.696 52.386 268.795ZM82.8308 247.173C84.6456 245.183 86.6876 243.412 88.9148 241.897C91.0607 240.407 93.3077 239.067 95.6395 237.887C97.9678 236.701 100.377 235.681 102.849 234.835C105.389 233.935 108.026 233.34 110.706 233.061C108.895 235.056 106.854 236.829 104.625 238.343C102.48 239.835 100.232 241.173 97.8973 242.347C95.5665 243.528 93.1564 244.546 90.6844 245.393C88.1452 246.291 85.5093 246.889 82.8308 247.173ZM76.8548 258.335C79.1755 256.437 81.6909 254.791 84.3587 253.423C86.9495 252.064 89.6223 250.867 92.3616 249.839C95.0979 248.803 97.8969 247.942 100.742 247.26C103.65 246.531 106.629 246.116 109.626 246.021C107.308 247.924 104.794 249.573 102.125 250.94C99.5344 252.3 96.8606 253.495 94.1194 254.518C91.3811 255.548 88.5814 256.407 85.7366 257.091C82.8282 257.818 79.851 258.235 76.8548 258.335ZM69.8201 270.743C71.8864 268.909 74.1559 267.317 76.5843 266C78.931 264.697 81.3633 263.554 83.8645 262.579C86.3627 261.597 88.9256 260.788 91.5349 260.158C94.2141 259.481 96.9628 259.116 99.7259 259.072C97.6629 260.91 95.3939 262.504 92.9641 263.821C90.6179 265.125 88.1846 266.266 85.6814 267.235C83.1812 268.212 80.6177 269.019 78.0086 269.65C75.3297 270.325 72.5824 270.692 69.8201 270.743ZM64.2605 280.292C66.0605 278.733 68.058 277.417 70.2014 276.379C72.2521 275.359 74.3803 274.504 76.5662 273.82C78.7499 273.129 80.9858 272.616 83.2522 272.286C85.6055 271.914 87.9978 271.858 90.366 272.118C88.569 273.682 86.5718 275 84.427 276.037C82.3767 277.058 80.2474 277.912 78.0598 278.59C75.8745 279.276 73.6383 279.787 71.3723 280.118C69.0196 280.488 66.6285 280.547 64.2605 280.292Z" fill="#5E7C24"/>
<path d="M59.8718 288.861C61.8506 286.962 64.0419 285.297 66.4021 283.9C68.6807 282.52 71.0508 281.297 73.4958 280.24C75.9378 279.175 78.4506 278.282 81.0164 277.565C83.6508 276.799 86.3655 276.342 89.1057 276.205C87.1306 278.109 84.94 279.777 82.5784 281.173C80.3003 282.554 77.929 283.775 75.4817 284.827C73.0376 285.886 70.5241 286.778 67.9587 287.495C65.3245 288.26 62.611 288.718 59.8718 288.861ZM84.7727 242.421C84.4075 239.755 84.4733 237.047 84.9675 234.402C85.4025 231.907 86.0871 229.463 87.011 227.106C87.9261 224.745 89.0801 222.484 90.4548 220.358C91.8877 218.078 93.6814 216.046 95.7658 214.341C96.1391 217.008 96.0764 219.718 95.5803 222.365C95.1461 224.859 94.4585 227.302 93.528 229.657C92.6058 232.015 91.449 234.275 90.0749 236.401C88.6414 238.679 86.8512 240.712 84.7727 242.421Z" fill="#5E7C24"/>
<path d="M63.8335 319.651H45.7621L39.9484 288.807C39.9141 288.63 39.9193 288.448 39.9635 288.273C40.0076 288.098 40.0898 287.936 40.204 287.796C40.3182 287.657 40.4617 287.545 40.6243 287.467C40.7869 287.39 40.9645 287.349 41.1447 287.348H68.451C68.6311 287.349 68.8088 287.39 68.9714 287.467C69.134 287.545 69.2775 287.657 69.3917 287.796C69.5059 287.936 69.588 288.098 69.6322 288.273C69.6764 288.448 69.6815 288.63 69.6473 288.807L63.8335 319.651Z" fill="#E19974"/>
<path d="M69.2273 291.035L69.6474 288.807C69.6816 288.63 69.6765 288.448 69.6323 288.273C69.5881 288.098 69.506 287.936 69.3918 287.796C69.2776 287.657 69.1341 287.545 68.9715 287.467C68.8089 287.39 68.6312 287.349 68.4511 287.348H41.1447C40.9645 287.349 40.7869 287.39 40.6243 287.467C40.4617 287.545 40.3182 287.657 40.204 287.796C40.0898 287.936 40.0076 288.098 39.9635 288.273C39.9193 288.448 39.9141 288.63 39.9484 288.807L40.3685 291.035H69.2273Z" fill="#D6694B"/>
<path d="M47.2064 310.915L43.3894 307.062L47.2064 303.209L51.0244 307.062L47.2064 310.915Z" fill="#D6694B"/>
<path d="M54.8414 310.915L51.0244 307.062L54.8414 303.209L58.6594 307.062L54.8414 310.915Z" fill="#D6694B"/>
<path d="M62.3883 310.915L58.5713 307.062L62.3883 303.209L66.2063 307.062L62.3883 310.915Z" fill="#D6694B"/>
<path d="M77.7404 0H2.00037C0.895797 0 0.000366211 0.89543 0.000366211 2V150.28C0.000366211 151.385 0.895797 152.28 2.00037 152.28H77.7404C78.8449 152.28 79.7404 151.385 79.7404 150.28V2C79.7404 0.89543 78.8449 0 77.7404 0Z" fill="#A2AEE6"/>
<path d="M35.9803 3.78H5.78027C4.6757 3.78 3.78027 4.67543 3.78027 5.78V47.5C3.78027 48.6046 4.6757 49.5 5.78027 49.5H35.9803C37.0848 49.5 37.9803 48.6046 37.9803 47.5V5.78C37.9803 4.67543 37.0848 3.78 35.9803 3.78Z" fill="#E5E1E5"/>
<path d="M73.9603 3.78H43.7603C42.6557 3.78 41.7603 4.67543 41.7603 5.78V47.5C41.7603 48.6046 42.6557 49.5 43.7603 49.5H73.9603C75.0648 49.5 75.9603 48.6046 75.9603 47.5V5.78C75.9603 4.67543 75.0648 3.78 73.9603 3.78Z" fill="#E5E1E5"/>
<path d="M35.9803 53.28H5.78027C4.6757 53.28 3.78027 54.1754 3.78027 55.28V97C3.78027 98.1046 4.6757 99 5.78027 99H35.9803C37.0848 99 37.9803 98.1046 37.9803 97V55.28C37.9803 54.1754 37.0848 53.28 35.9803 53.28Z" fill="#E5E1E5"/>
<path d="M73.9603 53.28H43.7603C42.6557 53.28 41.7603 54.1754 41.7603 55.28V97C41.7603 98.1046 42.6557 99 43.7603 99H73.9603C75.0648 99 75.9603 98.1046 75.9603 97V55.28C75.9603 54.1754 75.0648 53.28 73.9603 53.28Z" fill="#E5E1E5"/>
<path d="M35.9803 102.78H5.78027C4.6757 102.78 3.78027 103.675 3.78027 104.78V146.5C3.78027 147.605 4.6757 148.5 5.78027 148.5H35.9803C37.0848 148.5 37.9803 147.605 37.9803 146.5V104.78C37.9803 103.675 37.0848 102.78 35.9803 102.78Z" fill="#E5E1E5"/>
<path d="M73.9603 102.78H43.7603C42.6557 102.78 41.7603 103.675 41.7603 104.78V146.5C41.7603 147.605 42.6557 148.5 43.7603 148.5H73.9603C75.0648 148.5 75.9603 147.605 75.9603 146.5V104.78C75.9603 103.675 75.0648 102.78 73.9603 102.78Z" fill="#E5E1E5"/>
<path d="M7.46997 40.0795C9.16138 37.3207 10.9424 34.6251 12.7371 31.939C14.5222 29.2463 16.3718 26.599 18.2214 23.9517C20.0906 21.3181 21.9614 18.6858 23.8955 16.098L26.7996 12.2184C27.7976 10.9462 28.7673 9.65418 29.79 8.39954C28.9526 9.78479 28.0625 11.1328 27.2004 12.5007L24.5244 16.541C22.7385 19.2333 20.8894 21.8809 19.0386 24.5273C17.1682 27.16 15.2976 29.7927 13.3631 32.38C11.4375 34.9739 9.49854 37.5582 7.46997 40.0795ZM12.0056 46.4045C13.697 43.6458 15.478 40.9501 17.2725 38.264C19.0579 35.5714 20.9072 32.9239 22.7571 30.2767C24.6262 27.6432 26.4971 25.0109 28.4311 22.423L31.3352 18.5433C32.333 17.2712 33.3027 15.9792 34.3254 14.7245C33.4883 16.1099 32.5979 17.4579 31.7358 18.8257L29.0601 22.8661C27.2739 25.5582 25.4248 28.2059 23.574 30.8523C21.7039 33.4851 19.8333 36.1177 17.8984 38.7051C15.9732 41.299 14.0342 43.8833 12.0056 46.4045ZM45.4321 40.0795C47.1235 37.3207 48.9045 34.6251 50.6992 31.939C52.4846 29.2463 54.334 26.599 56.1838 23.9517C58.053 21.3181 59.9238 18.6858 61.8579 16.098L64.762 12.2184C65.7598 10.9462 66.7295 9.65418 67.7522 8.39954C66.9148 9.78479 66.0247 11.1328 65.1626 12.5007L62.4866 16.541C60.7007 19.2333 58.8516 21.8809 57.0008 24.5273C55.1304 27.16 53.26 29.7927 51.3252 32.38C49.3999 34.9739 47.4609 37.5582 45.4321 40.0795ZM49.9678 46.4045C51.6592 43.6458 53.4402 40.9501 55.2349 38.264C57.02 35.5714 58.8696 32.9239 60.7192 30.2767C62.5884 27.6432 64.4592 25.0109 66.3933 22.423L69.2974 18.5433C70.2954 17.2712 71.2651 15.9792 72.2878 14.7245C71.4504 16.1099 70.5603 17.4579 69.6982 18.8257L67.0222 22.8661C65.2364 25.5582 63.3872 28.2059 61.5364 30.8523C59.666 33.4851 57.7954 36.1177 55.8609 38.7051C53.9353 41.299 51.9963 43.8833 49.9678 46.4045ZM7.46997 87.817C9.16138 85.0582 10.9424 82.3625 12.7371 79.6765C14.5222 76.9839 16.3718 74.3364 18.2214 71.6892C20.0906 69.0557 21.9614 66.4232 23.8955 63.8354L26.7996 59.9558C27.7976 58.6837 28.7673 57.3917 29.79 56.1369C28.9526 57.5223 28.0625 58.8703 27.2004 60.2381L24.5244 64.2785C22.7385 66.9707 20.8894 69.6183 19.0386 72.2647C17.1682 74.8976 15.2976 77.5301 13.3631 80.1174C11.4375 82.7114 9.49854 85.2958 7.46997 87.817ZM12.0056 94.142C13.697 91.3833 15.478 88.6877 17.2725 86.0015C19.0579 83.3089 20.9072 80.6615 22.7571 78.0143C24.6262 75.3808 26.4971 72.7483 28.4311 70.1606L31.3352 66.2809C32.333 65.0087 33.3027 63.7167 34.3254 62.4621C33.4883 63.8473 32.5979 65.1953 31.7358 66.5633L29.0601 70.6035C27.2739 73.2958 25.4248 75.9434 23.574 78.5899C21.7039 81.2226 19.8333 83.8553 17.8984 86.4425C15.9732 89.0365 14.0342 91.6208 12.0056 94.142ZM45.4321 87.817C47.1235 85.0582 48.9045 82.3625 50.6992 79.6765C52.4846 76.9839 54.334 74.3364 56.1838 71.6892C58.053 69.0557 59.9238 66.4232 61.8579 63.8354L64.762 59.9558C65.7598 58.6837 66.7295 57.3917 67.7522 56.1369C66.9148 57.5223 66.0247 58.8703 65.1626 60.2381L62.4866 64.2785C60.7007 66.9707 58.8516 69.6183 57.0008 72.2647C55.1304 74.8976 53.26 77.5301 51.3252 80.1174C49.3999 82.7114 47.4609 85.2958 45.4321 87.817ZM49.9678 94.142C51.6592 91.3833 53.4402 88.6877 55.2349 86.0015C57.02 83.3089 58.8696 80.6615 60.7192 78.0143C62.5884 75.3808 64.4592 72.7483 66.3933 70.1606L69.2974 66.2809C70.2954 65.0087 71.2651 63.7167 72.2878 62.4621C71.4504 63.8473 70.5603 65.1953 69.6982 66.5633L67.0222 70.6035C65.2364 73.2958 63.3872 75.9434 61.5364 78.5899C59.666 81.2226 57.7954 83.8553 55.8609 86.4425C53.9353 89.0365 51.9963 91.6208 49.9678 94.142ZM7.46997 137.257C9.16138 134.498 10.9424 131.802 12.7371 129.116C14.5222 126.423 16.3718 123.776 18.2214 121.129C20.0906 118.495 21.9614 115.863 23.8955 113.275L26.7996 109.396C27.7976 108.123 28.7673 106.831 29.79 105.577C28.9526 106.962 28.0625 108.31 27.2004 109.678L24.5244 113.718C22.7385 116.41 20.8894 119.058 19.0386 121.704C17.1682 124.337 15.2976 126.97 13.3631 129.557C11.4375 132.151 9.49854 134.735 7.46997 137.257ZM12.0056 143.582C13.697 140.823 15.478 138.127 17.2725 135.441C19.0579 132.749 20.9072 130.101 22.7571 127.454C24.6262 124.82 26.4971 122.188 28.4311 119.6L31.3352 115.72C32.333 114.448 33.3027 113.156 34.3254 111.902C33.4883 113.287 32.5979 114.635 31.7358 116.003L29.0601 120.043C27.2739 122.735 25.4248 125.383 23.574 128.03C21.7039 130.662 19.8333 133.295 17.8984 135.882C15.9732 138.476 14.0342 141.06 12.0056 143.582ZM45.4321 137.257C47.1235 134.498 48.9045 131.802 50.6992 129.116C52.4846 126.423 54.334 123.776 56.1838 121.129C58.053 118.495 59.9238 115.863 61.8579 113.275L64.762 109.396C65.7598 108.123 66.7295 106.831 67.7522 105.577C66.9148 106.962 66.0247 108.31 65.1626 109.678L62.4866 113.718C60.7007 116.41 58.8516 119.058 57.0008 121.704C55.1304 124.337 53.26 126.97 51.3252 129.557C49.3999 132.151 47.4609 134.735 45.4321 137.257ZM49.9678 143.582C51.6592 140.823 53.4402 138.127 55.2349 135.441C57.02 132.749 58.8696 130.101 60.7192 127.454C62.5884 124.82 64.4592 122.188 66.3933 119.6L69.2974 115.72C70.2954 114.448 71.2651 113.156 72.2878 111.902C71.4504 113.287 70.5603 114.635 69.6982 116.003L67.0222 120.043C65.2364 122.735 63.3872 125.383 61.5364 128.03C59.666 130.662 57.7954 133.295 55.8609 135.882C53.9353 138.476 51.9963 141.06 49.9678 143.582Z" fill="#A2AEE6"/>
<path d="M461.018 17.05H339.375V268.068H461.018V17.05Z" fill="#935B50"/>
<path d="M379.572 135.529H357.79V114.371C357.79 111.483 358.937 108.712 360.98 106.67C363.022 104.628 365.793 103.48 368.681 103.48C370.111 103.48 371.527 103.762 372.849 104.309C374.17 104.856 375.371 105.659 376.382 106.67C377.393 107.681 378.196 108.882 378.743 110.203C379.29 111.525 379.572 112.941 379.572 114.371V135.529Z" fill="#85CDEC"/>
<path d="M369.062 123.042C373.564 123.042 377.213 119.393 377.213 114.891C377.213 110.389 373.564 106.74 369.062 106.74C364.561 106.74 360.911 110.389 360.911 114.891C360.911 119.393 364.561 123.042 369.062 123.042Z" fill="white"/>
<path d="M371.386 108.475C370.83 110.692 370.076 112.839 369.332 114.989L369.212 114.647C371.221 115.907 373.237 117.156 375.132 118.603C372.981 117.575 370.951 116.35 368.913 115.136L368.71 115.015L368.793 114.794C369.598 112.666 370.394 110.535 371.386 108.475Z" fill="#080200"/>
<path d="M377.537 263.592V264.014C377.536 265.089 377.109 266.12 376.349 266.88C375.589 267.64 374.558 268.067 373.483 268.068H361.306C360.231 268.067 359.2 267.64 358.44 266.88C357.68 266.12 357.253 265.089 357.252 264.014V247.605C357.253 246.53 357.68 245.499 358.44 244.739C359.2 243.979 360.231 243.552 361.306 243.551H373.483C374.558 243.552 375.589 243.979 376.349 244.739C377.109 245.499 377.536 246.53 377.537 247.605V263.592Z" fill="#85CDEC"/>
<path d="M384.249 247.734H377.537V250.167H383.033V261.16H377.537V263.592H384.249C384.409 263.593 384.567 263.561 384.715 263.5C384.863 263.439 384.997 263.35 385.11 263.237C385.223 263.124 385.312 262.99 385.373 262.842C385.435 262.694 385.466 262.536 385.466 262.376V248.95C385.466 248.791 385.434 248.632 385.373 248.485C385.312 248.337 385.223 248.203 385.11 248.09C384.997 247.977 384.863 247.888 384.715 247.827C384.567 247.765 384.409 247.734 384.249 247.734Z" fill="white"/>
<path d="M371.621 251.944H368.205C367.757 251.944 367.394 252.307 367.394 252.755V256.171C367.394 256.619 367.757 256.982 368.205 256.982H371.621C372.069 256.982 372.432 256.619 372.432 256.171V252.755C372.432 252.307 372.069 251.944 371.621 251.944Z" fill="white"/>
<path d="M370.484 243.551H369.343V251.945H370.484V243.551Z" fill="#E5CAF3"/>
<path d="M333.345 10.7213V319.651H339.375V312.038H461.019V319.651H467.049V10.7213H333.345ZM339.375 17.0497H398.481V78.9908H339.375V17.0497ZM339.375 83.946H398.481V135.529H339.375V83.946ZM339.375 140.902H398.481V200.007H339.375V140.902ZM339.375 205.38H398.481V268.068H339.375V205.38ZM461.019 306.934H339.375V274.516H461.019V306.934ZM461.019 268.068H402.242V205.38H461.019V268.068ZM461.019 200.007H402.242V140.902H461.019V200.007ZM461.019 135.529H402.242V83.946H461.019V135.529ZM461.019 78.9908H402.242V17.0497H461.019V78.9908Z" fill="#E19974"/>
<path d="M461.018 273.023H339.375V306.934H461.018V273.023Z" fill="#935B50"/>
<path d="M374.988 288.665H354.301V292.784H374.988V288.665Z" fill="#E19974"/>
<path d="M446.093 288.665H425.406V292.784H446.093V288.665Z" fill="#E19974"/>
<path d="M416.262 72.8642H452.961V78.3372H416.262C415.618 78.3372 415.001 78.0815 414.545 77.6263C414.09 77.1711 413.834 76.5536 413.834 75.9099V75.2916C413.834 74.6478 414.09 74.0304 414.545 73.5752C415.001 73.12 415.618 72.8642 416.262 72.8642Z" fill="white"/>
<path d="M454.107 78.4773C454.103 78.6129 454.045 78.7413 453.946 78.8343C453.847 78.9272 453.716 78.9772 453.58 78.9732H415.567C414.116 78.9732 412.935 77.4728 412.935 75.6282C412.935 73.7841 414.116 72.2837 415.567 72.2837H453.58C453.716 72.2797 453.847 72.3297 453.946 72.4227C454.045 72.5156 454.103 72.644 454.107 72.7796V73.1699C454.103 73.3055 454.045 73.4338 453.946 73.5268C453.847 73.6198 453.716 73.6698 453.58 73.6658H415.567C415.127 73.7723 414.735 74.0237 414.455 74.3797C414.175 74.7357 414.023 75.1755 414.023 75.6284C414.023 76.0814 414.175 76.5212 414.455 76.8772C414.735 77.2331 415.127 77.4846 415.567 77.5911H453.58C453.716 77.5871 453.847 77.6371 453.946 77.7301C454.045 77.823 454.103 77.9514 454.107 78.087V78.4773Z" fill="#F65B2B"/>
<path d="M410.548 66.1748H447.247V71.6478H410.548C409.904 71.6478 409.286 71.3921 408.831 70.9368C408.376 70.4816 408.12 69.8642 408.12 69.2204V68.6022C408.12 67.9584 408.376 67.341 408.831 66.8858C409.286 66.4305 409.904 66.1748 410.548 66.1748Z" fill="white"/>
<path d="M448.393 71.7879C448.388 71.9235 448.33 72.0518 448.232 72.1448C448.133 72.2378 448.001 72.2877 447.866 72.2838H409.853C408.402 72.2838 407.221 70.7834 407.221 68.9388C407.221 67.0946 408.402 65.5943 409.853 65.5943H447.866C448.001 65.5903 448.133 65.6403 448.232 65.7332C448.33 65.8262 448.388 65.9546 448.393 66.0901V66.4805C448.388 66.616 448.33 66.7444 448.232 66.8374C448.133 66.9303 448.001 66.9803 447.866 66.9763H409.853C409.413 67.0828 409.021 67.3343 408.741 67.6903C408.461 68.0462 408.309 68.486 408.309 68.939C408.309 69.392 408.461 69.8318 408.741 70.1877C409.021 70.5437 409.413 70.7951 409.853 70.9016H447.866C448.001 70.8977 448.133 70.9476 448.232 71.0406C448.33 71.1336 448.388 71.2619 448.393 71.3975V71.7879Z" fill="#85CDEC"/>
<path d="M422.244 59.4853H458.944V64.9583H422.244C421.6 64.9583 420.983 64.7026 420.528 64.2474C420.073 63.7922 419.817 63.1747 419.817 62.531V61.9127C419.817 61.594 419.88 61.2783 420.002 60.9838C420.124 60.6893 420.302 60.4217 420.528 60.1963C420.753 59.9709 421.021 59.7921 421.315 59.6701C421.61 59.5481 421.925 59.4853 422.244 59.4853Z" fill="white"/>
<path d="M460.089 65.0984C460.085 65.234 460.027 65.3624 459.928 65.4553C459.83 65.5483 459.698 65.5983 459.562 65.5943H421.55C420.098 65.5943 418.918 64.0939 418.918 62.2493C418.918 60.4052 420.098 58.9048 421.55 58.9048H459.562C459.698 58.9008 459.83 58.9508 459.928 59.0438C460.027 59.1368 460.085 59.2651 460.089 59.4007V59.791C460.085 59.9266 460.027 60.0549 459.928 60.1479C459.83 60.2409 459.698 60.2909 459.562 60.2869H421.55C421.109 60.3934 420.718 60.6448 420.438 61.0008C420.158 61.3568 420.005 61.7966 420.005 62.2495C420.005 62.7025 420.158 63.1423 420.438 63.4983C420.718 63.8542 421.109 64.1057 421.55 64.2122H459.562C459.698 64.2082 459.83 64.2582 459.928 64.3512C460.027 64.4441 460.085 64.5725 460.089 64.7081V65.0984Z" fill="#F65B2B"/>
<path d="M447.285 199.372H410.585V193.899H447.285C447.929 193.899 448.546 194.155 449.001 194.61C449.456 195.065 449.712 195.682 449.712 196.326V196.944C449.712 197.588 449.456 198.206 449.001 198.661C448.546 199.116 447.929 199.372 447.285 199.372Z" fill="white"/>
<path d="M409.439 199.511C409.443 199.647 409.501 199.775 409.6 199.868C409.699 199.961 409.83 200.011 409.966 200.007H447.979C449.43 200.007 450.611 198.507 450.611 196.662C450.611 194.818 449.43 193.318 447.979 193.318H409.966C409.83 193.314 409.699 193.364 409.6 193.457C409.501 193.55 409.443 193.678 409.439 193.814V194.204C409.443 194.339 409.501 194.468 409.6 194.561C409.699 194.654 409.83 194.704 409.966 194.7H447.979C448.419 194.806 448.811 195.058 449.091 195.414C449.371 195.77 449.523 196.209 449.523 196.662C449.523 197.115 449.371 197.555 449.091 197.911C448.811 198.267 448.419 198.519 447.979 198.625H409.966C409.83 198.621 409.699 198.671 409.6 198.764C409.501 198.857 409.443 198.985 409.439 199.121V199.511Z" fill="#F65B2B"/>
<path d="M452.999 192.681H416.299V187.208H452.999C453.317 187.208 453.633 187.271 453.928 187.393C454.222 187.515 454.49 187.694 454.715 187.919C454.94 188.145 455.119 188.412 455.241 188.707C455.363 189.001 455.426 189.317 455.426 189.636V190.254C455.426 190.898 455.17 191.515 454.715 191.97C454.26 192.426 453.642 192.681 452.999 192.681Z" fill="white"/>
<path d="M415.153 192.822C415.158 192.957 415.215 193.086 415.314 193.179C415.413 193.272 415.545 193.322 415.68 193.318H453.693C455.144 193.318 456.325 191.817 456.325 189.973C456.325 188.129 455.144 186.628 453.693 186.628H415.68C415.545 186.624 415.413 186.674 415.314 186.767C415.215 186.86 415.158 186.989 415.153 187.124V187.514C415.158 187.65 415.215 187.778 415.314 187.871C415.413 187.964 415.545 188.014 415.68 188.01H453.693C454.133 188.117 454.525 188.368 454.805 188.724C455.085 189.08 455.237 189.52 455.237 189.973C455.237 190.426 455.085 190.866 454.805 191.222C454.525 191.578 454.133 191.829 453.693 191.936H415.68C415.545 191.932 415.413 191.982 415.314 192.075C415.215 192.168 415.158 192.296 415.153 192.432V192.822Z" fill="#85CDEC"/>
<path d="M441.301 185.991H404.602V180.518H441.301C441.945 180.518 442.562 180.773 443.018 181.229C443.473 181.684 443.729 182.301 443.729 182.945V183.563C443.729 184.207 443.473 184.825 443.018 185.28C442.562 185.735 441.945 185.991 441.301 185.991Z" fill="white"/>
<path d="M403.457 186.132C403.461 186.268 403.519 186.396 403.617 186.489C403.716 186.582 403.848 186.632 403.984 186.628H441.996C443.448 186.628 444.628 185.128 444.628 183.283C444.628 181.439 443.448 179.939 441.996 179.939H403.984C403.848 179.935 403.716 179.985 403.617 180.078C403.519 180.171 403.461 180.299 403.457 180.435V180.825C403.461 180.961 403.519 181.089 403.617 181.182C403.716 181.275 403.848 181.325 403.984 181.321H441.996C442.436 181.427 442.828 181.679 443.108 182.035C443.388 182.391 443.541 182.831 443.541 183.284C443.541 183.736 443.388 184.176 443.108 184.532C442.828 184.888 442.436 185.14 441.996 185.246H403.984C403.848 185.242 403.716 185.292 403.617 185.385C403.519 185.478 403.461 185.607 403.457 185.742V186.132Z" fill="#F65B2B"/>
<path d="M397.918 37.4385L392.255 78.9907L385.722 78.1003L391.384 36.5482C391.396 36.459 391.426 36.3731 391.471 36.2953C391.517 36.2176 391.577 36.1496 391.649 36.0951C391.72 36.0406 391.802 36.0008 391.889 35.9779C391.976 35.955 392.067 35.9495 392.156 35.9616L397.331 36.6669C397.511 36.6914 397.674 36.7865 397.784 36.9312C397.894 37.0759 397.942 37.2584 397.918 37.4385Z" fill="#7CA1B1"/>
<path d="M391.091 38.6934L390.984 39.483L397.517 40.3736L397.625 39.5839L391.091 38.6934Z" fill="white"/>
<path d="M390.661 41.8504L390.554 42.6401L397.087 43.5306L397.195 42.7409L390.661 41.8504Z" fill="white"/>
<path d="M386.79 70.2573L386.683 71.0471L393.216 71.9376L393.324 71.1479L386.79 70.2573Z" fill="white"/>
<path d="M386.359 73.4123L386.252 74.202L392.784 75.0926L392.892 74.3029L386.359 73.4123Z" fill="white"/>
<path d="M376.846 37.0546V78.9908H370.252V37.0546C370.252 36.9645 370.269 36.8754 370.304 36.7923C370.338 36.7091 370.389 36.6336 370.452 36.5699C370.516 36.5063 370.592 36.4558 370.675 36.4213C370.758 36.3869 370.847 36.3692 370.937 36.3692H376.16C376.25 36.3692 376.339 36.3869 376.423 36.4214C376.506 36.4558 376.581 36.5063 376.645 36.5699C376.709 36.6336 376.759 36.7091 376.794 36.7923C376.828 36.8754 376.846 36.9645 376.846 37.0546Z" fill="#F65B2B"/>
<path d="M376.846 75.344H370.252V76.14H376.846V75.344Z" fill="white"/>
<path d="M376.846 72.158H370.252V72.954H376.846V72.158Z" fill="white"/>
<path d="M376.846 43.489H370.252V44.285H376.846V43.489Z" fill="white"/>
<path d="M376.846 40.303H370.252V41.099H376.846V40.303Z" fill="white"/>
<path d="M376.838 78.9908V38.9658C376.838 38.7841 376.91 38.6097 377.039 38.4812C377.167 38.3527 377.341 38.2805 377.523 38.2805H385.04C385.13 38.2805 385.219 38.2982 385.302 38.3326C385.385 38.3671 385.461 38.4176 385.524 38.4812C385.588 38.5448 385.639 38.6204 385.673 38.7036C385.708 38.7867 385.725 38.8758 385.725 38.9658V78.9908H376.838Z" fill="#85CDEC"/>
<path d="M385.724 73.982H376.837V74.778H385.724V73.982Z" fill="white"/>
<path d="M384.148 59.591V40.574H378.414V59.591H384.148Z" fill="white"/>
<path d="M354.782 37.0546V78.9908H361.376V37.0546C361.376 36.8728 361.304 36.6984 361.176 36.5699C361.047 36.4414 360.873 36.3692 360.691 36.3692H355.468C355.378 36.3692 355.289 36.3869 355.206 36.4213C355.122 36.4558 355.047 36.5063 354.983 36.5699C354.92 36.6336 354.869 36.7091 354.835 36.7923C354.8 36.8754 354.782 36.9645 354.782 37.0546Z" fill="#85CDEC"/>
<path d="M361.377 75.344H354.782V76.14H361.377V75.344Z" fill="white"/>
<path d="M361.377 72.158H354.782V72.954H361.377V72.158Z" fill="white"/>
<path d="M361.377 43.489H354.782V44.285H361.377V43.489Z" fill="white"/>
<path d="M361.377 40.303H354.782V41.099H361.377V40.303Z" fill="white"/>
<path d="M354.791 78.9908V38.9658C354.791 38.8758 354.773 38.7867 354.738 38.7036C354.704 38.6204 354.653 38.5448 354.59 38.4812C354.526 38.4176 354.451 38.3671 354.367 38.3326C354.284 38.2982 354.195 38.2805 354.105 38.2805H346.588C346.498 38.2805 346.409 38.2982 346.326 38.3326C346.243 38.3671 346.167 38.4176 346.104 38.4812C346.04 38.5448 345.99 38.6204 345.955 38.7036C345.921 38.7867 345.903 38.8758 345.903 38.9658V78.9908H354.791Z" fill="#F65B2B"/>
<path d="M354.79 73.982H345.903V74.778H354.79V73.982Z" fill="white"/>
<path d="M353.213 59.592V40.575H347.479V59.592H353.213Z" fill="white"/>
<path d="M370.257 38.965V78.9899H361.37V38.965C361.37 38.7832 361.442 38.6089 361.571 38.4804C361.699 38.3518 361.874 38.2796 362.055 38.2796H369.572C369.754 38.2796 369.928 38.3518 370.057 38.4804C370.185 38.6089 370.257 38.7832 370.257 38.965Z" fill="#7CA1B1"/>
<path d="M370.258 73.982H361.37V74.778H370.258V73.982Z" fill="white"/>
<path d="M368.681 59.591V40.574H362.947V59.591H368.681Z" fill="white"/>
<path d="M406.813 150.242L410.771 179.287L406.205 179.909L402.247 150.864C402.229 150.738 402.263 150.611 402.34 150.51C402.417 150.408 402.531 150.342 402.657 150.325L406.274 149.832C406.4 149.815 406.528 149.848 406.629 149.925C406.73 150.002 406.796 150.116 406.813 150.242Z" fill="#7CA1B1"/>
<path d="M402.526 152.916L402.45 152.365L407.017 151.742L407.093 152.293L402.526 152.916Z" fill="white"/>
<path d="M402.827 155.121L402.751 154.57L407.318 153.948L407.393 154.499L402.827 155.121Z" fill="white"/>
<path d="M405.532 174.978L405.456 174.427L410.024 173.804L410.099 174.355L405.532 174.978Z" fill="white"/>
<path d="M405.833 177.184L405.757 176.633L410.324 176.011L410.4 176.562L405.833 177.184Z" fill="white"/>
<path d="M416.975 150.595V179.909H421.584V150.595C421.584 150.468 421.534 150.347 421.444 150.257C421.354 150.167 421.232 150.116 421.105 150.116H417.454C417.327 150.116 417.205 150.167 417.115 150.257C417.025 150.347 416.975 150.468 416.975 150.595Z" fill="#F65B2B"/>
<path d="M421.583 177.359H416.974V177.915H421.583V177.359Z" fill="white"/>
<path d="M421.583 175.132H416.974V175.688H421.583V175.132Z" fill="white"/>
<path d="M421.583 155.093H416.974V155.649H421.583V155.093Z" fill="white"/>
<path d="M421.583 152.866H416.974V153.422H421.583V152.866Z" fill="white"/>
<path d="M416.981 179.909V151.931C416.981 151.804 416.93 151.683 416.84 151.593C416.75 151.503 416.629 151.452 416.501 151.452H411.247C411.12 151.452 410.998 151.503 410.909 151.593C410.819 151.683 410.768 151.804 410.768 151.931V179.909H416.981Z" fill="#85CDEC"/>
<path d="M416.98 176.408H410.768V176.964H416.98V176.408Z" fill="white"/>
<path d="M415.878 166.349V153.056H411.87V166.349H415.878Z" fill="white"/>
<path d="M432.397 150.595V179.909H427.788V150.595C427.788 150.468 427.838 150.347 427.928 150.257C428.018 150.167 428.14 150.116 428.267 150.116H431.918C432.045 150.116 432.167 150.167 432.257 150.257C432.346 150.347 432.397 150.468 432.397 150.595Z" fill="#85CDEC"/>
<path d="M432.397 177.359H427.787V177.915H432.397V177.359Z" fill="white"/>
<path d="M432.397 175.132H427.787V175.688H432.397V175.132Z" fill="white"/>
<path d="M432.397 155.093H427.787V155.649H432.397V155.093Z" fill="white"/>
<path d="M432.397 152.866H427.787V153.422H432.397V152.866Z" fill="white"/>
<path d="M432.391 179.909V151.931C432.391 151.804 432.442 151.683 432.532 151.593C432.622 151.503 432.743 151.452 432.871 151.452H438.125C438.252 151.452 438.374 151.503 438.463 151.593C438.553 151.683 438.604 151.804 438.604 151.931V179.909H432.391Z" fill="#F65B2B"/>
<path d="M438.603 176.408H432.391V176.964H438.603V176.408Z" fill="white"/>
<path d="M437.501 166.349V153.056H433.493V166.349H437.501Z" fill="white"/>
<path d="M427.793 151.932V179.909H421.581V151.932C421.581 151.805 421.631 151.683 421.721 151.593C421.811 151.503 421.933 151.453 422.06 151.453H427.314C427.441 151.453 427.563 151.503 427.653 151.593C427.742 151.683 427.793 151.805 427.793 151.932Z" fill="#7CA1B1"/>
<path d="M427.792 176.407H421.579V176.964H427.792V176.407Z" fill="white"/>
<path d="M426.69 166.348V153.055H422.682V166.348H426.69Z" fill="white"/>
<path d="M375.934 158.071V200.007H369.34V158.071C369.34 157.889 369.412 157.715 369.541 157.586C369.669 157.458 369.843 157.386 370.025 157.386H375.248C375.338 157.386 375.427 157.403 375.511 157.438C375.594 157.472 375.669 157.523 375.733 157.586C375.797 157.65 375.847 157.725 375.882 157.809C375.916 157.892 375.934 157.981 375.934 158.071Z" fill="#F65B2B"/>
<path d="M375.934 196.36H369.34V197.156H375.934V196.36Z" fill="white"/>
<path d="M375.934 193.174H369.34V193.97H375.934V193.174Z" fill="white"/>
<path d="M375.934 164.505H369.34V165.301H375.934V164.505Z" fill="white"/>
<path d="M375.934 161.32H369.34V162.116H375.934V161.32Z" fill="white"/>
<path d="M375.926 200.007V159.982C375.926 159.892 375.944 159.803 375.978 159.72C376.012 159.637 376.063 159.561 376.127 159.498C376.19 159.434 376.266 159.383 376.349 159.349C376.432 159.315 376.521 159.297 376.611 159.297H384.128C384.31 159.297 384.484 159.369 384.613 159.498C384.741 159.626 384.813 159.8 384.813 159.982V200.007H375.926Z" fill="#85CDEC"/>
<path d="M384.812 194.998H375.925V195.794H384.812V194.998Z" fill="white"/>
<path d="M383.236 180.608V161.591H377.502V180.608H383.236Z" fill="white"/>
<path d="M353.871 158.071V200.007H360.465V158.071C360.465 157.889 360.392 157.715 360.264 157.586C360.135 157.458 359.961 157.386 359.779 157.386H354.556C354.374 157.386 354.2 157.458 354.071 157.586C353.943 157.715 353.871 157.889 353.871 158.071Z" fill="#85CDEC"/>
<path d="M360.465 196.36H353.87V197.156H360.465V196.36Z" fill="white"/>
<path d="M360.465 193.174H353.87V193.97H360.465V193.174Z" fill="white"/>
<path d="M360.465 164.505H353.87V165.301H360.465V164.505Z" fill="white"/>
<path d="M360.465 161.32H353.87V162.116H360.465V161.32Z" fill="white"/>
<path d="M353.879 200.007V159.982C353.879 159.8 353.806 159.626 353.678 159.498C353.549 159.369 353.375 159.297 353.193 159.297H345.676C345.586 159.297 345.497 159.315 345.414 159.349C345.331 159.383 345.255 159.434 345.192 159.498C345.128 159.561 345.078 159.637 345.043 159.72C345.009 159.803 344.991 159.892 344.991 159.982V200.007H353.879Z" fill="#F65B2B"/>
<path d="M353.878 194.998H344.991V195.794H353.878V194.998Z" fill="white"/>
<path d="M352.301 180.608V161.591H346.567V180.608H352.301Z" fill="white"/>
<path d="M369.346 159.982V200.007H360.459V159.982C360.459 159.8 360.531 159.626 360.659 159.497C360.788 159.369 360.962 159.297 361.144 159.297H368.661C368.842 159.297 369.017 159.369 369.145 159.497C369.274 159.626 369.346 159.8 369.346 159.982Z" fill="#7CA1B1"/>
<path d="M369.346 194.998H360.459V195.795H369.346V194.998Z" fill="white"/>
<path d="M367.769 180.607V161.59H362.035V180.607H367.769Z" fill="white"/>
<path d="M393.7 159.983V200.008H384.813V159.983C384.813 159.801 384.885 159.627 385.013 159.498C385.142 159.369 385.316 159.297 385.498 159.297H393.015C393.196 159.297 393.371 159.369 393.499 159.498C393.628 159.627 393.7 159.801 393.7 159.983Z" fill="#7CA1B1"/>
<path d="M393.7 194.998H384.813V195.795H393.7V194.998Z" fill="white"/>
<path d="M392.123 180.608V161.591H386.389V180.608H392.123Z" fill="white"/>
<path d="M438.044 226.131V268.068H431.45V226.131C431.45 225.95 431.522 225.775 431.65 225.647C431.779 225.518 431.953 225.446 432.135 225.446H437.358C437.54 225.446 437.714 225.518 437.843 225.647C437.971 225.775 438.044 225.95 438.044 226.131Z" fill="#F65B2B"/>
<path d="M438.044 264.42H431.45V265.216H438.044V264.42Z" fill="white"/>
<path d="M438.044 261.235H431.45V262.031H438.044V261.235Z" fill="white"/>
<path d="M438.044 232.566H431.45V233.362H438.044V232.566Z" fill="white"/>
<path d="M438.044 229.38H431.45V230.176H438.044V229.38Z" fill="white"/>
<path d="M438.036 268.068V228.043C438.036 227.861 438.108 227.687 438.236 227.558C438.365 227.43 438.539 227.357 438.721 227.357H446.238C446.419 227.357 446.594 227.43 446.722 227.558C446.851 227.687 446.923 227.861 446.923 228.043V268.068H438.036Z" fill="#85CDEC"/>
<path d="M446.922 263.059H438.035V263.855H446.922V263.059Z" fill="white"/>
<path d="M445.346 248.668V229.651H439.612V248.668H445.346Z" fill="white"/>
<path d="M415.98 226.131V268.068H422.574V226.131C422.574 225.95 422.502 225.775 422.373 225.647C422.245 225.518 422.071 225.446 421.889 225.446H416.666C416.576 225.446 416.486 225.464 416.403 225.498C416.32 225.533 416.245 225.583 416.181 225.647C416.117 225.71 416.067 225.786 416.032 225.869C415.998 225.952 415.98 226.041 415.98 226.131Z" fill="#85CDEC"/>
<path d="M422.575 264.42H415.98V265.216H422.575V264.42Z" fill="white"/>
<path d="M422.575 261.235H415.98V262.031H422.575V261.235Z" fill="white"/>
<path d="M422.575 232.566H415.98V233.362H422.575V232.566Z" fill="white"/>
<path d="M422.575 229.38H415.98V230.176H422.575V229.38Z" fill="white"/>
<path d="M431.457 228.043V268.068H422.569V228.043C422.569 227.861 422.641 227.687 422.77 227.558C422.898 227.43 423.073 227.357 423.254 227.357H430.771C430.953 227.357 431.127 227.43 431.256 227.558C431.384 227.687 431.457 227.861 431.457 228.043Z" fill="#7CA1B1"/>
<path d="M431.456 263.059H422.568V263.856H431.456V263.059Z" fill="white"/>
<path d="M429.879 248.668V229.651H424.145V248.668H429.879Z" fill="white"/>
<path d="M444.747 36.3048C444.61 36.1392 444.438 36.0049 444.244 35.9107C444.05 35.8165 443.839 35.7646 443.623 35.7584C443.053 35.8353 443.081 36.5874 442.079 37.5383C441.262 38.3135 439.683 39.2939 438.418 38.8816C437.364 38.5378 437.511 37.5468 436.269 36.6652C435.557 36.181 434.737 35.8813 433.881 35.7932C434.986 40.2388 437.032 43.2337 439.38 43.2337C441.637 43.2337 443.615 40.4669 444.747 36.3048ZM438.72 49.2586C437.716 49.306 437.178 50.378 435.228 53.6244C434.269 55.219 433.557 56.3614 433.028 57.2086C433.019 57.5245 433.008 57.8383 433.008 58.1593H445.753C445.753 57.8423 445.741 57.5325 445.733 57.2206C445.007 56.2998 443.909 54.9202 442.28 52.7511C440.362 50.196 439.71 49.212 438.72 49.2586Z" fill="#85CDEC"/>
<path d="M439.38 43.9795C435.389 43.9795 432.261 37.0691 432.261 28.2464V27.5001H446.499V28.2464C446.499 37.0691 443.372 43.9795 439.38 43.9795ZM433.761 28.9927C433.925 37.0968 436.743 42.4869 439.38 42.4869C442.017 42.4869 444.835 37.0968 444.999 28.9927H433.761Z" fill="white"/>
<path d="M446.499 58.905H432.261V58.1587C432.261 49.336 435.389 42.4257 439.38 42.4257C443.372 42.4257 446.499 49.336 446.499 58.1587V58.905ZM433.761 57.4124H444.999C444.835 49.3083 442.017 43.9182 439.38 43.9182C436.743 43.9182 433.925 49.3084 433.761 57.4125V57.4124Z" fill="white"/>
<path d="M450.851 57.4123H448.612V28.9925H450.851C450.949 28.9929 451.046 28.9738 451.137 28.9365C451.228 28.8992 451.311 28.8442 451.38 28.7749C451.45 28.7056 451.505 28.6232 451.543 28.5325C451.58 28.4417 451.6 28.3445 451.6 28.2462C451.6 28.148 451.58 28.0507 451.543 27.96C451.505 27.8693 451.45 27.7869 451.38 27.7176C451.311 27.6482 451.228 27.5933 451.137 27.556C451.046 27.5186 450.949 27.4996 450.851 27.5H427.91C427.812 27.4996 427.714 27.5186 427.624 27.556C427.533 27.5933 427.45 27.6482 427.381 27.7176C427.311 27.7869 427.256 27.8693 427.218 27.96C427.18 28.0507 427.161 28.148 427.161 28.2462C427.161 28.3445 427.18 28.4417 427.218 28.5325C427.256 28.6232 427.311 28.7056 427.381 28.7749C427.45 28.8442 427.533 28.8992 427.624 28.9365C427.714 28.9738 427.812 28.9929 427.91 28.9925H430.149V57.4123H427.91C427.712 57.4123 427.522 57.4909 427.382 57.6309C427.242 57.7708 427.164 57.9606 427.164 58.1586C427.164 58.3565 427.242 58.5463 427.382 58.6863C427.522 58.8262 427.712 58.9049 427.91 58.9049H450.851C451.049 58.9049 451.239 58.8262 451.378 58.6863C451.518 58.5463 451.597 58.3565 451.597 58.1586C451.597 57.9606 451.518 57.7708 451.378 57.6309C451.239 57.4909 451.049 57.4123 450.851 57.4123ZM431.641 28.9925H447.119V57.4123H431.641V28.9925Z" fill="#7CA1B1"/>
<path d="M427.525 124.648C427.473 123.466 427.505 122.304 427.541 121.142L428.296 117.802L429.795 111.119L431.294 104.436L432.044 101.094C432.538 100.036 432.976 98.9639 433.521 97.9162C433.566 99.0963 433.504 100.252 433.5 101.421L432.751 104.762L431.251 111.445L429.753 118.128L429.009 121.471C428.545 122.537 428.078 123.602 427.525 124.648Z" fill="#FCFCFC"/>
<path d="M430.888 127.839C430.031 123.349 429.214 118.853 428.44 114.351C428.038 112.103 427.551 109.866 427.326 107.592C427.075 105.309 426.974 103.012 427.026 100.717L427.173 100.696C427.864 102.886 428.409 105.119 428.804 107.382C429.223 109.628 429.38 111.912 429.622 114.183C430.134 118.722 430.605 123.267 431.036 127.818L430.888 127.839Z" fill="#F65B2B"/>
<path d="M437.431 101.78C437.296 102.955 437.08 104.098 436.86 105.239L435.586 108.418L433.047 114.779L430.508 121.14L429.239 124.321C428.583 125.288 427.981 126.277 427.277 127.225C427.419 126.052 427.663 124.921 427.853 123.767L429.122 120.587L431.661 114.226L434.199 107.865L435.463 104.682C436.089 103.703 436.719 102.725 437.431 101.78Z" fill="#85CDEC"/>
<path d="M425.147 101.673L419.199 103.053L424.13 124.318L430.078 122.938L425.147 101.673Z" fill="#85CDEC"/>
<path d="M436.803 131.287V131.686C436.852 132.652 436.517 133.599 435.871 134.319C435.224 135.038 434.32 135.473 433.354 135.529H422.991C422.025 135.473 421.121 135.038 420.474 134.319C419.828 133.599 419.493 132.652 419.542 131.686V116.132C419.493 115.166 419.828 114.22 420.474 113.5C421.121 112.78 422.025 112.345 422.991 112.29H433.354C434.32 112.345 435.224 112.78 435.871 113.5C436.517 114.22 436.852 115.166 436.803 116.132V131.287Z" fill="#7CA1B1"/>
<path d="M436.803 118.193H419.542V119.686H436.803V118.193Z" fill="#FCFCFC"/>
<path d="M436.803 121.178H419.542V122.671H436.803V121.178Z" fill="#FCFCFC"/>
<path d="M298.875 174.198C298.737 174.032 298.565 173.898 298.371 173.804C298.177 173.709 297.966 173.657 297.75 173.651C297.181 173.728 297.208 174.48 296.206 175.431C295.389 176.206 293.81 177.187 292.545 176.774C291.491 176.431 291.638 175.44 290.396 174.558C289.685 174.074 288.864 173.774 288.008 173.686C289.114 178.132 291.159 181.127 293.507 181.127C295.764 181.127 297.742 178.36 298.875 174.198ZM292.848 187.152C291.843 187.199 291.305 188.271 289.355 191.517C288.396 193.112 287.684 194.254 287.155 195.101C287.147 195.417 287.135 195.731 287.135 196.052H299.88C299.88 195.735 299.868 195.425 299.86 195.114C299.134 194.193 298.036 192.813 296.407 190.644C294.489 188.089 293.837 187.105 292.848 187.152Z" fill="#85CDEC"/>
<path d="M293.507 181.872C289.516 181.872 286.388 174.962 286.388 166.139V165.393H300.626V166.139C300.626 174.962 297.499 181.872 293.507 181.872ZM287.888 166.886C288.052 174.99 290.87 180.38 293.507 180.38C296.144 180.38 298.962 174.99 299.126 166.886H287.888Z" fill="white"/>
<path d="M300.626 196.798H286.388V196.052C286.388 187.229 289.516 180.319 293.507 180.319C297.499 180.319 300.626 187.229 300.626 196.052V196.798ZM287.888 195.305H299.126C298.962 187.201 296.144 181.811 293.507 181.811C290.87 181.811 288.052 187.201 287.888 195.305Z" fill="white"/>
<path d="M304.978 195.305H302.739V166.885H304.978C305.176 166.885 305.366 166.807 305.506 166.667C305.645 166.527 305.724 166.337 305.724 166.139C305.724 165.941 305.645 165.751 305.506 165.611C305.366 165.471 305.176 165.393 304.978 165.393H282.037C281.839 165.393 281.649 165.471 281.509 165.611C281.369 165.751 281.291 165.941 281.291 166.139C281.291 166.337 281.369 166.527 281.509 166.667C281.649 166.807 281.839 166.885 282.037 166.885H284.276V195.305H282.037C281.839 195.305 281.649 195.384 281.509 195.524C281.369 195.664 281.291 195.854 281.291 196.051C281.291 196.249 281.369 196.439 281.509 196.579C281.649 196.719 281.839 196.798 282.037 196.798H304.978C305.176 196.798 305.366 196.719 305.506 196.579C305.645 196.439 305.724 196.249 305.724 196.051C305.724 195.854 305.645 195.664 305.506 195.524C305.366 195.384 305.176 195.305 304.978 195.305ZM285.768 166.885H301.246V195.305H285.768V166.885Z" fill="#7CA1B1"/>
<path d="M225.257 122.573H136.569C135.465 122.573 134.569 123.468 134.569 124.573V166.926C134.569 168.031 135.465 168.926 136.569 168.926H225.257C226.362 168.926 227.257 168.031 227.257 166.926V124.573C227.257 123.468 226.362 122.573 225.257 122.573Z" fill="#E5E1E5"/>
<path d="M227.257 122.573H207.569V168.926H227.257V122.573Z" fill="#A5A5A5"/>
<path d="M201.715 159.343H144.098V162.129H201.715V159.343Z" fill="#A5A5A5"/>
<path d="M201.715 146.348H144.098V149.134H201.715V146.348Z" fill="#A5A5A5"/>
<path d="M201.715 134.478H144.098V137.264H201.715V134.478Z" fill="#A5A5A5"/>
<path d="M182.614 179.37H180.985V193.505H182.614V179.37Z" fill="#E5E1E5"/>
<path d="M208.287 196.739H155.313V189.433L181.8 185.36L208.287 189.433V196.739Z" fill="#E5E1E5"/>
<path d="M144.267 135.939L142.485 133.504H140.289V128.232H148.416V133.504H144.755L144.267 135.939Z" fill="#85CDEC"/>
<path d="M144.267 147.813L142.485 145.378H140.289V140.106H148.416V145.378H144.755L144.267 147.813Z" fill="#85CDEC"/>
<path d="M144.267 160.736L142.485 158.301H140.289V153.029H148.416V158.301H144.755L144.267 160.736Z" fill="#85CDEC"/>
<path d="M191.601 182.014C191.601 182.014 169.046 166.711 168.708 166.855C168.369 167 166.136 168.193 177.345 176.549C177.345 176.549 174.416 178.262 176.607 184.398C176.96 185.38 177.533 186.268 178.282 186.995C179.03 187.721 179.935 188.268 180.926 188.592C183.389 189.401 186.736 190.224 188.255 189.359L191.601 182.014ZM165.188 290.315L161.765 300.427C161.765 300.427 149.074 310.684 132.736 313.547C132.736 313.547 127.756 315.884 127.786 319.508L177.071 319.097L176.914 300.301L178.354 290.643L165.188 290.315Z" fill="#F9977A"/>
<path d="M128.572 317.048L176.519 316.648C176.68 316.646 176.839 316.677 176.988 316.737C177.137 316.797 177.273 316.886 177.388 316.999C177.503 317.112 177.594 317.246 177.657 317.394C177.72 317.542 177.753 317.701 177.754 317.862V317.866C177.755 318.027 177.725 318.187 177.665 318.336C177.604 318.485 177.515 318.621 177.402 318.735C177.29 318.85 177.155 318.941 177.007 319.004C176.859 319.067 176.7 319.1 176.539 319.101L127.109 319.514C127.109 319.514 125.686 318.038 128.572 317.048Z" fill="#D6694B"/>
<path d="M142.806 317.543C142.806 317.543 143.251 315.01 140.704 311.532C141.252 310.947 141.929 310.499 142.681 310.223C143.432 309.947 144.238 309.85 145.034 309.941C145.619 310.905 146.097 311.929 146.459 312.996C147.082 314.697 147.524 316.742 146.804 318.123L142.806 317.543ZM154.721 305.142C154.721 305.142 158.861 311.586 156.415 317.496L161.106 317.457C161.106 317.457 163.643 308.13 158.547 302.743C158.547 302.743 155.406 302.851 154.721 305.142Z" fill="#D6694B"/>
<path d="M154.905 257.497L151.353 267.564C151.353 267.564 138.532 277.658 122.159 280.313C122.159 280.313 117.15 282.587 117.134 286.211L166.42 286.427L166.502 267.631L168.066 257.993L154.905 257.497Z" fill="#F9977A"/>
<path d="M117.951 283.761L165.899 283.971C166.06 283.972 166.219 284.004 166.368 284.067C166.516 284.129 166.651 284.22 166.764 284.334C166.877 284.448 166.967 284.584 167.028 284.732C167.088 284.881 167.119 285.041 167.119 285.202V285.206C167.117 285.531 166.987 285.842 166.756 286.07C166.525 286.299 166.213 286.427 165.889 286.425L116.457 286.208C116.457 286.208 115.052 284.714 117.951 283.761Z" fill="#D6694B"/>
<path d="M132.178 284.437C132.178 284.437 132.655 281.91 130.153 278.4C130.708 277.822 131.39 277.383 132.145 277.116C132.901 276.85 133.708 276.764 134.502 276.864C135.075 277.835 135.539 278.866 135.889 279.938C136.489 281.646 136.906 283.696 136.168 285.068L132.178 284.437ZM144.249 272.189C144.249 272.189 148.307 278.685 145.786 284.563L150.477 284.584C150.477 284.584 153.133 275.291 148.106 269.839C148.106 269.839 144.964 269.907 144.249 272.189Z" fill="#D6694B"/>
<path d="M214.144 216.903L181.608 205.582C177.55 204.169 173.099 204.404 169.213 206.237C165.326 208.07 162.314 211.355 160.823 215.386C155.076 230.727 150.687 246.544 147.708 262.654C147.624 263.141 147.723 263.641 147.985 264.06C148.248 264.479 148.656 264.786 149.131 264.923L159.401 267.879L160.416 293.947C160.436 294.464 160.656 294.953 161.028 295.311C161.401 295.669 161.898 295.87 162.415 295.87H177.144C177.62 295.87 178.08 295.7 178.441 295.392C178.803 295.083 179.043 294.656 179.119 294.187L186.119 250.612L202.295 252.066C202.295 252.066 287.175 269.333 273.725 207.173L237.374 208.994L233.131 212.928C230.625 215.251 227.534 216.849 224.189 217.549C220.844 218.25 217.372 218.027 214.144 216.903Z" fill="#6C7FD8"/>
<path d="M221.012 254.15C212.326 249.953 203.578 245.888 194.834 241.818L181.679 235.796C177.3 233.778 172.907 231.788 168.502 229.826L168.564 229.86C168.119 229.606 167.626 229.449 167.116 229.399C166.606 229.349 166.091 229.407 165.606 229.569C164.69 229.906 163.89 230.497 163.298 231.272C162.216 232.745 161.415 234.404 160.936 236.168C159.998 239.604 159.427 243.13 159.234 246.686C158.802 253.746 158.858 260.827 159.401 267.879C159.36 264.348 159.285 260.82 159.372 257.294C159.456 253.769 159.574 250.246 159.915 246.744C160.199 243.252 160.818 239.796 161.765 236.423C162.225 234.775 162.981 233.224 163.998 231.848C164.484 231.212 165.141 230.727 165.891 230.45C166.246 230.335 166.62 230.294 166.991 230.329C167.362 230.363 167.722 230.473 168.049 230.652L168.096 230.679L168.112 230.686C172.493 232.702 176.885 234.694 181.287 236.662L194.485 242.588C203.309 246.482 212.131 250.383 221.012 254.15Z" fill="#065082"/>
<path d="M148.817 256.821C150.402 257.777 152.081 258.569 153.827 259.184C155.557 259.842 157.351 260.32 159.179 260.61C157.595 259.652 155.916 258.86 154.17 258.246C152.439 257.59 150.645 257.113 148.817 256.821ZM180.015 288.611C176.726 288.257 173.419 288.09 170.112 288.112C166.804 288.088 163.497 288.255 160.209 288.611C163.497 288.968 166.804 289.135 170.112 289.111C173.419 289.133 176.726 288.966 180.015 288.611ZM186.119 250.612C186.847 249.915 187.438 249.087 187.863 248.173C188.323 247.276 188.61 246.3 188.709 245.296C187.979 245.993 187.388 246.82 186.965 247.735C186.507 248.634 186.22 249.609 186.119 250.612Z" fill="#065082"/>
<path d="M308.779 202.464H301.391V319.651H308.779V202.464Z" fill="#935B50"/>
<path d="M321.649 196.798H102.186C101.483 196.798 100.912 197.368 100.912 198.072V201.19C100.912 201.894 101.483 202.464 102.186 202.464H321.649C322.353 202.464 322.923 201.894 322.923 201.19V198.072C322.923 197.368 322.353 196.798 321.649 196.798Z" fill="#935B50"/>
<path d="M123.034 202.464H115.646V319.651H123.034V202.464Z" fill="#935B50"/>
<path d="M109.752 202.464H314.588V218.45C314.588 219.125 314.32 219.773 313.842 220.251C313.365 220.728 312.717 220.997 312.041 220.997H112.3C111.624 220.997 110.976 220.728 110.499 220.251C110.021 219.773 109.752 219.125 109.752 218.45V202.464H109.752Z" fill="#C38F86"/>
<path d="M201.911 44.018V45.572L174.522 66.134L201.911 86.696V88.25L201.762 88.448H200.109L172.456 67.679L165.018 73.266L157.58 67.679L129.927 88.448H128.274L128.125 88.25V86.696L155.514 66.134L128.125 45.572V44.018H130.191L165.018 70.167L199.845 44.018H201.911Z" fill="#E5E1E5"/>
<path d="M256.64 151.919L257.611 116.849L231.425 118.285L232.574 139.222C232.634 140.313 232.908 141.382 233.381 142.367C233.853 143.352 234.516 144.235 235.33 144.964C236.144 145.693 237.093 146.255 238.124 146.617C239.155 146.98 240.247 147.135 241.339 147.075L241.935 147.043L242.131 153.029L256.64 151.919Z" fill="#F9977A"/>
<path d="M241.839 147.043L246.026 146.813L242.034 153.029L241.839 147.043Z" fill="#DD765E"/>
<path d="M233.131 212.928C235.839 210.417 236.089 206.945 236.12 203.252L237.461 198.388C232.832 208.941 221.584 206.781 221.584 206.781C215.95 206.599 186.284 189.726 186.284 189.726L189.489 180.583L219.925 187.952C219.925 187.952 225.242 178.546 230.558 168.05C235.874 157.553 242.131 153.029 242.131 153.029L258.355 150.594C287.436 153.139 273.725 207.173 273.725 207.173C287.175 269.333 202.295 252.066 202.295 252.066C200.534 246.927 199.981 241.45 200.679 236.062C201.376 230.674 203.305 225.519 206.316 220.997C210.936 220.997 217.55 221.475 224.801 218.573C227.961 217.331 230.806 215.403 233.131 212.928Z" fill="#85CDEC"/>
<path d="M270.081 250.745H265.081V319.207H270.081V250.745Z" fill="#C38F86"/>
<path d="M221.081 250.745H216.081V319.207H221.081V250.745Z" fill="#C38F86"/>
<path d="M219.925 187.952C219.813 188.514 219.859 189.095 220.058 189.632C220.239 190.176 220.57 190.657 221.012 191.021C221.201 190.462 221.197 189.855 221 189.299C220.803 188.742 220.424 188.268 219.925 187.952ZM235.193 202.447C236.845 200.217 238.344 197.877 239.679 195.443C241.053 193.032 242.261 190.529 243.292 187.952C241.639 190.181 240.14 192.521 238.806 194.956C237.434 197.368 236.226 199.871 235.193 202.447Z" fill="#B02336"/>
<path d="M115.015 191.648H145.649V196.217H115.015C114.478 196.217 113.962 196.003 113.582 195.623C113.202 195.243 112.989 194.728 112.989 194.191V193.675C112.989 193.409 113.041 193.145 113.143 192.899C113.245 192.653 113.394 192.43 113.582 192.242C113.77 192.054 113.994 191.905 114.24 191.803C114.485 191.701 114.749 191.648 115.015 191.648Z" fill="white"/>
<path d="M146.605 196.334C146.601 196.447 146.553 196.554 146.47 196.632C146.388 196.709 146.278 196.751 146.165 196.748H114.435C113.809 196.596 113.252 196.238 112.853 195.732C112.455 195.226 112.238 194.6 112.238 193.956C112.238 193.311 112.455 192.686 112.853 192.179C113.252 191.673 113.809 191.315 114.435 191.164H146.165C146.278 191.161 146.388 191.202 146.47 191.28C146.553 191.358 146.601 191.465 146.605 191.578V191.904C146.601 192.017 146.553 192.124 146.47 192.202C146.388 192.279 146.278 192.321 146.165 192.318H114.435C114.068 192.406 113.741 192.616 113.507 192.913C113.273 193.211 113.146 193.578 113.146 193.956C113.146 194.334 113.273 194.701 113.507 194.998C113.741 195.295 114.068 195.505 114.435 195.594H146.165C146.278 195.591 146.388 195.632 146.47 195.71C146.553 195.788 146.601 195.895 146.605 196.008V196.334Z" fill="#F65B2B"/>
<path d="M110.245 186.065H140.879V190.633H110.245C109.708 190.633 109.192 190.42 108.812 190.04C108.432 189.66 108.219 189.144 108.219 188.607V188.091C108.219 187.553 108.432 187.038 108.812 186.658C109.192 186.278 109.708 186.065 110.245 186.065Z" fill="white"/>
<path d="M141.835 190.75C141.831 190.863 141.783 190.97 141.701 191.048C141.618 191.126 141.508 191.167 141.395 191.164H109.665C109.039 191.012 108.482 190.655 108.084 190.148C107.685 189.642 107.469 189.016 107.469 188.372C107.469 187.728 107.685 187.102 108.084 186.596C108.482 186.089 109.039 185.732 109.665 185.58H141.395C141.508 185.577 141.618 185.619 141.701 185.696C141.783 185.774 141.831 185.881 141.835 185.994V186.32C141.831 186.433 141.783 186.54 141.701 186.618C141.618 186.695 141.508 186.737 141.395 186.734H109.665C109.298 186.823 108.971 187.033 108.737 187.33C108.503 187.627 108.376 187.994 108.376 188.372C108.376 188.75 108.503 189.117 108.737 189.414C108.971 189.711 109.298 189.921 109.665 190.01H141.395C141.508 190.007 141.618 190.049 141.701 190.126C141.783 190.204 141.831 190.311 141.835 190.424V190.75Z" fill="#85CDEC"/>
<path d="M120.009 180.481H150.642V185.049H120.009C119.471 185.049 118.956 184.836 118.576 184.456C118.196 184.076 117.982 183.56 117.982 183.023V182.507C117.982 181.97 118.196 181.454 118.576 181.074C118.956 180.694 119.471 180.481 120.009 180.481Z" fill="white"/>
<path d="M151.598 185.166C151.595 185.279 151.547 185.387 151.464 185.464C151.382 185.542 151.272 185.583 151.159 185.58H119.429C118.803 185.429 118.245 185.071 117.847 184.565C117.449 184.058 117.232 183.433 117.232 182.788C117.232 182.144 117.449 181.518 117.847 181.012C118.245 180.506 118.803 180.148 119.429 179.996H151.159C151.272 179.993 151.382 180.035 151.464 180.112C151.547 180.19 151.595 180.297 151.598 180.41V180.736C151.595 180.849 151.547 180.956 151.464 181.034C151.382 181.112 151.272 181.153 151.159 181.15H119.429C119.061 181.239 118.734 181.449 118.501 181.746C118.267 182.043 118.14 182.41 118.14 182.788C118.14 183.166 118.267 183.533 118.501 183.831C118.734 184.128 119.061 184.338 119.429 184.426H151.159C151.272 184.423 151.382 184.465 151.464 184.542C151.547 184.62 151.595 184.727 151.598 184.84V185.166Z" fill="#F65B2B"/>
<path d="M227.26 107.981C227.26 107.981 226.586 100.552 233.93 105.615C233.93 105.615 238.11 94.3203 251.199 109.334C251.199 109.334 270.413 109.954 263.171 126.094C264.205 128.458 265.605 130.644 267.32 132.572C272.576 138.648 275.779 137.945 280.28 144.812C283.813 150.203 284.17 154.193 284.24 155.252C284.521 158.751 283.77 162.256 282.08 165.332C279.218 170.389 273.342 174.526 266.96 174.332C259.636 174.109 255.937 167.563 251.48 163.532C241.936 154.899 241.588 136.988 240.549 133.917C240.549 133.917 245.359 130.941 241.402 127.918C240.969 127.577 240.465 127.335 239.928 127.21C239.39 127.086 238.832 127.081 238.292 127.196C237.926 127.23 237.586 127.397 237.334 127.665C237.083 127.932 236.938 128.283 236.927 128.65L231.425 118.285C231.425 118.285 226.44 119.759 226.377 113.763C226.377 113.763 221.026 110.99 227.26 107.981Z" fill="#160B07"/>
<path d="M285.63 239.616C285.63 239.616 291.901 220.804 286.993 182.363C286.993 182.363 285.085 169.413 272.271 168.459C259.457 167.504 250.051 188.275 246.235 209.515C242.418 230.755 233.966 249.741 206.294 250.267C206.294 250.267 169.729 256.519 247.582 260.064C247.582 260.064 280.859 260.336 285.63 239.616Z" fill="#935B50"/>
<path d="M240.456 139.012C244.317 139.012 244.323 133.012 240.456 133.012C236.595 133.012 236.589 139.012 240.456 139.012Z" fill="#85CDEC"/>
<path d="M475.049 318.83H0.000366211V320.65H475.049V318.83Z" fill="#935B50"/>
</svg>
