<svg width="210" height="33" viewBox="0 0 210 33" fill="none" xmlns="http://www.w3.org/2000/svg">
<path d="M6.46 21.5C6.796 21.596 7.228 21.668 7.756 21.716C8.284 21.74 8.788 21.752 9.268 21.752C10.228 21.752 11.02 21.56 11.644 21.176C12.292 20.768 12.616 20.144 12.616 19.304C12.616 18.512 12.352 17.948 11.824 17.612C11.296 17.276 10.492 17.108 9.412 17.108H6.46V21.5ZM6.46 12.716H9.088C10.12 12.716 10.864 12.524 11.32 12.14C11.8 11.756 12.04 11.192 12.04 10.448C12.04 9.8 11.764 9.284 11.212 8.9C10.684 8.516 9.88 8.324 8.8 8.324C8.44 8.324 8.02 8.336 7.54 8.36C7.084 8.384 6.724 8.42 6.46 8.468V12.716ZM8.8 26.576C8.392 26.576 7.912 26.564 7.36 26.54C6.808 26.516 6.232 26.468 5.632 26.396C5.056 26.324 4.48 26.228 3.904 26.108C3.328 26.012 2.8 25.868 2.32 25.676C1 25.172 0.34 24.296 0.34 23.048V6.236C0.34 5.732 0.472 5.348 0.736 5.084C1.024 4.796 1.408 4.568 1.888 4.4C2.704 4.112 3.724 3.908 4.948 3.788C6.172 3.644 7.432 3.572 8.728 3.572C11.8 3.572 14.164 4.088 15.82 5.12C17.476 6.152 18.304 7.748 18.304 9.908C18.304 10.988 17.992 11.924 17.368 12.716C16.744 13.484 15.904 14.048 14.848 14.408C16.048 14.744 17.044 15.356 17.836 16.244C18.652 17.132 19.06 18.248 19.06 19.592C19.06 21.968 18.172 23.732 16.396 24.884C14.644 26.012 12.112 26.576 8.8 26.576ZM40.1636 17.252C40.1636 18.74 39.9356 20.072 39.4796 21.248C39.0236 22.4 38.3756 23.372 37.5356 24.164C36.7196 24.956 35.7356 25.556 34.5836 25.964C33.4316 26.372 32.1476 26.576 30.7316 26.576C29.3156 26.576 28.0316 26.36 26.8796 25.928C25.7276 25.496 24.7316 24.884 23.8916 24.092C23.0756 23.276 22.4396 22.292 21.9836 21.14C21.5276 19.988 21.2996 18.692 21.2996 17.252C21.2996 15.836 21.5276 14.552 21.9836 13.4C22.4396 12.248 23.0756 11.276 23.8916 10.484C24.7316 9.668 25.7276 9.044 26.8796 8.612C28.0316 8.18 29.3156 7.964 30.7316 7.964C32.1476 7.964 33.4316 8.192 34.5836 8.648C35.7356 9.08 36.7196 9.704 37.5356 10.52C38.3756 11.312 39.0236 12.284 39.4796 13.436C39.9356 14.588 40.1636 15.86 40.1636 17.252ZM27.5636 17.252C27.5636 18.716 27.8396 19.844 28.3916 20.636C28.9676 21.404 29.7596 21.788 30.7676 21.788C31.7756 21.788 32.5436 21.392 33.0716 20.6C33.6236 19.808 33.8996 18.692 33.8996 17.252C33.8996 15.812 33.6236 14.708 33.0716 13.94C32.5196 13.148 31.7396 12.752 30.7316 12.752C29.7236 12.752 28.9436 13.148 28.3916 13.94C27.8396 14.708 27.5636 15.812 27.5636 17.252ZM61.2573 17.252C61.2573 18.74 61.0293 20.072 60.5733 21.248C60.1173 22.4 59.4693 23.372 58.6293 24.164C57.8133 24.956 56.8293 25.556 55.6773 25.964C54.5253 26.372 53.2413 26.576 51.8253 26.576C50.4093 26.576 49.1253 26.36 47.9733 25.928C46.8213 25.496 45.8253 24.884 44.9853 24.092C44.1693 23.276 43.5333 22.292 43.0773 21.14C42.6213 19.988 42.3933 18.692 42.3933 17.252C42.3933 15.836 42.6213 14.552 43.0773 13.4C43.5333 12.248 44.1693 11.276 44.9853 10.484C45.8253 9.668 46.8213 9.044 47.9733 8.612C49.1253 8.18 50.4093 7.964 51.8253 7.964C53.2413 7.964 54.5253 8.192 55.6773 8.648C56.8293 9.08 57.8133 9.704 58.6293 10.52C59.4693 11.312 60.1173 12.284 60.5733 13.436C61.0293 14.588 61.2573 15.86 61.2573 17.252ZM48.6573 17.252C48.6573 18.716 48.9333 19.844 49.4853 20.636C50.0613 21.404 50.8533 21.788 51.8613 21.788C52.8693 21.788 53.6373 21.392 54.1653 20.6C54.7173 19.808 54.9933 18.692 54.9933 17.252C54.9933 15.812 54.7173 14.708 54.1653 13.94C53.6133 13.148 52.8333 12.752 51.8253 12.752C50.8173 12.752 50.0373 13.148 49.4853 13.94C48.9333 14.708 48.6573 15.812 48.6573 17.252ZM81.3431 22.832C81.2231 23.96 80.8871 24.824 80.3351 25.424C79.8071 26.024 79.0271 26.324 77.9951 26.324C77.2271 26.324 76.5431 26.144 75.9431 25.784C75.3431 25.4 74.6951 24.764 73.9991 23.876L70.4351 19.412V25.964C70.1711 26.012 69.7751 26.072 69.2471 26.144C68.7431 26.24 68.2271 26.288 67.6991 26.288C67.1711 26.288 66.6911 26.252 66.2591 26.18C65.8511 26.108 65.5031 25.964 65.2151 25.748C64.9271 25.532 64.6991 25.244 64.5311 24.884C64.3871 24.5 64.3151 24.008 64.3151 23.408V2.564C64.5791 2.492 64.9631 2.42 65.4671 2.348C65.9951 2.252 66.5231 2.204 67.0511 2.204C67.5791 2.204 68.0471 2.24 68.4551 2.312C68.8871 2.384 69.2471 2.528 69.5351 2.744C69.8231 2.96 70.0391 3.26 70.1831 3.644C70.3511 4.004 70.4351 4.484 70.4351 5.084V14.588L76.6271 8.252C77.8751 8.252 78.8711 8.528 79.6151 9.08C80.3831 9.632 80.7671 10.328 80.7671 11.168C80.7671 11.528 80.7071 11.864 80.5871 12.176C80.4671 12.464 80.2751 12.764 80.0111 13.076C79.7711 13.388 79.4471 13.724 79.0391 14.084C78.6551 14.42 78.1991 14.816 77.6711 15.272L75.5831 17.072L81.3431 22.832ZM83.2483 15.056C83.2483 13.184 83.5363 11.528 84.1123 10.088C84.7123 8.648 85.5163 7.448 86.5243 6.488C87.5563 5.504 88.7563 4.76 90.1243 4.256C91.5163 3.752 93.0163 3.5 94.6243 3.5C96.2323 3.5 97.7203 3.752 99.0883 4.256C100.48 4.76 101.692 5.504 102.724 6.488C103.756 7.448 104.56 8.648 105.136 10.088C105.736 11.528 106.036 13.184 106.036 15.056C106.036 16.928 105.748 18.596 105.172 20.06C104.596 21.5 103.792 22.712 102.76 23.696C101.752 24.656 100.552 25.388 99.1603 25.892C97.7683 26.396 96.2563 26.648 94.6243 26.648C92.9923 26.648 91.4803 26.396 90.0883 25.892C88.6963 25.364 87.4963 24.608 86.4883 23.624C85.4803 22.64 84.6883 21.428 84.1123 19.988C83.5363 18.548 83.2483 16.904 83.2483 15.056ZM89.7283 15.056C89.7283 17.24 90.1723 18.872 91.0603 19.952C91.9483 21.032 93.1363 21.572 94.6243 21.572C96.1363 21.572 97.3363 21.032 98.2243 19.952C99.1123 18.872 99.5563 17.24 99.5563 15.056C99.5563 12.896 99.1123 11.276 98.2243 10.196C97.3603 9.116 96.1723 8.576 94.6603 8.576C93.1723 8.576 91.9723 9.116 91.0603 10.196C90.1723 11.252 89.7283 12.872 89.7283 15.056ZM117.201 7.964C118.641 7.964 119.973 8.156 121.197 8.54C122.445 8.9 123.513 9.464 124.401 10.232C125.289 11 125.985 11.972 126.489 13.148C126.993 14.3 127.245 15.68 127.245 17.288C127.245 18.824 127.029 20.168 126.597 21.32C126.165 22.472 125.553 23.444 124.761 24.236C123.969 25.004 123.009 25.58 121.881 25.964C120.777 26.348 119.541 26.54 118.173 26.54C117.141 26.54 116.181 26.384 115.293 26.072V32.048C115.053 32.12 114.669 32.192 114.141 32.264C113.613 32.36 113.073 32.408 112.521 32.408C111.993 32.408 111.513 32.372 111.081 32.3C110.673 32.228 110.325 32.084 110.037 31.868C109.749 31.652 109.533 31.352 109.389 30.968C109.245 30.608 109.173 30.128 109.173 29.528V12.248C109.173 11.6 109.305 11.072 109.569 10.664C109.857 10.256 110.241 9.884 110.721 9.548C111.465 9.068 112.389 8.684 113.493 8.396C114.597 8.108 115.833 7.964 117.201 7.964ZM117.273 21.716C119.745 21.716 120.981 20.24 120.981 17.288C120.981 15.752 120.669 14.612 120.045 13.868C119.445 13.124 118.569 12.752 117.417 12.752C116.961 12.752 116.553 12.812 116.193 12.932C115.833 13.028 115.521 13.148 115.257 13.292V21.212C115.545 21.356 115.857 21.476 116.193 21.572C116.529 21.668 116.889 21.716 117.273 21.716ZM130.087 3.644C130.087 2.732 130.387 1.964 130.987 1.34C131.611 0.715999 132.427 0.403999 133.435 0.403999C134.443 0.403999 135.247 0.715999 135.847 1.34C136.471 1.964 136.783 2.732 136.783 3.644C136.783 4.556 136.471 5.324 135.847 5.948C135.247 6.572 134.443 6.884 133.435 6.884C132.427 6.884 131.611 6.572 130.987 5.948C130.387 5.324 130.087 4.556 130.087 3.644ZM136.495 25.964C136.231 26.012 135.835 26.072 135.307 26.144C134.803 26.24 134.287 26.288 133.759 26.288C133.231 26.288 132.751 26.252 132.319 26.18C131.911 26.108 131.563 25.964 131.275 25.748C130.987 25.532 130.759 25.244 130.591 24.884C130.447 24.5 130.375 24.008 130.375 23.408V8.756C130.639 8.708 131.023 8.648 131.527 8.576C132.055 8.48 132.583 8.432 133.111 8.432C133.639 8.432 134.107 8.468 134.515 8.54C134.947 8.612 135.307 8.756 135.595 8.972C135.883 9.188 136.099 9.488 136.243 9.872C136.411 10.232 136.495 10.712 136.495 11.312V25.964ZM151.48 14.912C151.48 14.168 151.264 13.628 150.832 13.292C150.424 12.932 149.86 12.752 149.14 12.752C148.66 12.752 148.18 12.812 147.7 12.932C147.244 13.052 146.848 13.232 146.512 13.472V25.964C146.272 26.036 145.888 26.108 145.36 26.18C144.856 26.252 144.328 26.288 143.776 26.288C143.248 26.288 142.768 26.252 142.336 26.18C141.928 26.108 141.58 25.964 141.292 25.748C141.004 25.532 140.776 25.244 140.608 24.884C140.464 24.5 140.392 24.008 140.392 23.408V12.608C140.392 11.96 140.524 11.432 140.788 11.024C141.076 10.616 141.46 10.244 141.94 9.908C142.756 9.332 143.776 8.864 145 8.504C146.248 8.144 147.628 7.964 149.14 7.964C151.852 7.964 153.94 8.564 155.404 9.764C156.868 10.94 157.6 12.584 157.6 14.696V25.964C157.36 26.036 156.976 26.108 156.448 26.18C155.944 26.252 155.416 26.288 154.864 26.288C154.336 26.288 153.856 26.252 153.424 26.18C153.016 26.108 152.668 25.964 152.38 25.748C152.092 25.532 151.864 25.244 151.696 24.884C151.552 24.5 151.48 24.008 151.48 23.408V14.912ZM161.236 3.644C161.236 2.732 161.536 1.964 162.136 1.34C162.76 0.715999 163.576 0.403999 164.584 0.403999C165.592 0.403999 166.396 0.715999 166.996 1.34C167.62 1.964 167.932 2.732 167.932 3.644C167.932 4.556 167.62 5.324 166.996 5.948C166.396 6.572 165.592 6.884 164.584 6.884C163.576 6.884 162.76 6.572 162.136 5.948C161.536 5.324 161.236 4.556 161.236 3.644ZM167.644 25.964C167.38 26.012 166.984 26.072 166.456 26.144C165.952 26.24 165.436 26.288 164.908 26.288C164.38 26.288 163.9 26.252 163.468 26.18C163.06 26.108 162.712 25.964 162.424 25.748C162.136 25.532 161.908 25.244 161.74 24.884C161.596 24.5 161.524 24.008 161.524 23.408V8.756C161.788 8.708 162.172 8.648 162.676 8.576C163.204 8.48 163.732 8.432 164.26 8.432C164.788 8.432 165.256 8.468 165.664 8.54C166.096 8.612 166.456 8.756 166.744 8.972C167.032 9.188 167.248 9.488 167.392 9.872C167.56 10.232 167.644 10.712 167.644 11.312V25.964ZM189.648 17.252C189.648 18.74 189.42 20.072 188.964 21.248C188.508 22.4 187.86 23.372 187.02 24.164C186.204 24.956 185.22 25.556 184.068 25.964C182.916 26.372 181.632 26.576 180.216 26.576C178.8 26.576 177.516 26.36 176.364 25.928C175.212 25.496 174.216 24.884 173.376 24.092C172.56 23.276 171.924 22.292 171.468 21.14C171.012 19.988 170.784 18.692 170.784 17.252C170.784 15.836 171.012 14.552 171.468 13.4C171.924 12.248 172.56 11.276 173.376 10.484C174.216 9.668 175.212 9.044 176.364 8.612C177.516 8.18 178.8 7.964 180.216 7.964C181.632 7.964 182.916 8.192 184.068 8.648C185.22 9.08 186.204 9.704 187.02 10.52C187.86 11.312 188.508 12.284 188.964 13.436C189.42 14.588 189.648 15.86 189.648 17.252ZM177.048 17.252C177.048 18.716 177.324 19.844 177.876 20.636C178.452 21.404 179.244 21.788 180.252 21.788C181.26 21.788 182.028 21.392 182.556 20.6C183.108 19.808 183.384 18.692 183.384 17.252C183.384 15.812 183.108 14.708 182.556 13.94C182.004 13.148 181.224 12.752 180.216 12.752C179.208 12.752 178.428 13.148 177.876 13.94C177.324 14.708 177.048 15.812 177.048 17.252ZM203.722 14.912C203.722 14.168 203.506 13.628 203.074 13.292C202.666 12.932 202.102 12.752 201.382 12.752C200.902 12.752 200.422 12.812 199.942 12.932C199.486 13.052 199.09 13.232 198.754 13.472V25.964C198.514 26.036 198.13 26.108 197.602 26.18C197.098 26.252 196.57 26.288 196.018 26.288C195.49 26.288 195.01 26.252 194.578 26.18C194.17 26.108 193.822 25.964 193.534 25.748C193.246 25.532 193.018 25.244 192.85 24.884C192.706 24.5 192.634 24.008 192.634 23.408V12.608C192.634 11.96 192.766 11.432 193.03 11.024C193.318 10.616 193.702 10.244 194.182 9.908C194.998 9.332 196.018 8.864 197.242 8.504C198.49 8.144 199.87 7.964 201.382 7.964C204.094 7.964 206.182 8.564 207.646 9.764C209.11 10.94 209.842 12.584 209.842 14.696V25.964C209.602 26.036 209.218 26.108 208.69 26.18C208.186 26.252 207.658 26.288 207.106 26.288C206.578 26.288 206.098 26.252 205.666 26.18C205.258 26.108 204.91 25.964 204.622 25.748C204.334 25.532 204.106 25.244 203.938 24.884C203.794 24.5 203.722 24.008 203.722 23.408V14.912Z" fill="white"/>
</svg>
